<svg width="23" height="23" viewBox="0 0 23 23" fill="none" xmlns="http://www.w3.org/2000/svg">
<path d="M22.0707 13.7635C22.6662 13.16 23 12.3464 23 11.4986C23 10.6508 22.6662 9.8372 22.0707 9.23367L20.9027 8.07762C20.6384 7.80608 20.4903 7.44213 20.4899 7.06317V5.70666C20.4871 4.85966 20.1494 4.04819 19.5503 3.44926C18.9513 2.85033 18.1398 2.51262 17.2926 2.50983H15.936C15.557 2.50944 15.193 2.36133 14.9214 2.09709L13.7652 0.92916C13.1616 0.333768 12.3479 0 11.5 0C10.6521 0 9.83839 0.333747 9.23479 0.92916L8.07859 2.09709C7.80702 2.36133 7.44303 2.50944 7.06402 2.50983H5.70735C4.86024 2.5126 4.04868 2.8503 3.44968 3.44926C2.85067 4.04822 2.51292 4.85966 2.51014 5.70666V7.06317C2.50974 7.44214 2.36161 7.80608 2.09735 8.07762L0.929273 9.23367C0.333808 9.8372 0 10.6508 0 11.4986C0 12.3464 0.333788 13.16 0.929273 13.7635L2.09735 14.9196C2.36161 15.1911 2.50974 15.5551 2.51014 15.934V17.2906C2.5129 18.1376 2.85064 18.949 3.44968 19.548C4.04871 20.1469 4.86024 20.4846 5.70735 20.4874H7.06402C7.44304 20.4878 7.80703 20.6359 8.07859 20.9001L9.23479 22.0681C9.83758 22.6651 10.6515 23 11.5 23C12.3485 23 13.1624 22.6651 13.7652 22.0681L14.9214 20.9001C15.193 20.6359 15.557 20.4878 15.936 20.4874H17.2926C18.1398 20.4846 18.9513 20.1469 19.5503 19.548C20.1493 18.949 20.4871 18.1376 20.4899 17.2906V15.934C20.4903 15.5551 20.6384 15.1911 20.9027 14.9196L22.0707 13.7635ZM15.6646 9.7645L10.9455 14.483V14.4832C10.7798 14.6492 10.5549 14.7428 10.3202 14.7428C10.0854 14.7428 9.86045 14.6492 9.69495 14.4832L7.33534 12.1238C7.125 11.8979 7.04738 11.5788 7.13073 11.2816C7.21427 10.9846 7.44654 10.7523 7.74358 10.6688C8.04083 10.5855 8.35998 10.6631 8.58594 10.8734L10.3203 12.6075L14.414 8.51426V8.51406C14.6399 8.30374 14.9591 8.22613 15.2563 8.30966C15.5534 8.393 15.7857 8.62524 15.8692 8.92245C15.9525 9.21966 15.8749 9.53877 15.6646 9.7645Z" fill="#079B3A"/>
</svg>
