<svg width="20" height="20" viewBox="0 0 20 20" fill="none" xmlns="http://www.w3.org/2000/svg">
<path opacity="0.8" d="M10 0C4.48421 0 0 4.48421 0 10C0 15.5158 4.48421 20 10 20C15.5158 20 20 15.5158 20 10C20 4.48421 15.5158 0 10 0ZM10 18.7789C5.15789 18.7789 1.22105 14.8421 1.22105 10C1.22105 5.15789 5.15789 1.22105 10 1.22105C14.8421 1.22105 18.7789 5.15789 18.7789 10C18.7789 14.8421 14.8421 18.7789 10 18.7789Z" fill="#371B2B"/>
<path d="M13.8757 7.19418L8.73853 12.391L6.12429 9.74644C5.86836 9.48753 5.4479 9.48753 5.19196 9.74644C4.93601 10.0054 4.93602 10.4307 5.19196 10.6896L8.26323 13.7966C8.39127 13.9261 8.55577 14 8.73853 14C8.9214 14 9.08591 13.9261 9.21382 13.7966L14.808 8.13735C15.064 7.87844 15.064 7.4531 14.808 7.19418C14.5522 6.93527 14.15 6.93527 13.8757 7.19418Z" fill="#C992AE"/>
</svg>
