<svg width="73" height="73" viewBox="0 0 88 88" fill="none" xmlns="http://www.w3.org/2000/svg">
<path d="M60.5 7.33356H5.5C2.46735 7.33356 0 9.8009 0 12.8336V82.5C0 85.5326 2.46735 88 5.5 88H60.5C63.5326 88 66 85.5326 66 82.5V12.8336C66 9.8009 63.5326 7.33356 60.5 7.33356Z" fill="#92C9AD"/>
<path d="M45.8336 3.66644H39.3285C38.0341 1.43005 35.6326 0 33.0001 0C30.3676 0 27.966 1.43005 26.6716 3.66644H20.1665C17.1345 3.66644 14.6665 6.13446 14.6665 9.16644V12.8336C14.6665 13.8453 15.4883 14.6664 16.5001 14.6664H49.5001C50.5118 14.6664 51.3336 13.8453 51.3336 12.8336V9.16644C51.3336 6.13446 48.8656 3.66644 45.8336 3.66644Z" fill="#455A64"/>
<path d="M16.5001 71.5C16.5001 73.5249 14.8585 75.1664 12.8336 75.1664C10.808 75.1664 9.1665 73.5249 9.1665 71.5C9.1665 69.4751 10.808 67.8336 12.8336 67.8336C14.8585 67.8336 16.5001 69.4751 16.5001 71.5Z" fill="white"/>
<path d="M16.5001 56.8336C16.5001 58.8585 14.8585 60.5 12.8336 60.5C10.808 60.5 9.1665 58.8585 9.1665 56.8336C9.1665 54.808 10.808 53.1664 12.8336 53.1664C14.8585 53.1664 16.5001 54.808 16.5001 56.8336Z" fill="white"/>
<path d="M16.5001 42.1664C16.5001 44.192 14.8585 45.8336 12.8336 45.8336C10.808 45.8336 9.1665 44.192 9.1665 42.1664C9.1665 40.1415 10.808 38.5 12.8336 38.5C14.8585 38.5 16.5001 40.1415 16.5001 42.1664Z" fill="white"/>
<path d="M16.5001 27.5C16.5001 29.5249 14.8585 31.1664 12.8336 31.1664C10.808 31.1664 9.1665 29.5249 9.1665 27.5C9.1665 25.4751 10.808 23.8336 12.8336 23.8336C14.8585 23.8336 16.5001 25.4751 16.5001 27.5Z" fill="white"/>
<path d="M49.5733 69.7034L35.2735 73.2597C35.1271 73.3336 34.9801 73.3336 34.8337 73.3336C34.357 73.3336 33.8803 73.1503 33.55 72.783C33.0733 72.3433 32.8901 71.6833 33.0733 71.0602L36.6303 56.7966L38.5002 56.8336C38.5002 56.8336 42.2767 56.9437 45.8337 60.5C49.39 64.0563 49.5002 67.8336 49.5002 67.8336L49.5733 69.7034Z" fill="#90A4AE"/>
<path d="M87.9999 27.9398C87.9999 30.5065 87.0096 32.9268 85.1768 34.7234L80.1165 39.783L66.5498 26.217L71.61 21.1567C73.4067 19.3232 75.8264 18.3336 78.3931 18.3336C83.6735 18.3336 87.9999 22.66 87.9999 27.9398Z" fill="white"/>
<path d="M80.1165 39.783L50.783 69.1165C50.5634 69.373 50.27 69.52 49.9397 69.5932L49.5731 69.7033L49.4999 67.8335C49.4999 67.8335 49.3898 64.0563 45.8335 60.4999C42.2765 56.9436 38.4999 56.8335 38.4999 56.8335L36.6301 56.7966L36.7402 56.3931C36.8134 56.0634 36.9598 55.77 37.2169 55.5498L66.5498 26.2169L80.1165 39.783Z" fill="#FFC107"/>
<path d="M64.1665 33C63.1547 33 62.3336 32.1789 62.3336 31.1664V12.8336C62.3336 11.8211 61.5118 11 60.5001 11H49.5001C48.4883 11 47.6665 10.1789 47.6665 9.16644C47.6665 8.15466 48.4883 7.33356 49.5001 7.33356H60.5001C63.5327 7.33356 66.0001 9.8009 66.0001 12.8336V31.1664C66.0001 32.1789 65.179 33 64.1665 33Z" fill="black"/>
<path d="M60.5 88H5.5C2.46735 88 0 85.5326 0 82.5V12.8336C0 9.8009 2.46735 7.33356 5.5 7.33356H16.5C17.5118 7.33356 18.3336 8.15466 18.3336 9.16644C18.3336 10.1789 17.5118 11 16.5 11H5.5C4.48822 11 3.66644 11.8211 3.66644 12.8336V82.5C3.66644 83.5118 4.48822 84.3335 5.5 84.3335H60.5C61.5118 84.3335 62.3335 83.5118 62.3335 82.5V53.1664C62.3335 52.1546 63.1546 51.3335 64.1664 51.3335C65.1789 51.3335 66 52.1546 66 53.1664V82.5C66 85.5326 63.5326 88 60.5 88Z" fill="black"/>
<path d="M49.5001 14.6664H16.5001C15.4883 14.6664 14.6665 13.8453 14.6665 12.8336V9.16644C14.6665 6.13446 17.1345 3.66644 20.1665 3.66644H26.6716C27.966 1.43005 30.3676 0 33.0001 0C35.6326 0 38.0341 1.43005 39.3285 3.66644H45.8336C48.8656 3.66644 51.3336 6.13446 51.3336 9.16644V12.8336C51.3336 13.8453 50.5118 14.6664 49.5001 14.6664ZM18.3336 11H47.6665V9.16644C47.6665 8.15466 46.8454 7.33355 45.8336 7.33355H38.163C37.3889 7.33355 36.696 6.84546 36.4355 6.1123C35.9152 4.64935 34.5328 3.66644 33.0001 3.66644C31.4673 3.66644 30.0849 4.64935 29.5646 6.1123C29.3041 6.84546 28.6112 7.33355 27.8371 7.33355H20.1665C19.1547 7.33355 18.3336 8.15466 18.3336 9.16644V11Z" fill="black"/>
<path d="M51.3335 44H23.8336C22.8211 44 22 43.1789 22 42.1664C22 41.1547 22.8211 40.3336 23.8336 40.3336H51.3335C52.3453 40.3336 53.1664 41.1547 53.1664 42.1664C53.1664 43.1789 52.3453 44 51.3335 44Z" fill="black"/>
<path d="M56.8335 29.3336H23.8336C22.8211 29.3336 22 28.5118 22 27.5C22 26.4882 22.8211 25.6664 23.8336 25.6664H56.8335C57.8453 25.6664 58.6664 26.4882 58.6664 27.5C58.6664 28.5118 57.8453 29.3336 56.8335 29.3336Z" fill="black"/>
<path d="M38.5 58.6664H23.8336C22.8211 58.6664 22 57.8453 22 56.8336C22 55.8211 22.8211 55 23.8336 55H38.5C39.5118 55 40.3336 55.8211 40.3336 56.8336C40.3336 57.8453 39.5118 58.6664 38.5 58.6664Z" fill="black"/>
<path d="M34.8336 73.3336H23.8336C22.8211 73.3336 22 72.5118 22 71.5C22 70.4882 22.8211 69.6664 23.8336 69.6664H34.8336C35.8453 69.6664 36.6664 70.4882 36.6664 71.5C36.6664 72.5118 35.8453 73.3336 34.8336 73.3336Z" fill="black"/>
<path d="M12.8335 77C9.80084 77 7.3335 74.5327 7.3335 71.5C7.3335 68.4673 9.80084 66 12.8335 66C15.8655 66 18.3335 68.4673 18.3335 71.5C18.3335 74.5327 15.8655 77 12.8335 77ZM12.8335 69.6664C11.821 69.6664 10.9999 70.4882 10.9999 71.5C10.9999 72.5118 11.821 73.3336 12.8335 73.3336C13.8453 73.3336 14.6664 72.5118 14.6664 71.5C14.6664 70.4882 13.8453 69.6664 12.8335 69.6664Z" fill="black"/>
<path d="M12.8335 62.3336C9.80084 62.3336 7.3335 59.8655 7.3335 56.8336C7.3335 53.8009 9.80084 51.3336 12.8335 51.3336C15.8655 51.3336 18.3335 53.8009 18.3335 56.8336C18.3335 59.8655 15.8655 62.3336 12.8335 62.3336ZM12.8335 55C11.821 55 10.9999 55.8211 10.9999 56.8336C10.9999 57.8453 11.821 58.6664 12.8335 58.6664C13.8453 58.6664 14.6664 57.8453 14.6664 56.8336C14.6664 55.8211 13.8453 55 12.8335 55Z" fill="black"/>
<path d="M12.8335 47.6664C9.80084 47.6664 7.3335 45.1991 7.3335 42.1664C7.3335 39.1345 9.80084 36.6664 12.8335 36.6664C15.8655 36.6664 18.3335 39.1345 18.3335 42.1664C18.3335 45.1991 15.8655 47.6664 12.8335 47.6664ZM12.8335 40.3336C11.821 40.3336 10.9999 41.1547 10.9999 42.1664C10.9999 43.1789 11.821 44 12.8335 44C13.8453 44 14.6664 43.1789 14.6664 42.1664C14.6664 41.1547 13.8453 40.3336 12.8335 40.3336Z" fill="black"/>
<path d="M12.8335 33C9.80084 33 7.3335 30.5327 7.3335 27.5C7.3335 24.4673 9.80084 22 12.8335 22C15.8655 22 18.3335 24.4673 18.3335 27.5C18.3335 30.5327 15.8655 33 12.8335 33ZM12.8335 25.6664C11.821 25.6664 10.9999 26.4882 10.9999 27.5C10.9999 28.5118 11.821 29.3336 12.8335 29.3336C13.8453 29.3336 14.6664 28.5118 14.6664 27.5C14.6664 26.4882 13.8453 25.6664 12.8335 25.6664Z" fill="black"/>
<path d="M34.8334 73.3335C34.3527 73.3335 33.8834 73.1429 33.5349 72.7978C33.0804 72.3432 32.8971 71.6833 33.0549 71.0562L36.7213 56.3898C36.8019 56.0668 36.9671 55.7734 37.2021 55.5391L71.5918 21.1494C73.4099 19.3306 75.8189 18.3336 78.3856 18.3336C83.6875 18.3336 87.9998 22.6418 87.9998 27.9398C87.9998 30.5105 87.0028 32.9228 85.184 34.7382L50.7943 69.128C50.5593 69.3623 50.2625 69.5274 49.9436 69.608L35.2765 73.2745C35.1302 73.3147 34.9838 73.3335 34.8334 73.3335ZM40.1575 57.7721L37.3524 68.9809L48.5612 66.1759L82.5918 32.146C83.7171 31.0234 84.3334 29.535 84.3334 27.9471C84.3334 24.6694 81.6673 22 78.393 22C76.8018 22 75.3093 22.6163 74.1874 23.7416L40.1575 57.7721Z" fill="black"/>
<path d="M78.8335 40.3336C78.3642 40.3336 77.8949 40.1536 77.535 39.7978L66.535 28.7978C65.82 28.0828 65.82 26.9206 66.535 26.2056C67.2501 25.4906 68.4129 25.4906 69.1279 26.2056L80.1279 37.2056C80.8423 37.9206 80.8423 39.0828 80.1279 39.7978C79.7721 40.1536 79.3028 40.3336 78.8335 40.3336Z" fill="black"/>
<path d="M49.5 69.6664C48.5137 69.6664 47.6994 68.8823 47.6665 67.8886C47.6631 67.7785 47.4832 64.7425 44.5351 61.7944C41.587 58.8464 38.5551 58.6705 38.4268 58.6664C37.4218 58.6188 36.6336 57.7681 36.6738 56.7637C36.7108 55.7553 37.5137 54.9778 38.551 55.0034C38.735 55.0107 43.1051 55.1873 47.124 59.2056C51.1429 63.2245 51.3222 67.5952 51.3262 67.7785C51.3551 68.7903 50.5595 69.6335 49.5477 69.6664C49.5369 69.6664 49.5181 69.6664 49.5 69.6664Z" fill="black"/>
</svg>
