<svg width="76" height="78" viewBox="0 0 91 93" fill="none" xmlns="http://www.w3.org/2000/svg">
<path d="M30.5018 69.8302C31.6617 71.8665 28.8014 75.7784 26.6015 77.089C26.1181 77.4089 25.5756 77.6291 25.006 77.7366C24.4363 77.844 23.851 77.8365 23.2842 77.7146C22.7175 77.5926 22.1809 77.3587 21.7058 77.0264C21.2308 76.6942 20.8269 76.2704 20.5179 75.7799C19.983 74.7239 19.8802 73.5011 20.2314 72.3707C20.5826 71.2402 21.3602 70.2909 22.3994 69.724C24.5993 68.412 29.3411 67.7982 30.5018 69.8302Z" fill="#3D60AC"/>
<path d="M61.4449 69.8294C60.285 71.8658 63.1453 75.7777 65.3452 77.0882C65.8286 77.4082 66.3711 77.6284 66.9407 77.7358C67.5104 77.8433 68.0957 77.8358 68.6625 77.7138C69.2292 77.5919 69.7658 77.3579 70.2409 77.0257C70.7159 76.6934 71.1198 76.2696 71.4288 75.7791C71.9637 74.7232 72.0665 73.5004 71.7153 72.3699C71.3641 71.2395 70.5865 70.2902 69.5473 69.7233C67.3481 68.4113 62.6057 67.7982 61.4449 69.8294Z" fill="#3D60AC"/>
<path d="M45.9758 17.162C23.0766 17.162 13.3495 40.0744 21.2599 55.9112H70.6917C78.6021 40.0744 68.875 17.162 45.9758 17.162Z" fill="#3D60AC"/>
<path d="M70.428 55.1294C68.9895 54.0385 66.2616 54.3781 65.3678 54.5476L63.4551 64.5343C65.9889 65.8164 70.0731 63.7728 71.2215 61.3482C72.2236 59.2311 72.2302 56.493 70.428 55.1294Z" fill="#FB7C90"/>
<path d="M21.524 55.1293C19.7234 56.4929 19.7284 59.2311 20.7306 61.3518C21.8775 63.7764 25.9669 65.82 28.497 64.5379L26.5843 54.5512C25.6905 54.3781 22.9626 54.0399 21.524 55.1293Z" fill="#FB7C90"/>
<path d="M62.0344 90.0741H29.9172C25.7638 90.0741 32.1128 82.8197 34.0778 82.7434C38.0996 82.5834 40.1068 81.1288 41.1613 79.2525C41.6903 78.2631 42.0469 77.1908 42.2158 76.0817H49.7357C49.9046 77.1908 50.2612 78.2631 50.7902 79.2525C51.8448 81.1288 53.852 82.5834 57.8737 82.7434C59.8388 82.8197 66.1878 90.0741 62.0344 90.0741Z" fill="#FF9EA7"/>
<path d="M69.9747 91.5287H21.9756C24.841 83.8925 29.7573 82.9107 34.0772 82.7434C35.3838 82.7163 36.6807 82.5108 37.9317 82.1325C38.709 83.5962 39.8698 84.8208 41.2897 85.6754C42.7097 86.5299 44.3353 86.9821 45.9926 86.9836C47.6499 86.9851 49.2763 86.5358 50.6978 85.6838C52.1193 84.8319 53.2823 83.6093 54.0623 82.1471C55.3002 82.5154 56.5819 82.7159 57.8731 82.7434C62.193 82.9107 67.1093 83.8925 69.9747 91.5287Z" fill="#FFB84A"/>
<path d="M45.9981 88.0742C44.1395 88.0838 42.3141 87.5821 40.7215 86.6239C39.129 85.6657 37.8306 84.2881 36.9684 82.6415C36.8993 82.5147 36.856 82.3753 36.8412 82.2316C36.8264 82.0879 36.8402 81.9427 36.882 81.8044C36.9238 81.6661 36.9926 81.5374 37.0844 81.4259C37.1763 81.3144 37.2894 81.2223 37.4172 81.1548C37.545 81.0874 37.6849 81.046 37.8288 81.0331C37.9727 81.0202 38.1177 81.036 38.2555 81.0796C38.3932 81.1232 38.5209 81.1937 38.6312 81.287C38.7415 81.3804 38.8321 81.4947 38.8978 81.6234C39.5828 82.9115 40.6051 83.9892 41.8553 84.7411C43.1056 85.493 44.5367 85.8908 45.9956 85.892C47.4546 85.8932 48.8864 85.4977 50.1379 84.7479C51.3893 83.998 52.4134 82.922 53.1005 81.635C53.2403 81.3872 53.4715 81.2038 53.7447 81.124C54.0179 81.0442 54.3114 81.0743 54.5627 81.2079C54.814 81.3415 55.0031 81.568 55.0897 81.8391C55.1763 82.1102 55.1535 82.4045 55.0263 82.659C54.16 84.3006 52.8605 85.6733 51.2688 86.628C49.6771 87.5827 47.8541 88.0829 45.9981 88.0742Z" fill="white"/>
<path d="M50.7905 79.2525C50.3469 79.3762 49.9178 79.4925 49.5106 79.5943C47.1911 80.1834 44.7611 80.1834 42.4416 79.5943C42.0343 79.4925 41.6052 79.3762 41.1616 79.2525C41.6906 78.2631 42.0472 77.1908 42.2161 76.0817H49.736C49.9049 77.1908 50.2615 78.2631 50.7905 79.2525Z" fill="#F65E7B"/>
<path d="M25.4673 49.5534C25.9931 54.7773 25.8251 64.9713 31.6432 71.1029C35.0155 74.6584 40.5383 76.4024 43.8139 77.2468C45.2345 77.6133 46.7248 77.6133 48.1454 77.2468C51.4181 76.4024 56.9453 74.6584 60.3161 71.1029C66.1342 64.9699 65.9662 54.7773 66.492 49.5534C66.4884 22.1314 25.4673 22.1314 25.4673 49.5534Z" fill="#FF9EA7"/>
<path d="M46.0047 11.9447C45.7952 11.9446 45.5901 11.8841 45.414 11.7706C45.2379 11.657 45.0982 11.4951 45.0117 11.3042C44.9251 11.1134 44.8954 10.9016 44.926 10.6943C44.9567 10.487 45.0464 10.2929 45.1844 10.1352C45.3233 9.9738 46.5393 8.48655 45.4709 7.47421C44.9331 6.9844 44.5144 6.37818 44.2467 5.70184C43.979 5.02549 43.8694 4.29691 43.9262 3.57173C44.0205 2.98629 44.2603 2.43392 44.6238 1.96539C44.9872 1.49685 45.4626 1.12717 46.0062 0.890326C46.2637 0.758299 46.5631 0.733969 46.8385 0.822689C47.114 0.91141 47.3429 1.10591 47.4749 1.36341C47.6069 1.6209 47.6313 1.9203 47.5425 2.19574C47.4538 2.47117 47.2593 2.70008 47.0018 2.83211C46.1742 3.2561 46.108 3.72591 46.0847 3.88009C46.0829 4.25836 46.1608 4.63276 46.3135 4.97888C46.4661 5.32499 46.69 5.63504 46.9705 5.88878C49.057 7.86474 47.7887 10.4705 46.8251 11.5701C46.723 11.6874 46.5969 11.7815 46.4554 11.8461C46.3139 11.9107 46.1603 11.9443 46.0047 11.9447Z" fill="#332C44"/>
<path d="M4.25735 47.9019C4.0914 47.9021 3.92564 47.8904 3.76136 47.867C3.17615 47.7723 2.62409 47.5322 2.15584 47.1686C1.68758 46.8051 1.31814 46.3298 1.08141 45.7863C1.01332 45.6586 0.97132 45.5186 0.957856 45.3745C0.944393 45.2304 0.959733 45.0851 1.00299 44.947C1.04624 44.8089 1.11654 44.6808 1.20979 44.5701C1.30304 44.4594 1.41737 44.3684 1.54614 44.3024C1.67491 44.2363 1.81553 44.1965 1.95982 44.1854C2.1041 44.1742 2.24917 44.1919 2.38657 44.2373C2.52397 44.2827 2.65095 44.3551 2.76012 44.4501C2.86929 44.5451 2.95847 44.6608 3.02246 44.7906C3.44646 45.6183 3.91626 45.6852 4.07117 45.707C4.44944 45.7088 4.82385 45.6309 5.16996 45.4783C5.51607 45.3256 5.82612 45.1017 6.07986 44.8212C8.05437 42.7332 10.6616 44.003 11.7605 44.9666C11.8721 45.0598 11.964 45.1743 12.0307 45.3034C12.0974 45.4326 12.1377 45.5738 12.1491 45.7187C12.1605 45.8636 12.1428 46.0093 12.0971 46.1473C12.0514 46.2853 11.9785 46.4128 11.8829 46.5222C11.7872 46.6317 11.6706 46.7209 11.5399 46.7846C11.4093 46.8484 11.2672 46.8854 11.1221 46.8934C10.9769 46.9015 10.8317 46.8805 10.6947 46.8316C10.5578 46.7827 10.4321 46.707 10.3249 46.6088C10.162 46.4706 8.67545 45.2554 7.66311 46.3223C6.77788 47.2736 5.5554 47.8406 4.25735 47.9019Z" fill="#332C44"/>
<path d="M83.3573 47.9069C82.1886 47.8554 81.0723 47.4067 80.193 46.635C79.9769 46.4441 79.8451 46.1755 79.8265 45.8877C79.8079 45.6 79.9039 45.3166 80.0937 45.0994C80.2834 44.8823 80.5514 44.7491 80.839 44.729C81.1266 44.7089 81.4105 44.8035 81.6287 44.9921C81.7916 45.1303 83.2781 46.3455 84.2904 45.2786C84.7807 44.7416 85.3869 44.3234 86.0629 44.0556C86.739 43.7878 87.4671 43.6776 88.1922 43.7332C88.7773 43.828 89.3293 44.0682 89.7975 44.4318C90.2657 44.7953 90.6352 45.2705 90.8721 45.8139C90.9402 45.9416 90.9822 46.0816 90.9957 46.2257C91.0091 46.3697 90.9938 46.5151 90.9505 46.6532C90.9073 46.7913 90.837 46.9194 90.7437 47.0301C90.6505 47.1407 90.5362 47.2318 90.4074 47.2978C90.2786 47.3638 90.138 47.4036 89.9937 47.4148C89.8494 47.4259 89.7044 47.4083 89.567 47.3629C89.4296 47.3174 89.3026 47.2451 89.1934 47.1501C89.0842 47.0551 88.9951 46.9393 88.9311 46.8095C88.5071 45.9826 88.0373 45.9157 87.8824 45.8932C87.5043 45.8926 87.1303 45.9712 86.7844 46.1237C86.4384 46.2763 86.1282 46.4995 85.8737 46.779C85.5575 47.1338 85.1699 47.4178 84.7362 47.6122C84.3025 47.8066 83.8326 47.907 83.3573 47.9069Z" fill="#332C44"/>
<path d="M70.6967 22.194C70.4074 22.2036 70.1261 22.0979 69.9147 21.9002C69.7033 21.7024 69.5791 21.4288 69.5695 21.1394C69.5598 20.8501 69.6655 20.5688 69.8633 20.3574C70.061 20.146 70.3347 20.0218 70.624 20.0122C70.8363 19.9955 72.7476 19.8042 72.7083 18.3329C72.674 17.6059 72.8064 16.8807 73.0953 16.2126C73.3842 15.5446 73.822 14.9514 74.3752 14.4785C74.8559 14.1315 75.4161 13.9109 76.0043 13.8368C76.5925 13.7627 77.1899 13.8376 77.7417 14.0545C78.0171 14.1432 78.246 14.3377 78.378 14.5952C78.5101 14.8527 78.5344 15.1521 78.4457 15.4275C78.3569 15.703 78.1624 15.9319 77.9049 16.0639C77.6474 16.1959 77.348 16.2203 77.0726 16.1315C76.1868 15.8464 75.8072 16.1315 75.6835 16.2246C75.4145 16.4908 75.2047 16.8107 75.0677 17.1635C74.9307 17.5162 74.8697 17.8939 74.8886 18.2719C74.9664 21.1445 72.229 22.0885 70.7702 22.1867C70.7469 22.1932 70.7214 22.194 70.6967 22.194Z" fill="#332C44"/>
<path d="M21.2703 22.175C20.9932 22.1757 20.7262 22.0708 20.5236 21.8817C20.3209 21.6926 20.1979 21.4334 20.1794 21.1569C20.1634 20.946 19.9765 19.0718 18.5467 19.0718H18.5016C17.7746 19.107 17.0491 18.9751 16.381 18.6862C15.7128 18.3974 15.1197 17.9594 14.6472 17.4057C14.3004 16.9247 14.0799 16.3644 14.0058 15.7761C13.9317 15.1879 14.0065 14.5904 14.2232 14.0385C14.2652 13.8999 14.3345 13.7711 14.4269 13.6596C14.5192 13.5481 14.6329 13.456 14.7612 13.3889C14.8895 13.3218 15.0299 13.2808 15.1742 13.2685C15.3185 13.2562 15.4637 13.2727 15.6016 13.3171C15.7394 13.3615 15.867 13.433 15.977 13.5272C16.0869 13.6215 16.177 13.7366 16.2419 13.8661C16.3069 13.9955 16.3455 14.1365 16.3553 14.281C16.3652 14.4255 16.3462 14.5705 16.2995 14.7075C16.0151 15.5919 16.2995 15.9723 16.3933 16.0966C16.6598 16.3666 16.9805 16.5769 17.3343 16.7137C17.6881 16.8505 18.0669 16.9106 18.4456 16.8901C21.3139 16.8362 22.2623 19.5496 22.3605 21.0093C22.3703 21.1526 22.3518 21.2964 22.3059 21.4326C22.2601 21.5687 22.1877 21.6945 22.0931 21.8026C21.9985 21.9107 21.8835 21.9991 21.7547 22.0626C21.6258 22.1262 21.4857 22.1636 21.3423 22.1729C21.3219 22.1743 21.295 22.175 21.2703 22.175Z" fill="#332C44"/>
<path d="M47.186 58.9446C47.009 58.9445 46.8347 58.9013 46.6781 58.8189C46.5215 58.7364 46.3873 58.617 46.2871 58.4711C46.1906 58.4228 46.0842 58.3976 45.9762 58.3976C45.8683 58.3976 45.7618 58.4228 45.6653 58.4711C45.5336 58.6632 45.3438 58.8081 45.1237 58.8845C44.9037 58.961 44.665 58.965 44.4425 58.896C44.22 58.827 44.0255 58.6886 43.8873 58.501C43.7492 58.3135 43.6747 58.0866 43.6748 57.8537C43.6748 56.6282 45.2551 56.2159 45.9759 56.2159C46.6966 56.2159 48.2769 56.6282 48.2769 57.8537C48.2769 58.143 48.162 58.4205 47.9574 58.625C47.7528 58.8296 47.4753 58.9446 47.186 58.9446Z" fill="#332C44"/>
<path d="M59.1705 47.4349C57.9928 47.9088 56.7317 48.1411 55.4624 48.118C54.1931 48.0949 52.9413 47.8168 51.7816 47.3004C51.5501 47.186 51.3683 46.9911 51.2703 46.7522C51.1723 46.5134 51.1648 46.2469 51.2492 46.0029C51.3338 45.7475 51.5121 45.5336 51.7481 45.4043C51.9841 45.275 52.2604 45.24 52.5212 45.3062C54.2154 45.7922 55.9782 45.9957 57.7386 45.9084C58.9945 45.7542 59.4585 46.0997 59.6127 46.4742C59.6765 46.6605 59.6662 46.8642 59.5838 47.043C59.5015 47.2219 59.3535 47.3622 59.1705 47.4349Z" fill="#332C44"/>
<path d="M52.88 55.6915C52.6423 55.6916 52.4112 55.6141 52.2216 55.4708C52.0321 55.3275 51.8945 55.1263 51.8298 54.8976C51.7651 54.669 51.7768 54.4254 51.8632 54.2041C51.9496 53.9827 52.1059 53.7956 52.3083 53.6712C55.6086 51.6429 57.7839 53.1686 58.4995 53.6712C58.7235 53.842 58.8728 54.0928 58.9161 54.3712C58.9593 54.6496 58.8932 54.9339 58.7315 55.1647C58.5699 55.3954 58.3252 55.5546 58.0488 55.609C57.7724 55.6635 57.4857 55.6088 57.2486 55.4566C56.4166 54.8748 55.3701 54.3519 53.4523 55.5293C53.2802 55.6354 53.0821 55.6915 52.88 55.6915Z" fill="#332C44"/>
<path d="M39.0717 55.6915C38.8704 55.6913 38.6731 55.6355 38.5016 55.5301C36.583 54.3519 35.5372 54.8755 34.7053 55.4573C34.4684 55.6235 34.1752 55.6888 33.8903 55.6388C33.6053 55.5888 33.3518 55.4277 33.1857 55.1908C33.0195 54.9539 32.9542 54.6608 33.0042 54.3758C33.0542 54.0908 33.2153 53.8374 33.4522 53.6712C34.1671 53.1701 36.3438 51.6429 39.6434 53.6712C39.8458 53.7956 40.0021 53.9827 40.0885 54.2041C40.1749 54.4255 40.1866 54.669 40.1219 54.8976C40.0572 55.1263 39.9196 55.3276 39.7301 55.4709C39.5405 55.6141 39.3094 55.6916 39.0717 55.6915Z" fill="#332C44"/>
<path d="M66.8358 36.7231C64.3028 31.7428 60.8883 23.7903 46.5213 23.7903C32.1543 23.7903 27.8955 31.9792 25.1297 37.4409C22.225 43.1754 23.7952 47.9949 25.1988 49.3781C26.8526 51.0072 30.0591 50.8523 32.2838 48.9462C32.5142 48.7566 32.7983 48.6439 33.0961 48.6239C33.3938 48.604 33.6904 48.6777 33.9441 48.8349C37.6088 50.9956 49.8623 49.2283 52.3619 36.0351C52.6696 34.4104 55.0281 33.9988 56.3044 36.7777C59.5618 43.8648 59.9305 48.4087 62.9886 49.8683C63.7492 50.2108 64.5971 50.3094 65.416 50.1505C66.2348 49.9916 66.9844 49.5831 67.5617 48.9811C69.5871 46.7266 68.7885 40.5667 66.8358 36.7231Z" fill="#3D60AC"/>
<path d="M45.976 67.1662H48.5301C49.0908 67.1662 49.6086 66.4957 49.4028 65.6019C49.2871 64.7757 48.8767 64.0193 48.2472 63.4718C47.6177 62.9244 46.8116 62.6229 45.9774 62.6229C45.1432 62.6229 44.3371 62.9244 43.7076 63.4718C43.0782 64.0193 42.6678 64.7757 42.552 65.6019C42.3448 66.4957 42.8626 67.1662 43.4247 67.1662H45.976Z" fill="white"/>
<path d="M67.847 78.8766C66.7709 78.8725 65.7157 78.5785 64.7925 78.0257C62.4158 76.6104 58.8966 72.1065 60.5016 69.2898C60.7621 68.8722 61.1042 68.5116 61.5075 68.2295C61.9108 67.9474 62.3669 67.7498 62.8485 67.6484C65.3273 67.1648 67.8971 67.5671 70.1095 68.7851C71.3922 69.5001 72.3465 70.6861 72.7704 72.0921C73.1943 73.4982 73.0546 75.014 72.3807 76.3188C72.0447 76.9049 71.5942 77.4175 71.0561 77.8261C70.518 78.2346 69.9033 78.5308 69.2484 78.6969C68.7909 78.8169 68.3199 78.8773 67.847 78.8766ZM62.3969 70.3676C61.6849 71.6178 63.9481 74.9807 65.9081 76.1486C66.3207 76.4018 66.7793 76.5706 67.2575 76.6455C67.7357 76.7204 68.224 76.6999 68.6942 76.585C69.0676 76.4916 69.4184 76.3244 69.726 76.093C70.0335 75.8617 70.2915 75.571 70.4847 75.2381C70.8784 74.4298 70.9427 73.5003 70.6641 72.6455C70.3856 71.7907 69.7859 71.0775 68.9917 70.6564C67.2804 69.746 65.3148 69.4313 63.4049 69.7618C63.0047 69.8342 62.6455 70.0523 62.3969 70.3742V70.3676Z" fill="#332C44"/>
<path d="M24.1046 78.8766C23.6309 78.8774 23.1592 78.817 22.701 78.6969C22.047 78.5301 21.4333 78.2337 20.8961 77.8252C20.3589 77.4166 19.9092 76.9044 19.5738 76.3188C18.8999 75.014 18.7601 73.4981 19.184 72.0921C19.6079 70.686 20.5622 69.5001 21.845 68.7851C24.0565 67.5678 26.6252 67.1655 29.1031 67.6484C29.5847 67.7498 30.0408 67.9474 30.4441 68.2295C30.8474 68.5115 31.1895 68.8722 31.4499 69.2898C33.0564 72.1065 29.5372 76.6104 27.1591 78.0257C26.2358 78.5785 25.1807 78.8724 24.1046 78.8766ZM27.2005 69.6047C25.7224 69.6111 24.2675 69.9727 22.9584 70.6593C22.1642 71.0804 21.5645 71.7936 21.286 72.6484C21.0074 73.5032 21.0718 74.4327 21.4654 75.241C21.6585 75.5744 21.9167 75.8656 22.2245 76.0973C22.5323 76.3291 22.8835 76.4966 23.2573 76.5901C23.7275 76.705 24.2159 76.7256 24.6941 76.6507C25.1723 76.5758 25.6309 76.4069 26.0435 76.1537C28.0034 74.9857 30.2667 71.6229 29.5547 70.3727C29.3061 70.0509 28.9469 69.8327 28.5467 69.7604C28.1064 69.6517 27.654 69.5994 27.2005 69.6047Z" fill="#332C44"/>
<path d="M48.5302 68.2571H43.422C43.1305 68.2533 42.8438 68.1835 42.5833 68.0529C42.3228 67.9222 42.0953 67.7342 41.918 67.5029C41.6887 67.2007 41.531 66.8504 41.4565 66.4785C41.3821 66.1065 41.3929 65.7225 41.4882 65.3553C41.9245 63.5037 43.334 61.5299 45.9761 61.5299C48.6182 61.5299 50.0262 63.5037 50.4633 65.3502C50.5591 65.7181 50.5702 66.103 50.4959 66.4758C50.4216 66.8487 50.2637 67.1998 50.0342 67.5029C49.8569 67.7342 49.6294 67.9222 49.3689 68.0529C49.1084 68.1835 48.8216 68.2533 48.5302 68.2571ZM43.6016 66.0753H48.3506C48.3619 65.9997 48.3579 65.9225 48.339 65.8484C48.2802 65.262 48.0055 64.7185 47.5683 64.3233C47.1311 63.9282 46.5627 63.7096 45.9734 63.7102C45.3841 63.7107 44.816 63.9303 44.3796 64.3263C43.9431 64.7222 43.6695 65.2663 43.6118 65.8528C43.5932 65.9255 43.5897 66.0012 43.6016 66.0753Z" fill="#332C44"/>
<path d="M45.9981 88.0742C44.1395 88.0838 42.3141 87.5821 40.7215 86.6239C39.129 85.6657 37.8306 84.2881 36.9684 82.6415C36.8993 82.5147 36.856 82.3753 36.8412 82.2316C36.8264 82.0879 36.8402 81.9427 36.882 81.8044C36.9238 81.6661 36.9926 81.5374 37.0844 81.4259C37.1763 81.3144 37.2894 81.2223 37.4172 81.1548C37.545 81.0874 37.6849 81.046 37.8288 81.0331C37.9727 81.0202 38.1177 81.036 38.2555 81.0796C38.3932 81.1232 38.5209 81.1937 38.6312 81.287C38.7415 81.3804 38.8321 81.4947 38.8978 81.6234C39.5828 82.9115 40.6051 83.9892 41.8553 84.7411C43.1056 85.493 44.5367 85.8908 45.9956 85.892C47.4546 85.8932 48.8864 85.4977 50.1379 84.7479C51.3893 83.998 52.4134 82.922 53.1005 81.635C53.2403 81.3872 53.4715 81.2038 53.7447 81.124C54.0179 81.0442 54.3114 81.0743 54.5627 81.2079C54.814 81.3415 55.0031 81.568 55.0897 81.8391C55.1763 82.1102 55.1535 82.4045 55.0263 82.659C54.16 84.3006 52.8605 85.6733 51.2688 86.628C49.6771 87.5827 47.8541 88.0829 45.9981 88.0742Z" fill="white"/>
<path d="M70.3618 28.8985C65.3211 20.7445 56.434 16.0711 45.976 16.0711C35.5181 16.0711 26.6309 20.7445 21.5903 28.8985C19.1854 32.7959 17.7834 37.2283 17.5096 41.7997C17.2357 46.3712 18.0985 50.9392 20.0209 55.0959C18.5496 56.9802 18.7758 59.7692 19.7445 61.8186C20.6583 63.6234 22.2302 65.0084 24.1357 65.6877C24.7579 65.9069 25.4121 66.0214 26.0717 66.0266C26.4266 66.0258 26.7803 65.987 27.1269 65.9109C27.9832 68.108 29.246 70.124 30.8491 71.8534C33.0825 74.2082 36.4809 76.1137 40.9463 77.5464C40.3965 79.6787 39.0904 81.4539 34.0374 81.6532C29.2607 81.8416 23.9706 83.1172 20.9569 91.1476C20.9039 91.2822 20.8783 91.426 20.8814 91.5706C20.8846 91.7153 20.9165 91.8578 20.9752 91.99C21.034 92.1222 21.1185 92.2414 21.2238 92.3406C21.329 92.4398 21.453 92.5171 21.5884 92.568C21.7238 92.6189 21.868 92.6423 22.0126 92.637C22.1571 92.6316 22.2992 92.5975 22.4305 92.5367C22.5617 92.476 22.6796 92.3897 22.7772 92.2829C22.8748 92.1761 22.9502 92.051 22.999 91.9148C25.6862 84.7571 30.1502 83.9877 34.1261 83.8335C35.2352 83.8 36.3382 83.6553 37.4184 83.4015C38.1478 83.2203 38.8559 82.9623 39.5311 82.6321C40.4078 82.1903 41.1759 81.5601 41.7805 80.7866C42.385 80.0131 42.8109 79.1155 43.0277 78.158C43.9991 78.3821 44.9858 78.5336 45.9797 78.6111C46.971 78.5337 47.9553 78.383 48.9244 78.1602C49.1442 79.1244 49.5759 80.0277 50.1881 80.8044C50.8003 81.5812 51.5777 82.2119 52.4639 82.651C53.1345 82.9967 53.8478 83.2523 54.5853 83.411C55.6515 83.6583 56.7394 83.7999 57.8333 83.8335C61.807 83.9899 66.2695 84.7571 68.9604 91.9148C69.0092 92.051 69.0846 92.1761 69.1822 92.2829C69.2798 92.3897 69.3976 92.476 69.5289 92.5367C69.6602 92.5975 69.8022 92.6316 69.9468 92.637C70.0914 92.6423 70.2356 92.6189 70.371 92.568C70.5064 92.5171 70.6303 92.4398 70.7356 92.3406C70.8409 92.2414 70.9254 92.1222 70.9841 91.99C71.0429 91.8578 71.0748 91.7153 71.0779 91.5706C71.0811 91.426 71.0555 91.2822 71.0025 91.1476C67.9887 83.1172 62.6987 81.8386 57.922 81.6532C52.869 81.4539 51.5629 79.6787 51.0131 77.5464C55.4784 76.1137 58.8769 74.2082 61.1103 71.8534C62.7129 70.1239 63.9751 68.1079 64.831 65.9109C65.1776 65.987 65.5314 66.0258 65.8862 66.0266C66.5459 66.0214 67.2001 65.9069 67.8222 65.6877C69.7277 65.0084 71.2996 63.6234 72.2134 61.8186C73.1821 59.7692 73.4083 56.9802 71.937 55.0959C73.8585 50.9388 74.7204 46.3704 74.4455 41.799C74.1706 37.2276 72.7676 32.7954 70.3618 28.8985ZM24.8433 63.6237C23.4924 63.1389 22.3751 62.1606 21.7161 60.8856C20.9307 59.2267 20.8391 57.0151 22.1808 55.9991C22.978 55.51 23.9274 55.3316 24.8477 55.498C24.903 56.0747 24.9692 56.6675 25.0448 57.2682C24.5526 57.1076 24.0341 57.0429 23.5175 57.0776C23.2296 57.1066 22.9649 57.2487 22.7817 57.4728C22.5986 57.6969 22.5119 57.9846 22.5408 58.2725C22.5698 58.5605 22.7119 58.8252 22.936 59.0083C23.1601 59.1915 23.4478 59.2782 23.7357 59.2492C24.0719 59.2495 24.4036 59.3261 24.7059 59.4731C25.0083 59.6201 25.2733 59.8337 25.4811 60.0979C25.7125 61.3547 26.0148 62.5974 26.3866 63.8201C25.864 63.867 25.3375 63.8 24.8433 63.6237ZM65.1975 52.0043C64.8143 57.3315 64.2353 65.3822 59.5249 70.3523C57.1613 72.8432 53.2414 74.8068 47.8727 76.19C46.6304 76.5093 45.3275 76.5093 44.0852 76.19C38.7165 74.8082 34.7966 72.8446 32.433 70.3523C27.7197 65.3822 27.1408 57.3344 26.7604 52.0043C26.74 51.7134 26.7197 51.4479 26.6993 51.1737C27.1918 51.2988 27.6981 51.3616 28.2062 51.3606C28.3356 51.3606 28.4673 51.3606 28.6004 51.3497C30.2994 51.2294 31.9077 50.5373 33.1632 49.3861C34.6715 50.4043 37.2918 50.7563 40.1245 50.2312C42.707 49.7541 51.2981 47.3156 53.4392 36.0089C53.4491 35.9107 53.4921 35.8187 53.561 35.748C53.63 35.6774 53.7208 35.6322 53.8188 35.6198C54.2348 35.5668 54.8479 35.9798 55.3191 37.0016C56.4057 39.3652 57.1577 41.4197 57.8209 43.2321C59.1394 46.8531 60.0965 49.4712 62.5183 50.6254C63.1687 50.9365 63.8809 51.0968 64.6019 51.0945C64.8248 51.0932 65.0473 51.0772 65.2681 51.0465C65.2484 51.3621 65.2215 51.6705 65.1975 52.0043ZM70.2345 60.8892C69.5755 62.1642 68.4582 63.1425 67.1073 63.6273C66.6113 63.8042 66.0827 63.8712 65.5582 63.8237C65.9299 62.601 66.2322 61.3583 66.4637 60.1016C66.6723 59.8382 66.9375 59.6252 67.2397 59.4783C67.5418 59.3314 67.8731 59.2543 68.2091 59.2529C68.4971 59.2818 68.7847 59.1952 69.0088 59.012C69.2329 58.8288 69.375 58.5641 69.404 58.2762C69.4329 57.9882 69.3463 57.7005 69.1631 57.4764C68.9799 57.2523 68.7152 57.1102 68.4273 57.0813C67.9106 57.0465 67.3921 57.1115 66.9 57.2725C66.9728 56.6711 67.0455 56.0784 67.0971 55.5017C68.0174 55.3355 68.9667 55.5138 69.764 56.0027C71.1116 57.0151 71.02 59.2267 70.2345 60.8892ZM70.1618 53.7286C69.2526 53.3593 68.2691 53.2097 67.2913 53.2922C67.3204 52.9053 67.4738 50.8108 67.5269 50.2043C67.838 50.0011 68.1226 49.76 68.3742 49.4865C70.908 46.6647 69.6833 39.8539 67.8178 36.022C67.6914 35.7616 67.4667 35.5621 67.1932 35.4674C66.9197 35.3727 66.6197 35.3905 66.3593 35.5169C66.0989 35.6434 65.8994 35.8681 65.8047 36.1416C65.71 36.4151 65.7278 36.7151 65.8542 36.9755C67.772 40.9223 68.2156 46.3971 66.7495 48.0298C66.3313 48.4584 65.792 48.7487 65.2039 48.8617C64.6159 48.9747 64.0073 48.9049 63.4601 48.6618C61.8398 47.8873 61.0536 45.7397 59.8645 42.4888C59.1867 40.6379 58.4187 38.5398 57.2958 36.0969C56.301 33.9333 54.7068 33.3144 53.5475 33.4577C52.9901 33.5245 52.4693 33.7699 52.0629 34.1573C51.6565 34.5446 51.3864 35.0531 51.293 35.6068C49.4065 45.544 41.9594 47.6713 39.7216 48.0894C37.3406 48.5302 35.4693 48.2102 34.5668 47.7142C36.0686 45.4248 37.9427 41.123 40.15 34.8919C40.241 34.6205 40.2216 34.3242 40.0962 34.0669C39.9707 33.8097 39.7492 33.612 39.4793 33.5166C39.2095 33.4212 38.9129 33.4356 38.6537 33.5569C38.3944 33.6781 38.1931 33.8963 38.0933 34.1646C35.0715 42.6946 33.2606 45.9462 32.2752 47.1738C31.8127 47.7511 31.2362 48.2268 30.5817 48.5712C29.9271 48.9157 29.2086 49.1216 28.4709 49.176C28.0209 49.2233 27.566 49.1766 27.1349 49.0389C26.7039 48.9012 26.3062 48.6755 25.967 48.376C24.8841 47.3098 24.1975 43.1397 26.1604 37.5798C26.2109 37.4441 26.2339 37.2998 26.228 37.1551C26.2222 37.0105 26.1876 36.8685 26.1262 36.7373C26.0649 36.6062 25.9781 36.4886 25.8709 36.3913C25.7637 36.294 25.6382 36.2191 25.5017 36.1708C25.3652 36.1226 25.2205 36.102 25.076 36.1102C24.9314 36.1184 24.79 36.1554 24.6599 36.2188C24.5298 36.2823 24.4136 36.371 24.3181 36.4798C24.2226 36.5886 24.1497 36.7153 24.1037 36.8525C21.9256 43.0212 22.6027 48.0596 24.4004 49.8887C24.4652 50.5759 24.5219 51.333 24.5808 52.1628C24.607 52.5264 24.6346 52.9039 24.6637 53.2908C23.6859 53.208 22.7023 53.3575 21.7932 53.7271C20.1315 49.9409 19.4139 45.8078 19.7018 41.683C19.9897 37.5581 21.2747 33.5648 23.4463 30.0461C28.1473 22.4412 36.1486 18.2529 45.976 18.2529C55.8035 18.2529 63.8048 22.4412 68.5058 30.0461C70.6775 33.5643 71.9627 37.5572 72.251 41.6816C72.5393 45.806 71.8222 49.9388 70.1611 53.725L70.1618 53.7286Z" fill="#332C44"/>
</svg>
