<svg width="68" height="76" viewBox="0 0 83 93" fill="none" xmlns="http://www.w3.org/2000/svg">
<path d="M36.37 53.0267C37.8097 59.5188 38.5358 66.1487 38.5355 72.7985C38.5354 76.1682 38.3489 79.5353 37.9767 82.8844L37.0533 91.1963H8.89264L6.54196 84.1428C3.19067 74.0895 1.48207 63.5616 1.48193 52.9645C1.48184 42.1508 4.77955 31.5943 10.935 22.7036C13.4653 19.0476 14.821 14.7072 14.8212 10.261C14.821 7.91195 14.4421 5.57827 13.6992 3.34979L13.3391 2.26782H69.6604L69.3003 3.34979C68.5573 5.57827 68.1785 7.91195 68.1783 10.261C68.177 14.7097 69.5327 19.0529 72.0645 22.711C78.2185 31.5996 81.5161 42.1533 81.5175 52.9645C81.5174 63.5616 79.8088 74.0895 76.4575 84.1428L74.1068 91.1963H45.9462L45.0228 82.8844C44.6509 79.5378 44.4644 76.1731 44.464 72.8059C44.4637 66.1561 45.1898 59.5262 46.6294 53.0341L36.37 53.0267Z" fill="#EAB6AB"/>
<path d="M72.0645 22.7036C70.1331 19.9136 68.8777 16.7122 68.3979 13.353C67.9182 9.99373 68.2271 6.56892 69.3003 3.34979L69.6605 2.26782H16.3034L16.6636 3.34979C17.7368 6.56892 18.0457 9.99373 17.566 13.353C17.0862 16.7122 15.8308 19.9136 13.8994 22.7036C7.74391 31.5943 4.44619 42.1508 4.44629 52.9645C4.44643 63.5616 6.15502 74.0895 9.50632 84.1428L11.857 91.1963H37.0534L37.9768 82.8844C38.3486 79.5378 38.5352 76.1731 38.5355 72.8059C38.5357 66.1561 37.8096 59.5262 36.3701 53.0341L36.6384 53.3557C37.2323 54.0683 37.9757 54.6416 38.8158 55.035C39.6559 55.4285 40.5722 55.6324 41.4998 55.6324C42.4275 55.6324 43.3438 55.4285 44.1839 55.035C45.024 54.6416 45.7673 54.0683 46.3612 53.3557L46.6295 53.0341C44.4574 62.8309 43.9146 72.9186 45.0229 82.8918L45.9462 91.1963H74.1069L76.4576 84.1428C79.8089 74.0895 81.5175 63.5616 81.5176 52.9645C81.5177 42.1508 78.22 31.5943 72.0645 22.7036Z" fill="#FBDFD3"/>
<path d="M38.5356 12.6428V9.67854C39.5194 9.67908 40.4784 9.36982 41.2765 8.79465C42.0746 8.21947 42.6714 7.40758 42.9821 6.47415L43.0591 6.24146L45.8752 7.18706L45.7981 7.41531C45.2912 8.93975 44.3165 10.2655 43.0126 11.204C41.7088 12.1426 40.1422 12.646 38.5356 12.6428Z" fill="#EAB6AB"/>
<path d="M41.4996 57.107C40.3538 57.1076 39.222 56.8555 38.1847 56.3687C37.1475 55.882 36.2303 55.1726 35.4984 54.2909L29.9849 47.6747L32.2644 45.7775L37.7765 52.3923C38.2312 52.9383 38.8004 53.3776 39.4438 53.6791C40.0872 53.9806 40.7891 54.1369 41.4996 54.1369C42.2102 54.1369 42.912 53.9806 43.5554 53.6791C44.1988 53.3776 44.7681 52.9383 45.2228 52.3923L50.7348 45.7775L53.0144 47.6747L47.5008 54.2909C46.769 55.1726 45.8518 55.882 44.8145 56.3687C43.7772 56.8555 42.6454 57.1076 41.4996 57.107Z" fill="#EAB6AB"/>
<path d="M41.5003 17.0907L35.5718 30.4314H38.5361L41.5003 43.7678L47.4289 28.9493H44.4646L41.5003 17.0907Z" fill="#C04C1F"/>
<path d="M44.4645 28.9493L41.5002 17.0907L40.0181 28.9463H42.9823L41.5002 43.7678L47.4288 28.9493H44.4645Z" fill="#DE6024"/>
<path d="M35.572 43.7678L26.6791 28.9464L25.197 33.3928H13.3398L23.7148 40.8035L25.197 37.8392L35.572 43.7678Z" fill="#C04C1F"/>
<path d="M25.197 33.3928H13.3398L23.7148 37.8392L25.197 34.8749L35.572 43.7678L26.6791 28.9464L25.197 33.3928Z" fill="#DE6024"/>
<path d="M47.4282 43.7678L56.3211 28.9464L57.8032 33.3928H69.6603L59.2854 40.8035L57.8032 37.8392L47.4282 43.7678Z" fill="#C04C1F"/>
<path d="M57.8032 33.3928H69.6603L59.2854 37.8392L57.8032 34.8749L47.4282 43.7678L56.3211 28.9464L57.8032 33.3928Z" fill="#DE6024"/>
<path d="M69.6607 10.2625C69.6594 8.072 70.0128 5.89573 70.7071 3.81817L71.0672 2.7362C71.1414 2.51339 71.1616 2.27613 71.1262 2.04397C71.0907 1.81182 71.0006 1.59142 70.8632 1.40093C70.7258 1.21045 70.5452 1.05533 70.3361 0.948366C70.127 0.841401 69.8955 0.785649 69.6607 0.785706H13.3393C13.1045 0.785649 12.873 0.841401 12.6639 0.948366C12.4548 1.05533 12.2742 1.21045 12.1368 1.40093C11.9994 1.59142 11.9093 1.81182 11.8738 2.04397C11.8384 2.27613 11.8586 2.51339 11.9328 2.7362L12.2929 3.81817C12.9872 5.89573 13.3406 8.072 13.3393 10.2625C13.3451 14.4077 12.0809 18.4552 9.71697 21.8603C3.37548 30.9917 -0.0157039 41.847 5.4673e-05 52.9645C-0.00272194 63.7215 1.73147 74.4084 5.13567 84.6126L7.48635 91.6646C7.58469 91.9599 7.77346 92.2167 8.02592 92.3987C8.27838 92.5806 8.5817 92.6785 8.8929 92.6784H37.0536C37.4185 92.6785 37.7705 92.5439 38.0424 92.3005C38.3142 92.0571 38.4867 91.722 38.5268 91.3593L39.4502 83.049C39.8274 79.6451 40.0169 76.2231 40.0179 72.7985C40.0096 67.3379 39.5196 61.8887 38.5535 56.5142C39.4875 56.9017 40.4888 57.1011 41.5 57.1011C42.5112 57.1011 43.5125 56.9017 44.4465 56.5142C42.8667 65.2679 42.5671 74.2047 43.5572 83.0445L44.4806 91.3549C44.5196 91.7171 44.6906 92.0522 44.9609 92.2964C45.2313 92.5405 45.5821 92.6765 45.9464 92.6784H74.1071C74.4183 92.6785 74.7216 92.5806 74.9741 92.3987C75.2265 92.2167 75.4153 91.9599 75.5137 91.6646L77.8643 84.6126C81.2693 74.4061 83.0035 63.7166 82.9999 52.9571C83.0154 41.8401 79.6242 30.9854 73.283 21.8543C70.9202 18.4509 69.6561 14.4057 69.6607 10.2625ZM75.0527 83.6744L73.0385 89.7141H47.2803L46.5037 82.7214C45.4245 73.0246 45.9361 63.2167 48.0185 53.6848L53.0207 47.6821L50.7441 45.782L45.2305 52.3998C44.7757 52.9455 44.2064 53.3847 43.563 53.686C42.9196 53.9873 42.2179 54.1435 41.5074 54.1435C40.797 54.1435 40.0952 53.9873 39.4518 53.686C38.8084 53.3847 38.2391 52.9455 37.7843 52.3998L32.2707 45.7835L29.9941 47.6836L34.9964 53.6848C36.3626 59.9643 37.0522 66.3721 37.0536 72.7985C37.0526 76.1137 36.869 79.4264 36.5037 82.7214L35.7271 89.7141H9.96152L7.94729 83.6744C4.6433 73.7704 2.96065 63.3977 2.96434 52.9571C2.94991 42.4431 6.1569 32.1771 12.1536 23.541C14.8606 19.6426 16.3089 15.0086 16.3036 10.2625C16.3044 8.05878 15.9925 5.86608 15.3773 3.74999H67.6227C66.655 7.08198 66.4423 10.5878 66.9999 14.0123C67.5576 17.4369 68.8716 20.6941 70.8464 23.5469C76.8433 32.1835 80.0503 42.45 80.0357 52.9645C80.0386 63.4026 78.356 73.7727 75.0527 83.6744Z" fill="black"/>
<path d="M48.6563 28.1178C48.5208 27.9168 48.3381 27.7521 48.1241 27.6382C47.9102 27.5242 47.6715 27.4645 47.4291 27.4642H45.6224L42.9382 16.732C42.8635 16.4326 42.6971 16.164 42.4624 15.9636C42.2277 15.7633 41.9362 15.6412 41.6288 15.6145C41.3213 15.5877 41.0132 15.6576 40.7474 15.8144C40.4815 15.9711 40.2713 16.207 40.1459 16.489L34.2173 29.8282C34.1174 30.0538 34.0754 30.3008 34.0951 30.5468C34.1147 30.7927 34.1955 31.0299 34.3301 31.2367C34.4646 31.4435 34.6487 31.6135 34.8656 31.7312C35.0824 31.8489 35.3253 31.9106 35.572 31.9106H37.3506L40.057 44.0864C40.1256 44.3955 40.2914 44.6746 40.5301 44.8826C40.7688 45.0906 41.0679 45.2168 41.3835 45.2425L41.5006 45.2499C41.7967 45.2497 42.0861 45.1608 42.3312 44.9946C42.5764 44.8285 42.7661 44.5927 42.876 44.3176L48.8046 29.4962C48.8941 29.2718 48.9274 29.0289 48.9015 28.7886C48.8757 28.5484 48.7915 28.3181 48.6563 28.1178ZM41.9067 38.7626L39.9799 30.1098C39.9074 29.7807 39.7249 29.486 39.4625 29.2745C39.2 29.063 38.8733 28.9472 38.5363 28.9464H37.853L41.1137 21.6246L43.0405 29.305C43.12 29.6236 43.3029 29.9068 43.5607 30.1101C43.8185 30.3135 44.1365 30.4254 44.4649 30.4285H45.24L41.9067 38.7626Z" fill="black"/>
<path d="M69.6613 31.9107H58.8728L57.7286 28.478C57.6392 28.209 57.4746 27.9713 57.2542 27.793C57.0338 27.6147 56.7669 27.5034 56.4852 27.4722C56.2034 27.441 55.9187 27.4912 55.6646 27.617C55.4106 27.7427 55.1979 27.9387 55.0518 28.1816L46.159 43.003C45.9878 43.2846 45.9154 43.6151 45.9531 43.9425C45.9908 44.2698 46.1365 44.5752 46.3672 44.8105C46.5979 45.0458 46.9004 45.1975 47.2269 45.2416C47.5534 45.2858 47.8854 45.2198 48.1702 45.0543L57.1846 39.9038L57.9657 41.466C58.0616 41.6576 58.1978 41.8261 58.365 41.96C58.5323 42.0939 58.7266 42.1899 58.9345 42.2414C59.1424 42.293 59.3591 42.2989 59.5695 42.2587C59.7799 42.2184 59.9791 42.1331 60.1533 42.0085L70.5283 34.5978C70.7838 34.4148 70.9745 34.1554 71.0729 33.857C71.1713 33.5586 71.1724 33.2367 71.0759 32.9377C70.9794 32.6386 70.7904 32.378 70.5361 32.1934C70.2818 32.0088 69.9755 31.9098 69.6613 31.9107ZM59.8362 38.5892L59.1307 37.1767C59.0405 36.9963 58.9145 36.8363 58.7604 36.7063C58.6063 36.5763 58.4272 36.4791 58.2342 36.4207C58.0412 36.3623 57.8384 36.3439 57.638 36.3666C57.4377 36.3893 57.244 36.4526 57.069 36.5527L51.6177 39.6652L55.9352 32.4709L56.3976 33.8597C56.4957 34.1552 56.6844 34.4123 56.9368 34.5946C57.1893 34.7768 57.4928 34.8749 57.8042 34.8749H65.0355L59.8362 38.5892Z" fill="black"/>
<path d="M27.9486 28.1831C27.8026 27.9401 27.5899 27.7442 27.3358 27.6184C27.0818 27.4927 26.797 27.4425 26.5153 27.4737C26.2335 27.5049 25.9667 27.6162 25.7463 27.7945C25.5259 27.9727 25.3612 28.2105 25.2719 28.4795L24.1277 31.9106H13.3392C13.0255 31.911 12.72 32.011 12.4667 32.196C12.2134 32.3811 12.0253 32.6417 11.9296 32.9405C11.8339 33.2392 11.8354 33.5606 11.9339 33.8584C12.0325 34.1562 12.223 34.4151 12.478 34.5978L22.853 42.0085C23.0273 42.1331 23.2265 42.2184 23.4369 42.2586C23.6473 42.2989 23.8639 42.293 24.0719 42.2414C24.2798 42.1899 24.4741 42.0939 24.6413 41.96C24.8086 41.8261 24.9448 41.6576 25.0407 41.466L25.8217 39.9038L34.8302 45.0543C35.1149 45.2166 35.4453 45.28 35.7699 45.2346C36.0944 45.1892 36.3948 45.0375 36.6239 44.8033C36.8531 44.569 36.9982 44.2654 37.0365 43.9399C37.0748 43.6145 37.0041 43.2855 36.8355 43.0045L27.9486 28.1831ZM25.9374 36.5527C25.7118 36.4236 25.4562 36.3562 25.1963 36.3571C25.0507 36.3577 24.906 36.3791 24.7665 36.4208C24.5734 36.4792 24.3944 36.5763 24.2402 36.7063C24.086 36.8362 23.9599 36.9963 23.8698 37.1767L23.1643 38.5892L17.9649 34.8749H25.1963C25.5075 34.875 25.8108 34.7771 26.0633 34.5952C26.3157 34.4132 26.5045 34.1564 26.6028 33.8611L27.0653 32.4724L31.3827 39.6667L25.9374 36.5527Z" fill="black"/>
<path d="M45.7981 7.41092L45.8737 7.18119L43.0577 6.24744L42.9821 6.4742C42.6716 7.40775 42.0749 8.21977 41.2767 8.79498C40.4786 9.37019 39.5195 9.67936 38.5356 9.67859V12.6429C40.1426 12.6453 41.7094 12.141 43.0132 11.2017C44.3171 10.2624 45.2916 8.93594 45.7981 7.41092Z" fill="black"/>
</svg>
