<svg width="80" height="80" viewBox="0 0 91 91" fill="none" xmlns="http://www.w3.org/2000/svg">
<path d="M41.096 8.14095C27.6557 6.58329 23.0929 12.6042 21.6661 15.647C21.1628 16.7025 20.2865 17.5342 19.2062 17.9818C8.67367 22.4578 2.97337 36.6609 5.97211 37.9392C8.04378 38.8229 6.25648 45.2618 7.7914 51.1527H65.0318C65.3823 49.0199 65.565 41.1548 65.142 35.8206C65.1038 35.3077 65.1821 34.7927 65.3713 34.3144C65.5604 33.836 65.8553 33.4067 66.234 33.0586C66.7054 32.6615 67.0864 32.168 67.3512 31.6114C67.6161 31.0548 67.7588 30.448 67.7696 29.8317C68.0853 25.2873 53.3205 9.88844 41.096 8.14095Z" fill="#3D60AC"/>
<path d="M7.78897 50.4417C5.12864 51.7086 4.30964 54.9441 5.40875 58.4604C6.49862 61.9568 10.9491 65.1646 14.2706 63.9254L12.9909 50.4688C12.1873 50.0547 11.2972 49.8365 10.3932 49.8318C9.48917 49.8271 8.59686 50.0361 7.78897 50.4417Z" fill="#F97D8C"/>
<path d="M65.0317 50.4418C64.2244 50.0367 63.3328 49.828 62.4296 49.8327C61.5264 49.8374 60.6371 50.0553 59.834 50.4688L58.5508 63.9254C61.8723 65.1646 66.322 61.9568 67.4119 58.4604C68.5117 54.9441 67.692 51.7086 65.0317 50.4418Z" fill="#F97D8C"/>
<path d="M51.9487 19.8572C51.7523 19.8573 51.5597 19.8032 51.3921 19.7008L50.8944 19.3922C46.8207 16.8592 35.9981 10.1309 27.0716 18.6955C26.9705 18.7926 26.8514 18.8688 26.7208 18.9198C26.5903 18.9707 26.4511 18.9955 26.311 18.9927C26.1709 18.9898 26.0327 18.9594 25.9044 18.9032C25.7761 18.847 25.6601 18.766 25.563 18.665C25.466 18.5639 25.3898 18.4447 25.3388 18.3142C25.2878 18.1837 25.263 18.0444 25.2658 17.9043C25.2687 17.7642 25.2991 17.6261 25.3553 17.4977C25.4115 17.3694 25.4925 17.2534 25.5936 17.1563C35.7173 7.44422 47.9881 15.0733 52.0191 17.5829L52.5054 17.8836C52.7035 18.005 52.8566 18.1879 52.9413 18.4043C53.026 18.6207 53.0377 18.8588 52.9746 19.0825C52.9115 19.3061 52.7771 19.5031 52.5918 19.6433C52.4065 19.7835 52.1804 19.8594 51.948 19.8593L51.9487 19.8572Z" fill="#332C44"/>
<path d="M59.8334 50.5583C59.6059 41.346 55.9318 30.3727 48.103 24.5231C42.5477 20.3698 32.2626 18.7908 27.0365 23.2235C26.7047 23.5109 26.3397 23.7577 25.9494 23.9586C16.8494 28.5328 13.2109 41.5401 12.9876 50.5583C12.8541 54.9387 13.2513 59.3191 14.1706 63.604C16.0966 71.8609 22.3869 78.1726 28.7605 81.1031C31.148 82.2332 33.7518 82.833 36.3931 82.8612C39.0459 82.8334 41.6614 82.2337 44.0613 81.1031C50.4348 78.1726 56.7252 71.8609 58.6504 63.604C59.5702 59.3192 59.9674 54.9387 59.8334 50.5583Z" fill="#FF9EA7"/>
<path d="M48.2219 48.486H48.2212C46.9993 48.486 46.0088 49.4765 46.0088 50.6984V52.0535C46.0088 53.2753 46.9993 54.2659 48.2212 54.2659H48.2219C49.4438 54.2659 50.4344 53.2753 50.4344 52.0535V50.6984C50.4344 49.4765 49.4438 48.486 48.2219 48.486Z" fill="#332C44"/>
<path d="M52.1608 50.1368C51.8984 50.1372 51.6451 50.0405 51.4499 49.8652C50.6933 49.2713 49.7828 48.9059 48.8256 48.8121C47.8684 48.7183 46.9042 48.8999 46.0468 49.3355C45.8005 49.4748 45.509 49.5105 45.2364 49.4348C44.9639 49.3592 44.7325 49.1783 44.5932 48.9321C44.454 48.6858 44.4183 48.3943 44.4939 48.1218C44.5696 47.8492 44.7505 47.6178 44.9967 47.4786C46.2425 46.8217 47.6544 46.5471 49.0556 46.6889C50.4568 46.8308 51.785 47.383 52.8739 48.2762C53.0346 48.4203 53.1478 48.6097 53.1986 48.8194C53.2494 49.0292 53.2353 49.2494 53.1583 49.451C53.0813 49.6526 52.9449 49.8261 52.7672 49.9485C52.5894 50.071 52.3788 50.1366 52.163 50.1368H52.1608Z" fill="#332C44"/>
<path d="M24.5984 54.2666H24.5991C25.821 54.2666 26.8115 53.2761 26.8115 52.0542V50.6991C26.8115 49.4772 25.821 48.4867 24.5991 48.4867H24.5984C23.3765 48.4867 22.3859 49.4772 22.3859 50.6991V52.0542C22.3859 53.2761 23.3765 54.2666 24.5984 54.2666Z" fill="#332C44"/>
<path d="M20.6603 50.1367C20.4445 50.1366 20.2338 50.0709 20.0561 49.9485C19.8784 49.826 19.742 49.6526 19.665 49.451C19.5879 49.2494 19.5739 49.0292 19.6247 48.8194C19.6754 48.6097 19.7887 48.4202 19.9494 48.2762C21.038 47.3826 22.3663 46.8302 23.7676 46.6884C25.169 46.5467 26.581 46.8218 27.8266 47.4792C28.0668 47.6215 28.2417 47.8524 28.3136 48.1222C28.3855 48.392 28.3486 48.6793 28.2111 48.9223C28.0735 49.1652 27.8461 49.3446 27.5777 49.4217C27.3093 49.4988 27.0214 49.4676 26.7758 49.3348C25.9181 48.8997 24.9541 48.7185 23.9969 48.8125C23.0398 48.9064 22.1294 49.2716 21.3727 49.8651C21.1768 50.0404 20.9231 50.1371 20.6603 50.1367Z" fill="#332C44"/>
<path d="M77.5955 59.3014V33.9273C77.5964 32.8721 78.0163 31.8603 78.7628 31.1145C79.5093 30.3686 80.5215 29.9496 81.5767 29.9496C82.6326 29.9496 83.6453 30.3691 84.3919 31.1157C85.1385 31.8624 85.558 32.875 85.558 33.9309V59.2979C85.5558 59.5175 85.6021 59.7349 85.6933 59.9347C85.7846 60.1345 85.9188 60.3117 86.0862 60.4538C87.221 61.3908 88.0353 62.6584 88.4156 64.0801C88.7959 65.5017 88.7232 67.0066 88.2077 68.385C87.6922 69.7634 86.7596 70.9466 85.5398 71.7699C84.32 72.5931 82.8737 73.0154 81.4025 72.9777C79.6274 72.9176 77.9383 72.1986 76.6645 70.9609C75.3906 69.7232 74.6233 68.0555 74.5121 66.2828C74.4528 65.1786 74.6534 64.0759 75.098 63.0633C75.5425 62.0508 76.2185 61.1568 77.0715 60.4531C77.2383 60.3116 77.3718 60.135 77.4624 59.9359C77.5529 59.7368 77.5984 59.5201 77.5955 59.3014Z" fill="#FFE3DE"/>
<path d="M81.5745 68.8557C83.2464 68.8557 84.6017 67.5004 84.6017 65.8286C84.6017 64.1567 83.2464 62.8014 81.5745 62.8014C79.9027 62.8014 78.5474 64.1567 78.5474 65.8286C78.5474 67.5004 79.9027 68.8557 81.5745 68.8557Z" fill="#FF5581"/>
<path d="M18.536 44.1407C20.1172 44.5829 21.7712 44.7026 23.3996 44.4928C25.0279 44.283 26.5975 43.7479 28.015 42.9193C28.2959 42.7393 28.5014 42.4629 28.5931 42.1421C28.6847 41.8213 28.6561 41.478 28.5126 41.1768C28.3677 40.8602 28.1081 40.6103 27.7861 40.4776C27.4642 40.3448 27.1039 40.3391 26.7779 40.4616C25.1975 41.0595 22.346 42.0036 20.1577 41.9759C18.5225 41.956 17.973 42.4665 17.8287 42.9712C17.7735 43.2197 17.8163 43.4799 17.948 43.6977C18.0798 43.9155 18.2904 44.0742 18.536 44.1407Z" fill="#332C44"/>
<path d="M36.4148 61.2451C35.4176 61.2832 34.4455 60.9274 33.7083 60.2548C33.6041 60.1585 33.5202 60.0424 33.4615 59.9133C33.4027 59.7842 33.3703 59.6446 33.3662 59.5028C33.362 59.361 33.3862 59.2198 33.4373 59.0875C33.4884 58.9552 33.5654 58.8344 33.6638 58.7322C33.7622 58.63 33.88 58.5484 34.0102 58.4923C34.1405 58.4362 34.2807 58.4066 34.4225 58.4053C34.5644 58.404 34.7051 58.4311 34.8363 58.4849C34.9676 58.5386 35.0868 58.618 35.187 58.7185C35.5455 58.9746 35.975 59.1123 36.4155 59.1123C36.8561 59.1123 37.2856 58.9746 37.644 58.7185C37.745 58.6214 37.864 58.5451 37.9944 58.494C38.1248 58.4429 38.264 58.418 38.404 58.4207C38.544 58.4234 38.6822 58.4537 38.8105 58.5098C38.9388 58.5659 39.0548 58.6467 39.1519 58.7476C39.249 58.8485 39.3253 58.9676 39.3764 59.098C39.4275 59.2284 39.4524 59.3676 39.4497 59.5076C39.447 59.6476 39.4167 59.7857 39.3606 59.9141C39.3045 60.0424 39.2237 60.1584 39.1228 60.2555C38.3847 60.9274 37.4123 61.2828 36.4148 61.2451Z" fill="#332C44"/>
<path d="M42.7893 68.8842C42.0413 68.8968 41.3056 68.6924 40.6714 68.2955C40.3523 68.0917 39.9815 67.9834 39.6029 67.9834C39.2242 67.9834 38.8534 68.0917 38.5343 68.2955C37.8944 68.6804 37.1618 68.8838 36.415 68.8838C35.6683 68.8838 34.9356 68.6804 34.2957 68.2955C33.9755 68.0914 33.6037 67.983 33.224 67.983C32.8443 67.983 32.4725 68.0914 32.1522 68.2955C31.5173 68.6924 30.7809 68.8969 30.0322 68.8842C29.8922 68.8842 29.7535 68.8566 29.6241 68.803C29.4947 68.7494 29.3772 68.6708 29.2782 68.5718C29.1791 68.4728 29.1006 68.3552 29.047 68.2259C28.9934 68.0965 28.9658 67.9578 28.9658 67.8178C28.9658 67.6777 28.9934 67.5391 29.047 67.4097C29.1006 67.2803 29.1791 67.1627 29.2782 67.0637C29.3772 66.9647 29.4947 66.8861 29.6241 66.8325C29.7535 66.7789 29.8922 66.7514 30.0322 66.7514C30.4137 66.7634 30.7892 66.6539 31.1043 66.4385C31.7446 66.0539 32.4774 65.8506 33.2243 65.8506C33.9713 65.8506 34.7041 66.0539 35.3444 66.4385C35.664 66.6423 36.0352 66.7505 36.4143 66.7505C36.7934 66.7505 37.1646 66.6423 37.4843 66.4385C38.1237 66.0534 38.856 65.8499 39.6025 65.8499C40.349 65.8499 41.0813 66.0534 41.7207 66.4385C42.0342 66.6528 42.4076 66.7621 42.7872 66.7506C43.07 66.7506 43.3412 66.863 43.5412 67.063C43.7412 67.263 43.8536 67.5342 43.8536 67.8171C43.8536 68.0999 43.7412 68.3711 43.5412 68.5711C43.3412 68.7711 43.07 68.8835 42.7872 68.8835L42.7893 68.8842Z" fill="#332C44"/>
<path d="M54.2843 44.1407C52.7032 44.5829 51.0494 44.7027 49.4211 44.4928C47.7928 44.283 46.2234 43.7479 44.8061 42.9193C44.5251 42.7393 44.3196 42.4629 44.228 42.1421C44.1363 41.8213 44.1649 41.4781 44.3084 41.1768C44.4532 40.8601 44.7128 40.6101 45.0348 40.4773C45.3568 40.3446 45.7171 40.339 46.0431 40.4616C47.6228 41.0595 50.4751 42.0036 52.6633 41.9759C54.2985 41.956 54.8473 42.4665 54.9924 42.9712C55.0473 43.2198 55.0044 43.48 54.8725 43.6978C54.7407 43.9155 54.53 44.0742 54.2843 44.1407Z" fill="#332C44"/>
<path d="M45.7737 27.0959H27.0476C25.512 27.0959 24.2671 28.3408 24.2671 29.8764V35.6976C24.2671 37.2332 25.512 38.4781 27.0476 38.4781H45.7737C47.3093 38.4781 48.5541 37.2332 48.5541 35.6976V29.8764C48.5541 28.3408 47.3093 27.0959 45.7737 27.0959Z" fill="#FFE3DE"/>
<path d="M81.5742 65.0565C81.2914 65.0565 81.0202 64.9441 80.8202 64.7441C80.6202 64.5441 80.5078 64.2729 80.5078 63.9901V34.1833C80.5078 33.9005 80.6202 33.6292 80.8202 33.4292C81.0202 33.2292 81.2914 33.1169 81.5742 33.1169C81.857 33.1169 82.1283 33.2292 82.3283 33.4292C82.5283 33.6292 82.6406 33.9005 82.6406 34.1833V63.9901C82.6406 64.2729 82.5283 64.5441 82.3283 64.7441C82.1283 64.9441 81.857 65.0565 81.5742 65.0565Z" fill="#FF5581"/>
<path d="M81.5726 74.0455C81.505 74.0455 81.4382 74.0455 81.3714 74.0455C79.3235 73.9895 77.3715 73.166 75.9023 71.7383C74.4331 70.3106 73.5541 68.383 73.4395 66.3375C73.3681 65.0664 73.598 63.7964 74.1103 62.631C74.6227 61.4655 75.403 60.4375 76.3877 59.6306C76.4339 59.5893 76.4705 59.5385 76.4951 59.4816C76.5196 59.4248 76.5315 59.3633 76.5299 59.3014V33.9273C76.5711 32.6167 77.1206 31.3735 78.0623 30.461C79.004 29.5484 80.2638 29.0381 81.5751 29.0381C82.8863 29.0381 84.1462 29.5484 85.0878 30.461C86.0295 31.3735 86.5791 32.6167 86.6202 33.9273V59.2978C86.6184 59.3606 86.6301 59.423 86.6546 59.4808C86.6792 59.5386 86.716 59.5904 86.7624 59.6327C88.0544 60.7003 88.9853 62.1406 89.4279 63.7571C89.8706 65.3735 89.8034 67.0872 89.2356 68.6641C88.6678 70.2409 87.6271 71.604 86.2555 72.5672C84.884 73.5304 83.2485 74.0467 81.5726 74.0455ZM81.5726 31.016C80.8001 31.016 80.0593 31.3227 79.5127 31.8685C78.9662 32.4144 78.6587 33.1549 78.6577 33.9273V59.3014C78.6605 59.6769 78.5801 60.0484 78.4224 60.3892C78.2647 60.7301 78.0336 61.0318 77.7456 61.2728C77.0182 61.8688 76.4419 62.6281 76.0635 63.4889C75.6851 64.3498 75.5153 65.2878 75.568 66.2266C75.6692 67.7296 76.3227 69.142 77.4028 70.192C78.4828 71.242 79.9131 71.8554 81.4183 71.9141C82.2208 71.9354 83.0195 71.7957 83.7672 71.5032C84.5148 71.2106 85.1962 70.7713 85.7713 70.211C86.3463 69.6508 86.8032 68.981 87.1151 68.2412C87.427 67.5015 87.5875 66.7067 87.5871 65.9039C87.5873 65.0186 87.3916 64.1443 87.014 63.3436C86.6364 62.543 86.0863 61.8358 85.4031 61.2728C85.1143 61.0311 84.8826 60.7285 84.7245 60.3867C84.5665 60.0449 84.486 59.6723 84.4888 59.2957V33.9288C84.4883 33.1561 84.1809 32.4152 83.6343 31.869C83.0878 31.3228 82.3467 31.016 81.574 31.016H81.5726Z" fill="#332C44"/>
<path d="M65.5431 51.8799C65.4847 51.8798 65.4265 51.875 65.3689 51.8657C65.2307 51.843 65.0983 51.7933 64.9792 51.7194C64.8602 51.6455 64.7569 51.5489 64.6752 51.4351C64.5936 51.3213 64.5351 51.1925 64.5033 51.0561C64.4714 50.9196 64.4667 50.7783 64.4895 50.6401C65.0118 45.7761 65.1122 40.876 64.7895 35.9947C64.7753 35.8241 64.7554 35.6549 64.7355 35.4879C64.6295 34.5743 64.4831 33.3238 65.5054 32.3697C65.8794 32.0645 66.1811 31.6802 66.3886 31.2444C66.5961 30.8085 66.7043 30.3321 66.7055 29.8494C66.9735 25.9926 52.9133 10.9982 40.9439 9.28625C28.0333 7.79328 23.8374 13.6159 22.6309 16.1895C22.0151 17.4824 20.9434 18.5022 19.6215 19.0531C12.2768 22.1748 7.19218 30.416 6.34617 35.1644C6.11369 36.4711 6.32697 36.9901 6.39806 37.0562C8.14697 37.7991 8.14555 40.0599 8.14484 42.9221C8.05408 45.3881 8.28132 47.8554 8.82094 50.2633C8.87944 50.5322 8.83174 50.8133 8.6878 51.0478C8.54386 51.2823 8.31483 51.4521 8.04859 51.5217C7.78235 51.5913 7.49952 51.5553 7.25922 51.4212C7.01893 51.2871 6.83978 51.0653 6.75922 50.8022C6.16917 48.2188 5.9187 45.5695 6.01416 42.9214C6.01416 41.3573 6.01416 39.2082 5.55063 39.0113C5.01103 38.7809 4.106 38.1119 4.10742 36.2208C4.11098 31.6708 9.68757 20.9591 18.7883 17.0916C19.6259 16.7452 20.3064 16.102 20.6993 15.2851C22.1027 12.2935 26.9029 5.51402 41.2176 7.17192C54.0806 9.01041 69.1902 24.8572 68.8326 29.9966C68.8122 30.7466 68.6351 31.4841 68.3126 32.1616C67.9901 32.839 67.5293 33.4415 66.96 33.9302C66.7588 34.1179 66.7567 34.4072 66.8548 35.2404C66.8768 35.4331 66.8996 35.6293 66.9152 35.8263C67.2464 40.8794 67.1391 45.9517 66.5946 50.9863C66.5536 51.2357 66.4254 51.4624 66.2328 51.6261C66.0403 51.7898 65.7958 51.8797 65.5431 51.8799Z" fill="#332C44"/>
<path d="M12.7192 65.3508C11.5814 65.3327 10.4628 65.0548 9.44884 64.5382C7.08691 63.3801 5.27152 61.3443 4.39052 58.8656C3.08524 54.6889 4.2398 51.0389 7.33096 49.5666C8.3027 49.0864 9.37474 48.8444 10.4585 48.8604C11.5423 48.8765 12.6067 49.1502 13.5638 49.659C13.7974 49.8137 13.9607 50.0542 14.0184 50.3284C14.0762 50.6026 14.0236 50.8886 13.8722 51.1243C13.7208 51.3601 13.4826 51.5268 13.2092 51.5884C12.9358 51.65 12.6492 51.6015 12.4113 51.4534C11.7605 51.1414 11.0469 50.9827 10.3252 50.9895C9.60346 50.9963 8.89291 51.1683 8.24807 51.4925C6.17071 52.4814 5.45622 55.1254 6.42665 58.23C7.13524 60.1477 8.55371 61.7196 10.3887 62.6208C10.917 62.9193 11.5001 63.1081 12.1032 63.1756C12.7062 63.2432 13.3166 63.1882 13.8979 63.0139C14.1632 62.9149 14.457 62.9252 14.7146 63.0427C14.9723 63.1603 15.1727 63.3753 15.2718 63.6406C15.3709 63.9059 15.3605 64.1997 15.243 64.4574C15.1254 64.715 14.9104 64.9154 14.6451 65.0145C14.0284 65.2411 13.3761 65.355 12.7192 65.3508Z" fill="#332C44"/>
<path d="M13.1566 57.9514C12.9869 57.9515 12.8196 57.9111 12.6686 57.8336C12.5176 57.7561 12.3873 57.6436 12.2885 57.5056C11.9931 57.0685 11.5952 56.7104 11.1294 56.4625C10.6637 56.2147 10.1444 56.0846 9.61682 56.0837C9.33484 56.1059 9.05561 56.0151 8.84055 55.8314C8.62549 55.6477 8.49223 55.386 8.47008 55.1041C8.44792 54.8221 8.53869 54.5428 8.72241 54.3278C8.90614 54.1127 9.16777 53.9795 9.44975 53.9573C10.3435 53.9295 11.23 54.1255 12.0287 54.5277C12.8273 54.9299 13.5127 55.5254 14.0225 56.26C14.1367 56.4194 14.2048 56.6071 14.2193 56.8026C14.2338 56.9981 14.1941 57.1938 14.1046 57.3682C14.0151 57.5426 13.8793 57.689 13.7121 57.7912C13.5448 57.8935 13.3526 57.9477 13.1566 57.9478V57.9514Z" fill="#332C44"/>
<path d="M60.1018 65.3508C59.4456 65.3547 58.794 65.2408 58.178 65.0145C57.913 64.9156 57.6981 64.7155 57.5807 64.4582C57.4632 64.2009 57.4528 63.9074 57.5517 63.6424C57.6506 63.3774 57.8507 63.1625 58.108 63.0451C58.3653 62.9276 58.6588 62.9172 58.9238 63.0161C59.505 63.1903 60.1155 63.2453 60.7185 63.1777C61.3215 63.1101 61.9047 62.9214 62.433 62.6229C64.2674 61.7218 65.6854 60.1501 66.3936 58.2329C67.3648 55.1275 66.6503 52.4835 64.5736 51.4946C63.929 51.1696 63.2184 50.9971 62.4965 50.9903C61.7747 50.9835 61.0609 51.1427 60.4104 51.4555C60.1725 51.6065 59.8846 51.6572 59.6095 51.5965C59.3344 51.5359 59.0945 51.369 58.9421 51.1321C58.7897 50.8951 58.7372 50.6076 58.7961 50.3321C58.855 50.0566 59.0205 49.8157 59.2565 49.6618C60.2135 49.152 61.2782 48.8777 62.3624 48.8616C63.4466 48.8455 64.519 49.0882 65.4907 49.5694C68.5819 51.041 69.7364 54.6882 68.4297 58.8685C67.5482 61.3459 65.7328 63.3805 63.3714 64.5375C62.3579 65.0544 61.2395 65.3326 60.1018 65.3508Z" fill="#332C44"/>
<path d="M59.665 57.9513C59.469 57.9512 59.2768 57.8971 59.1096 57.7949C58.9424 57.6928 58.8065 57.5465 58.717 57.3722C58.6274 57.1979 58.5876 57.0022 58.602 56.8068C58.6163 56.6113 58.6843 56.4236 58.7983 56.2643C59.3079 55.5293 59.9932 54.9335 60.7919 54.5312C61.5906 54.1289 62.4772 53.9328 63.3711 53.9608C63.6531 53.9832 63.9146 54.1166 64.0982 54.3318C64.2818 54.547 64.3724 54.8263 64.3501 55.1083C64.3277 55.3903 64.1943 55.6518 63.9791 55.8354C63.7639 56.019 63.4846 56.1096 63.2026 56.0872C62.6752 56.0879 62.156 56.2179 61.6905 56.4658C61.2249 56.7137 60.8273 57.0719 60.5323 57.5091C60.4332 57.6464 60.3029 57.7581 60.1521 57.835C60.0012 57.9119 59.8343 57.9517 59.665 57.9513Z" fill="#332C44"/>
<path d="M36.3925 83.9276C33.5869 83.904 30.8205 83.2663 28.2878 82.0592C22.3948 79.3506 15.2968 73.1334 13.1313 63.8464C12.2106 59.6201 11.8034 55.2981 11.9184 50.9742V50.5562C12.1772 40.0933 16.4684 27.5332 25.4689 23.0073C25.784 22.8446 26.0785 22.6448 26.3462 22.4123C31.9008 17.7016 42.749 19.1903 48.7407 23.6699C57.3722 30.1224 60.6795 41.7775 60.8978 50.5334V50.9849C61.0142 55.3055 60.6084 59.6245 59.6892 63.8479C57.523 73.1348 50.4257 79.352 44.5064 82.0735C41.9656 83.2651 39.1986 83.8974 36.3925 83.9276ZM26.4287 24.9119C18.26 29.0176 14.2894 41.0986 14.0534 50.5846V50.9827C13.941 55.1407 14.3296 59.2972 15.2108 63.3623C17.2014 71.8985 23.7463 77.6237 29.2077 80.134C31.4561 81.1979 33.9074 81.7643 36.3946 81.7948C38.8837 81.7677 41.3379 81.2057 43.5907 80.1468C49.0784 77.6237 55.6226 71.8999 57.614 63.3623C58.4944 59.3002 58.8828 55.1469 58.7706 50.992V50.5612C58.5751 42.7067 55.5003 31.3779 47.4667 25.3762C42.2293 21.4596 32.4645 20.02 27.7261 24.0375C27.3293 24.3797 26.893 24.6733 26.4265 24.9119H26.4287Z" fill="#332C44"/>
<path d="M45.7734 39.5445H27.0473C26.0273 39.5433 25.0494 39.1377 24.3281 38.4165C23.6068 37.6954 23.201 36.7176 23.1997 35.6976V29.8764C23.201 28.8564 23.6068 27.8786 24.3281 27.1575C25.0494 26.4363 26.0273 26.0307 27.0473 26.0295H45.7734C46.7938 26.0299 47.7723 26.4352 48.4941 27.1565C49.2159 27.8778 49.622 28.856 49.6231 29.8764V35.6976C49.622 36.718 49.2159 37.6962 48.4941 38.4175C47.7723 39.1388 46.7938 39.5441 45.7734 39.5445ZM27.0473 28.1624C26.5928 28.1629 26.1571 28.3437 25.8356 28.665C25.5142 28.9863 25.3333 29.4219 25.3325 29.8764V35.6976C25.3331 36.1521 25.514 36.5879 25.8354 36.9092C26.1569 37.2306 26.5928 37.4113 27.0473 37.4117H45.7734C45.9987 37.4118 46.2218 37.3676 46.43 37.2816C46.6382 37.1956 46.8274 37.0694 46.9868 36.9102C47.1463 36.751 47.2728 36.562 47.3592 36.354C47.4456 36.1459 47.4901 35.9229 47.4903 35.6976V29.8764C47.4897 29.422 47.309 28.9863 46.9876 28.665C46.6663 28.3437 46.2307 28.1629 45.7762 28.1624H27.0473Z" fill="#332C44"/>
<path d="M56.5839 77.8597H56.5547C56.2721 77.8521 56.0041 77.7325 55.8096 77.5274C55.6151 77.3222 55.51 77.0482 55.5175 76.7656C55.5642 76.1483 55.759 75.5513 56.0851 75.0252C56.4113 74.499 56.8594 74.0591 57.3915 73.7427L57.5913 73.6239C58.3363 73.186 59.3572 72.5881 59.4838 70.06C59.4979 69.7772 59.6238 69.5116 59.8338 69.3216C59.9378 69.2275 60.0593 69.1548 60.1914 69.1077C60.3234 69.0606 60.4635 69.0399 60.6035 69.0469C60.7435 69.0539 60.8808 69.0884 61.0075 69.1485C61.1342 69.2086 61.2479 69.293 61.3419 69.397C61.436 69.5009 61.5087 69.6224 61.5558 69.7545C61.6029 69.8866 61.6236 70.0266 61.6166 70.1666C61.4332 73.8443 59.5698 74.9378 58.674 75.4631L58.5048 75.5641C58.2763 75.6952 58.0807 75.8766 57.9329 76.0947C57.785 76.3127 57.6889 76.5616 57.6517 76.8224C57.6441 77.1004 57.5282 77.3645 57.3287 77.5582C57.1292 77.752 56.862 77.8602 56.5839 77.8597Z" fill="#332C44"/>
<path d="M53.1566 81.89C52.927 81.8903 52.7034 81.8165 52.5191 81.6794C52.3348 81.5424 52.1996 81.3496 52.1337 81.1296C52.0678 80.9096 52.0747 80.6743 52.1533 80.4585C52.2319 80.2427 52.3781 80.0581 52.5701 79.9321C52.8631 79.7389 53.1405 79.5231 53.3998 79.2866C53.4999 79.1885 53.6183 79.1112 53.7482 79.0589C53.8782 79.0066 54.0172 78.9805 54.1573 78.9819C54.2974 78.9834 54.4358 79.0124 54.5647 79.0674C54.6936 79.1223 54.8103 79.2021 54.9084 79.3022C55.0064 79.4023 55.0838 79.5207 55.136 79.6507C55.1883 79.7806 55.2145 79.9197 55.213 80.0597C55.2116 80.1998 55.1825 80.3383 55.1276 80.4671C55.0726 80.596 54.9928 80.7128 54.8927 80.8108C54.535 81.144 54.15 81.4468 53.7417 81.7158C53.5678 81.8297 53.3645 81.8902 53.1566 81.89Z" fill="#332C44"/>
<path d="M18.5305 80.0146C18.3619 80.0147 18.1957 79.9755 18.0449 79.9001C17.1407 79.3399 16.4329 78.5127 16.0195 77.5327C15.9064 77.3073 15.7401 77.2049 15.2972 76.9689C14.4154 76.5745 13.7033 75.8785 13.2888 75.006C13.2208 74.8787 13.1794 74.7389 13.167 74.5951C13.1546 74.4512 13.1716 74.3064 13.2169 74.1694C13.2621 74.0323 13.3348 73.9058 13.4303 73.7977C13.5259 73.6895 13.6425 73.6019 13.7729 73.5401C13.9033 73.4783 14.045 73.4436 14.1892 73.4381C14.3335 73.4327 14.4773 73.4566 14.612 73.5084C14.7468 73.5601 14.8696 73.6387 14.9731 73.7394C15.0765 73.84 15.1585 73.9606 15.214 74.0939C15.4359 74.5507 15.8229 74.9064 16.2967 75.0892C16.9905 75.3887 17.5633 75.9131 17.9226 76.5779C18.1615 77.1429 18.542 77.6368 19.0274 78.0119C19.1517 78.0743 19.2623 78.1608 19.3529 78.2662C19.4435 78.3717 19.5123 78.4941 19.5552 78.6263C19.5982 78.7586 19.6145 78.898 19.6033 79.0366C19.592 79.1752 19.5533 79.3102 19.4895 79.4337C19.399 79.6097 19.2614 79.7572 19.0921 79.8597C18.9228 79.9623 18.7284 80.0159 18.5305 80.0146Z" fill="#332C44"/>
<path d="M12.6862 72.2966C12.5179 72.2967 12.3519 72.2569 12.2019 72.1806C12.0519 72.1042 11.9221 71.9934 11.8232 71.8573C11.4147 71.3884 11.1483 70.8128 11.0553 70.1979C11.0529 70.0579 11.0781 69.9187 11.1294 69.7884C11.1807 69.6581 11.2573 69.5392 11.3546 69.4384C11.4519 69.3377 11.5681 69.2571 11.6965 69.2012C11.825 69.1454 11.9632 69.1154 12.1033 69.113H12.1225C12.3721 69.1132 12.6138 69.2009 12.8055 69.361C12.9971 69.521 13.1265 69.7433 13.1711 69.9889C13.2739 70.207 13.4005 70.413 13.5486 70.6032C13.6642 70.7622 13.7336 70.9502 13.7491 71.1463C13.7646 71.3423 13.7256 71.5389 13.6363 71.7141C13.5471 71.8894 13.4111 72.0366 13.2434 72.1394C13.0757 72.2422 12.8829 72.2966 12.6862 72.2966Z" fill="#332C44"/>
<path d="M67.8687 66.1925C67.6048 66.1919 67.3506 66.0936 67.1551 65.9164C66.9595 65.7392 66.8366 65.4959 66.8101 65.2333C66.7836 64.9708 66.8553 64.7078 67.0114 64.4951C67.1676 64.2824 67.397 64.1351 67.6554 64.0818C67.9789 63.9788 68.262 63.7772 68.4652 63.5052C68.5453 63.3865 68.6484 63.2851 68.7685 63.2071C68.8886 63.1291 69.0232 63.0761 69.1643 63.0512C69.3053 63.0264 69.4499 63.0302 69.5894 63.0624C69.729 63.0947 69.8606 63.1547 69.9764 63.2389C70.0922 63.3231 70.1899 63.4298 70.2636 63.5526C70.3373 63.6754 70.3856 63.8117 70.4054 63.9536C70.4253 64.0954 70.4164 64.2398 70.3792 64.3781C70.3421 64.5164 70.2775 64.6458 70.1892 64.7586C69.6766 65.461 68.9332 65.9606 68.0891 66.1698C68.0167 66.1852 67.9428 66.1929 67.8687 66.1925Z" fill="#332C44"/>
<path d="M71.3957 61.496C71.2249 61.4964 71.0566 61.4557 70.9048 61.3774C70.753 61.2991 70.6223 61.1855 70.5235 61.0461C70.4248 60.9068 70.361 60.7458 70.3375 60.5766C70.3139 60.4075 70.3314 60.2352 70.3883 60.0742C70.3925 60.0628 70.7736 58.9616 71.1483 57.5447C71.427 56.4896 71.3004 54.2239 70.5525 53.2563C70.4646 53.1457 70.3995 53.0188 70.3611 52.8829C70.3226 52.7469 70.3116 52.6047 70.3285 52.4645C70.3455 52.3243 70.3901 52.1888 70.4599 52.066C70.5297 51.9431 70.6231 51.8354 70.7349 51.749C70.8466 51.6626 70.9744 51.5992 71.1108 51.5626C71.2473 51.526 71.3896 51.5169 71.5296 51.5357C71.6696 51.5546 71.8044 51.6011 71.9263 51.6725C72.0482 51.7439 72.1547 51.8388 72.2396 51.9517C73.5008 53.5869 73.6138 56.565 73.21 58.0899C72.814 59.59 72.4201 60.7261 72.4031 60.7744C72.3312 60.9847 72.1955 61.1672 72.0149 61.2966C71.8343 61.426 71.6178 61.4957 71.3957 61.496Z" fill="#332C44"/>
<path d="M70.3022 46.3297C70.1411 46.33 69.9821 46.2937 69.8371 46.2235C69.6921 46.1532 69.565 46.051 69.4654 45.9244C69.205 45.5384 69.0247 45.104 68.9353 44.6471C68.8459 44.1901 68.8492 43.7198 68.945 43.2641C68.9721 43.1254 69.0264 42.9935 69.1049 42.8761C69.1834 42.7586 69.2844 42.6579 69.4021 42.5798C69.5198 42.5017 69.6519 42.4478 69.7906 42.4212C69.9294 42.3945 70.072 42.3957 70.2103 42.4247C70.3485 42.4537 70.4797 42.5098 70.5961 42.5899C70.7124 42.6699 70.8118 42.7723 70.8882 42.8911C70.9647 43.0099 71.0168 43.1427 71.0416 43.2818C71.0663 43.4208 71.0632 43.5635 71.0323 43.7013C70.9661 44.005 71.0034 44.3221 71.1382 44.6021C71.2624 44.7592 71.3398 44.9481 71.3616 45.1472C71.3834 45.3463 71.3487 45.5475 71.2614 45.7278C71.1742 45.9081 71.0379 46.0601 70.8683 46.1666C70.6986 46.273 70.5025 46.3295 70.3022 46.3297Z" fill="#332C44"/>
<path d="M70.596 41.405C70.3894 41.4053 70.1872 41.3456 70.0139 41.2331C69.8406 41.1207 69.7037 40.9603 69.6198 40.7715C69.3355 40.1274 69.6006 39.4769 70.0414 38.3984C70.8057 36.5308 71.961 33.7063 70.4012 31.1412C70.3284 31.0215 70.28 30.8886 70.2586 30.7501C70.2373 30.6117 70.2434 30.4703 70.2766 30.3343C70.3437 30.0594 70.5173 29.8225 70.7591 29.6756C71.0009 29.5287 71.2912 29.4839 71.5661 29.551C71.8409 29.6182 72.0778 29.7917 72.2247 30.0335C74.3419 33.5207 72.8283 37.2197 72.0157 39.2046C71.8735 39.5516 71.7015 39.9725 71.6489 40.1715C71.673 40.3238 71.6639 40.4794 71.6221 40.6278C71.5803 40.7762 71.5068 40.9137 71.4067 41.0309C71.3066 41.1482 71.1823 41.2423 71.0424 41.3069C70.9024 41.3715 70.7501 41.4049 70.596 41.405Z" fill="#332C44"/>
<path d="M2.49917 52.6982H2.4622C2.3222 52.6934 2.1845 52.6611 2.05699 52.6031C1.92947 52.5451 1.81463 52.4625 1.71903 52.3601C1.62343 52.2577 1.54895 52.1375 1.49983 52.0063C1.45071 51.8751 1.42792 51.7355 1.43277 51.5955C1.46453 50.7259 1.80157 49.8953 2.38471 49.2494C2.58408 49.0555 2.85135 48.9471 3.12951 48.9474C3.40767 48.9477 3.67469 49.0567 3.87364 49.2511C4.07259 49.4455 4.1877 49.7099 4.19443 49.988C4.20116 50.2661 4.09898 50.5358 3.90967 50.7396C3.69946 51.0056 3.57767 51.3308 3.56131 51.6695C3.55157 51.945 3.43552 52.206 3.23749 52.3978C3.03946 52.5896 2.77485 52.6973 2.49917 52.6982Z" fill="#332C44"/>
<path d="M4.93346 65.3529C4.67095 65.3525 4.41782 65.2553 4.22252 65.0799C2.75121 63.8529 1.63641 62.2533 0.994604 60.4482C0.352797 58.6431 0.207533 56.6987 0.573988 54.8183C0.600409 54.6806 0.653677 54.5496 0.73075 54.4326C0.807823 54.3155 0.907192 54.2148 1.02318 54.1362C1.13917 54.0576 1.26952 54.0026 1.40677 53.9743C1.54402 53.9461 1.68549 53.9451 1.8231 53.9715C1.96072 53.998 2.09178 54.0512 2.20881 54.1283C2.32584 54.2054 2.42654 54.3047 2.50517 54.4207C2.58379 54.5367 2.6388 54.6671 2.66706 54.8043C2.69531 54.9416 2.69625 55.083 2.66983 55.2206C2.2518 57.3975 2.42953 60.6003 5.64724 63.4938C5.80742 63.638 5.92018 63.8273 5.97065 64.0368C6.02111 64.2463 6.00693 64.4661 5.92996 64.6674C5.85299 64.8687 5.71684 65.0419 5.53946 65.1643C5.36208 65.2867 5.15179 65.3524 4.9363 65.3529H4.93346Z" fill="#332C44"/>
<path d="M4.68354 29.002C4.45987 29.002 4.24184 28.9318 4.06028 28.8011C3.87873 28.6705 3.74286 28.4861 3.67188 28.274C3.58443 28.0116 3.39675 27.0654 4.6615 25.9279C4.7656 25.8341 4.88714 25.7618 5.01919 25.7151C5.15123 25.6683 5.2912 25.648 5.43109 25.6553C5.57097 25.6627 5.70805 25.6975 5.83449 25.7578C5.96092 25.8181 6.07424 25.9027 6.16798 26.0068C6.26171 26.1109 6.33403 26.2324 6.38079 26.3645C6.42756 26.4965 6.44785 26.6365 6.44052 26.7764C6.4332 26.9163 6.39839 27.0533 6.33808 27.1798C6.27778 27.3062 6.19316 27.4195 6.08907 27.5133C5.95672 27.6238 5.84211 27.754 5.74924 27.8993C5.7543 28.0425 5.73046 28.1852 5.67914 28.319C5.62782 28.4527 5.55007 28.5748 5.45054 28.6778C5.351 28.7809 5.23172 28.8628 5.09982 28.9188C4.96792 28.9747 4.8261 29.0035 4.68283 29.0034L4.68354 29.002Z" fill="#332C44"/>
<path d="M2.0373 40.7637H1.99038C1.71191 40.7513 1.44936 40.6304 1.25894 40.4268C1.06853 40.2232 0.965386 39.9532 0.971608 39.6745C0.960944 39.5551 0.874209 39.206 0.805248 38.9238C0.355225 37.1052 -0.588189 33.323 2.02166 30.3463C2.20823 30.1336 2.47166 30.0038 2.75397 29.9853C3.03629 29.9668 3.31439 30.0613 3.52707 30.2479C3.73976 30.4344 3.86962 30.6979 3.88809 30.9802C3.90655 31.2625 3.81211 31.5406 3.62554 31.7533C1.7508 33.8903 2.4532 36.7192 2.87337 38.4091C3.00948 38.8422 3.08625 39.2918 3.10158 39.7456C3.08914 40.0196 2.97161 40.2783 2.77341 40.4679C2.57521 40.6575 2.31158 40.7634 2.0373 40.7637Z" fill="#332C44"/>
<path d="M10.4975 18.7581C10.3016 18.7579 10.1096 18.7037 9.94247 18.6016C9.77534 18.4995 9.63957 18.3533 9.55005 18.1791C9.46053 18.0049 9.4207 17.8094 9.43496 17.6141C9.44921 17.4187 9.51698 17.2311 9.63084 17.0717C10.5635 15.8473 11.7578 14.8466 13.1265 14.1427C13.7386 13.7872 14.3721 13.4175 14.4154 13.1594C14.4669 12.8854 14.6237 12.6424 14.8522 12.4826C15.0807 12.3228 15.3626 12.2588 15.6377 12.3043C15.9128 12.3499 16.1591 12.5013 16.3239 12.7263C16.4886 12.9513 16.5587 13.2318 16.5191 13.5078C16.3115 14.7541 15.2394 15.379 14.1986 15.9833C13.093 16.5379 12.1252 17.3327 11.3662 18.3095C11.2677 18.4481 11.1374 18.5612 10.9863 18.6392C10.8352 18.7172 10.6676 18.758 10.4975 18.7581Z" fill="#332C44"/>
<path d="M17.351 12.1961C17.1616 12.196 16.9757 12.1453 16.8123 12.0494C16.6489 11.9536 16.514 11.8159 16.4215 11.6506C16.329 11.4853 16.2822 11.2984 16.2858 11.109C16.2895 10.9196 16.3436 10.7346 16.4425 10.5731C16.8225 9.96852 17.3853 9.50085 18.0492 9.23792C18.3132 9.15123 18.6006 9.171 18.8502 9.29302C19.0998 9.41505 19.292 9.62968 19.3857 9.89123C19.4795 10.1528 19.4675 10.4406 19.3522 10.6934C19.237 10.9463 19.0276 11.1441 18.7687 11.2449C18.561 11.3425 18.3844 11.4955 18.2582 11.6871C18.163 11.8423 18.0297 11.9706 17.8709 12.0597C17.7121 12.1488 17.5331 12.1958 17.351 12.1961Z" fill="#332C44"/>
<path d="M29.2095 6.21855C28.9525 6.2188 28.7041 6.12622 28.5099 5.95785C28.3157 5.78948 28.1889 5.55665 28.1527 5.3022C28.1165 5.04775 28.1735 4.7888 28.3131 4.57299C28.4526 4.35719 28.6655 4.19905 28.9124 4.12768C29.7084 3.88802 30.4915 3.6073 31.2584 3.28664C33.3977 2.42641 35.0868 1.74746 38.7446 3.20346C38.8758 3.25453 38.9955 3.33105 39.0969 3.42861C39.1984 3.52617 39.2795 3.64284 39.3356 3.77189C39.3917 3.90095 39.4217 4.03984 39.4239 4.18055C39.4261 4.32127 39.4005 4.46102 39.3484 4.59177C39.2963 4.72251 39.2189 4.84165 39.1205 4.94233C39.0222 5.043 38.9049 5.12322 38.7754 5.17835C38.6459 5.23348 38.5068 5.26244 38.3661 5.26356C38.2254 5.26467 38.0858 5.23792 37.9555 5.18485C35.0897 4.04379 34.0119 4.47817 32.0547 5.26518C31.223 5.61234 30.374 5.91631 29.511 6.17589C29.413 6.20414 29.3115 6.2185 29.2095 6.21855Z" fill="#332C44"/>
<path d="M42.7541 5.95265C42.1306 5.96221 41.5124 5.83758 40.9412 5.58723C40.8107 5.53075 40.6928 5.44875 40.5945 5.34604C40.4961 5.24332 40.4193 5.12198 40.3686 4.98914C40.3178 4.8563 40.2941 4.71465 40.2989 4.57253C40.3037 4.43041 40.3369 4.29068 40.3965 4.16157C40.4561 4.03246 40.5409 3.91657 40.646 3.82072C40.7511 3.72488 40.8742 3.65101 41.0082 3.60347C41.1423 3.55593 41.2844 3.53568 41.4264 3.5439C41.5684 3.55212 41.7073 3.58865 41.8349 3.65135C42.3299 3.8295 42.8645 3.86763 43.3798 3.76154C43.6544 3.70295 43.9411 3.75509 44.1776 3.90663C44.4141 4.05818 44.5812 4.29689 44.6427 4.57093C44.7042 4.84497 44.6552 5.13222 44.5061 5.37029C44.3571 5.60835 44.1202 5.77803 43.8468 5.84246C43.4874 5.91709 43.1212 5.95402 42.7541 5.95265Z" fill="#332C44"/>
<path d="M37.8439 88.5899C36.5451 88.5503 35.266 88.2619 34.0759 87.7404C33.9448 87.6893 33.8251 87.6128 33.7236 87.5152C33.6222 87.4177 33.5411 87.301 33.485 87.1719C33.4288 87.0429 33.3988 86.904 33.3966 86.7633C33.3944 86.6226 33.4201 86.4828 33.4722 86.3521C33.5242 86.2213 33.6017 86.1022 33.7 86.0015C33.7983 85.9008 33.9156 85.8206 34.0451 85.7655C34.1746 85.7103 34.3137 85.6814 34.4544 85.6803C34.5952 85.6791 34.7347 85.7059 34.8651 85.759C37.7294 86.8965 38.8086 86.4649 40.7659 85.6786C41.5976 85.3311 42.4469 85.0271 43.3103 84.7679C43.4448 84.7289 43.5857 84.7167 43.7249 84.732C43.8641 84.7474 43.9989 84.79 44.1216 84.8575C44.2443 84.925 44.3526 85.0159 44.4401 85.1252C44.5277 85.2345 44.5929 85.36 44.6319 85.4945C44.671 85.629 44.6832 85.7699 44.6678 85.9091C44.6525 86.0483 44.6098 86.1831 44.5424 86.3058C44.4749 86.4285 44.3839 86.5368 44.2746 86.6243C44.1653 86.7119 44.0398 86.7771 43.9054 86.8161C43.1093 87.0558 42.3262 87.3365 41.5593 87.6572C40.3971 88.2175 39.1329 88.5349 37.8439 88.5899Z" fill="#332C44"/>
<path d="M31.4326 87.3913C31.2786 87.3914 31.1265 87.3579 30.9868 87.2932C30.4914 87.1146 29.9563 87.0765 29.4406 87.183C29.1665 87.2398 28.8811 87.1866 28.646 87.0349C28.4108 86.8831 28.2447 86.6451 28.1835 86.372C28.1223 86.0989 28.1709 85.8127 28.3188 85.5751C28.4667 85.3376 28.7021 85.1677 28.9742 85.1021C29.9461 84.8942 30.9581 84.9829 31.8791 85.3566C32.0998 85.4584 32.2791 85.6326 32.3872 85.8503C32.4954 86.0679 32.526 86.316 32.4739 86.5534C32.4218 86.7909 32.2902 87.0033 32.1008 87.1557C31.9114 87.3081 31.6757 87.3912 31.4326 87.3913Z" fill="#332C44"/>
<path d="M62.674 15.6577C62.5097 15.6577 62.3477 15.6197 62.2005 15.5468C61.1313 14.957 60.1771 14.1794 59.3838 13.2511C58.2121 12.0248 57.1088 10.8667 54.8167 10.4145C54.5397 10.3592 54.2959 10.1963 54.1389 9.9614C53.9818 9.72654 53.9244 9.43898 53.9792 9.16183C54.0341 8.88469 54.1966 8.64062 54.4312 8.48321C54.6658 8.32579 54.9532 8.26789 55.2305 8.32221C58.1809 8.90518 59.6383 10.4309 60.9258 11.7774C61.5517 12.5228 62.3043 13.1519 63.1489 13.6358C63.3645 13.7426 63.5377 13.9193 63.6402 14.137C63.7427 14.3548 63.7685 14.6008 63.7135 14.8351C63.6585 15.0694 63.5258 15.2782 63.3371 15.4275C63.1483 15.5769 62.9146 15.658 62.674 15.6577Z" fill="#332C44"/>
<path d="M65.6249 18.982C65.5481 18.9818 65.4716 18.9732 65.3967 18.9564C64.7768 18.7814 64.2495 18.3719 63.9264 17.8146C63.8464 17.6968 63.7908 17.5641 63.7629 17.4244C63.7349 17.2848 63.7353 17.1409 63.7639 17.0014C63.7925 16.8618 63.8488 16.7294 63.9294 16.612C64.01 16.4945 64.1133 16.3944 64.2332 16.3176C64.3532 16.2407 64.4873 16.1887 64.6277 16.1645C64.7681 16.1403 64.9118 16.1445 65.0506 16.1769C65.1893 16.2092 65.3202 16.269 65.4354 16.3527C65.5506 16.4364 65.6479 16.5424 65.7216 16.6643C65.7743 16.7563 65.8472 16.835 65.9348 16.8947C66.1799 16.9687 66.3902 17.1283 66.5273 17.3445C66.6644 17.5607 66.7191 17.819 66.6815 18.0722C66.6439 18.3255 66.5165 18.5567 66.3225 18.7237C66.1285 18.8908 65.8809 18.9824 65.6249 18.982Z" fill="#332C44"/>
</svg>
