<svg width="82" height="78" viewBox="0 0 97 92" fill="none" xmlns="http://www.w3.org/2000/svg">
<path d="M94.8234 40.1834C94.8234 39.6047 92.3642 37.1938 87.9601 34.3327V34.3167C79.7616 29.0594 70.6169 25.4506 61.0376 23.6923L61.0215 23.6762C52.553 22.1118 43.8695 22.1118 35.4009 23.6762L35.3849 23.6923C25.8056 25.4506 16.6609 29.0594 8.46235 34.3167V34.3327C4.05831 37.1938 1.59912 39.6047 1.59912 40.1834C1.60209 39.4781 1.83959 38.7939 2.27419 38.2385C7.46582 31.5039 26.0624 9.64438 48.2112 9.64438C70.36 9.64438 88.9567 31.5039 94.1483 38.2385C94.5829 38.7939 94.8204 39.4781 94.8234 40.1834Z" fill="#FFE0B2"/>
<path d="M94.1483 38.2385C88.9567 31.5039 70.3601 9.64438 48.2113 9.64438C47.4076 9.64438 46.604 9.68135 45.8003 9.7376C62.0567 10.8884 76.1512 23.3532 84.0447 31.9764C85.4656 32.7704 86.7997 33.5612 87.9602 34.3167V34.3327C92.3642 37.1938 94.8234 39.6047 94.8234 40.1834C94.8204 39.4781 94.5829 38.7939 94.1483 38.2385Z" fill="#DFC49C"/>
<path d="M88.3941 40.1834C88.2623 43.7975 87.6405 47.377 86.5456 50.8238C77.9465 59.648 63.9789 70.7224 48.2112 70.7224C32.4434 70.7224 18.4759 59.648 9.87673 50.8238C8.78185 47.377 8.16004 43.7975 8.02832 40.1834C8.05427 38.2262 8.1992 36.2724 8.4623 34.3328V34.3167C16.6608 29.0594 25.8055 25.4507 35.3848 23.6924C28.3377 29.1721 25.5501 38.5236 28.4467 46.9675C31.3433 55.4114 39.2843 61.0826 48.2112 61.0826C57.1381 61.0826 65.0791 55.4114 67.9757 46.9675C70.8723 38.5236 68.0847 29.1721 61.0376 23.6924C70.6169 25.4507 79.7616 29.0594 87.9601 34.3167V34.3328C88.2232 36.2724 88.3681 38.2262 88.3941 40.1834Z" fill="#F5F5F5"/>
<path d="M87.9602 34.3328V34.3167C79.7616 29.0594 70.6169 25.4507 61.0376 23.6924C61.655 24.176 62.2452 24.6933 62.8057 25.2418C69.9974 27.2371 76.8506 30.2958 83.1382 34.3167V34.3328C83.4013 36.2724 83.5462 38.2262 83.5722 40.1834C83.4405 43.7975 82.8186 47.377 81.7238 50.8238C73.5666 59.1947 60.5747 69.5732 45.8003 70.6179C46.604 70.6758 47.4076 70.7224 48.2113 70.7224C63.979 70.7224 77.9466 59.648 86.5457 50.8238C87.6406 47.377 88.2624 43.7975 88.3941 40.1834C88.3682 38.2262 88.2232 36.2724 87.9602 34.3328Z" fill="#CFD8DC"/>
<path d="M9.87679 50.8238C7.18154 48.0701 4.64333 45.167 2.27419 42.1282C1.83959 41.5728 1.60209 40.8886 1.59912 40.1834C1.59912 39.6048 4.05831 37.1938 8.46235 34.3328C8.19926 36.2724 8.05433 38.2262 8.02838 40.1834C8.16009 43.7975 8.78191 47.377 9.87679 50.8238Z" fill="#EF314C"/>
<path d="M94.8241 40.1834C94.8211 40.8886 94.5836 41.5728 94.149 42.1282C91.7799 45.167 89.2416 48.0701 86.5464 50.8238C87.6413 47.377 88.2631 43.7975 88.3948 40.1834C88.3688 38.2262 88.2239 36.2724 87.9608 34.3328C92.3649 37.1938 94.8241 39.6048 94.8241 40.1834Z" fill="#EF314C"/>
<path d="M69.1061 40.1834C69.108 49.9646 62.3244 58.4382 52.7799 60.5769C43.2354 62.7156 33.4844 57.9471 29.3122 49.1003C25.14 40.2536 27.6631 29.6965 35.3847 23.6923L35.4007 23.6763C43.8693 22.1118 52.5528 22.1118 61.0213 23.6763L61.0374 23.6923C66.1318 27.6463 69.1107 33.7346 69.1061 40.1834Z" fill="#02A9F4"/>
<path d="M61.0376 23.6923L61.0216 23.6763C56.7959 22.8972 52.5081 22.5045 48.2113 22.5029C47.398 22.5029 46.604 22.5335 45.8003 22.5608C49.2894 22.6769 52.7653 23.0497 56.1996 23.6763L56.2157 23.6923C62.9134 28.8984 65.7967 37.6385 63.5117 45.808C61.2266 53.9776 54.2271 59.9533 45.8003 60.929C55.1086 62.0136 63.9998 56.7659 67.5489 48.0927C71.098 39.4195 68.4361 29.4442 61.0376 23.6923Z" fill="#0377BC"/>
<path d="M48.2109 48.22C52.6494 48.22 56.2475 44.6219 56.2475 40.1834C56.2475 35.7449 52.6494 32.1468 48.2109 32.1468C43.7724 32.1468 40.1743 35.7449 40.1743 40.1834C40.1743 44.6219 43.7724 48.22 48.2109 48.22Z" fill="#3F51B5"/>
<path d="M48.2111 0.000521887C31.5257 -0.0673077 15.4933 6.47917 3.62421 18.2066C3.04234 18.8649 3.09689 19.8684 3.74668 20.4598C4.39647 21.0511 5.4007 21.0112 6.00142 20.37C29.4931 -2.50331 66.9291 -2.50331 90.4208 20.37C91.0215 21.0112 92.0257 21.0511 92.6755 20.4598C93.3253 19.8684 93.3799 18.8649 92.798 18.2066C80.9289 6.47917 64.8965 -0.0673077 48.2111 0.000521887Z" fill="black"/>
<path d="M38.5674 40.1834C38.5674 45.5095 42.8851 49.8273 48.2113 49.8273C53.5374 49.8273 57.8552 45.5095 57.8552 40.1834C57.8552 34.8572 53.5374 30.5395 48.2113 30.5395C42.8873 30.5448 38.5727 34.8594 38.5674 40.1834ZM54.6405 40.1834C54.6405 43.7342 51.7621 46.6126 48.2113 46.6126C44.6605 46.6126 41.782 43.7342 41.782 40.1834C41.782 36.6326 44.6605 33.7541 48.2113 33.7541C51.7621 33.7541 54.6405 36.6326 54.6405 40.1834Z" fill="black"/>
<path d="M96.4308 40.1368C96.4232 39.0895 96.0732 38.0734 95.4343 37.2436C90.1301 30.3981 71.0738 8.03711 48.2114 8.03711C25.349 8.03711 6.29264 30.3981 0.998142 37.2517C0.357986 38.0809 0.00736571 39.0972 0 40.1448V40.1914C0 40.2059 0.00803657 40.2172 0.00803657 40.2316C0.0147044 41.2791 0.364779 42.2954 1.00457 43.1248C4.55513 47.7185 14.2955 59.2751 27.215 66.4003C25.2991 65.8329 23.4009 65.1804 21.493 64.4169C20.9595 64.2033 20.3526 64.2905 19.9009 64.6457C19.4492 65.0008 19.2212 65.5701 19.303 66.1389C19.3847 66.7077 19.7637 67.1897 20.2972 67.4033C29.1767 70.9032 38.6702 72.5787 48.2114 72.3297C57.7559 72.5767 67.2523 70.898 76.1337 67.3936C76.9583 67.0634 77.3592 66.1272 77.0289 65.3025C76.6987 64.4778 75.7625 64.077 74.9378 64.4072C73.0299 65.1707 71.1317 65.8233 69.2158 66.3907C82.1354 59.2654 91.8789 47.7088 95.4246 43.1151C96.0657 42.2863 96.4164 41.2697 96.4228 40.222C96.4228 40.2075 96.4308 40.1963 96.4308 40.1818C96.4308 40.1673 96.4308 40.1513 96.4308 40.1368ZM48.2114 11.2517C63.677 11.2517 77.4645 22.4338 85.8467 31.1101C78.2837 26.7571 70.0359 23.7211 61.4557 22.1316C61.4348 22.1316 61.4139 22.1316 61.3946 22.1204C52.6838 20.488 43.7455 20.488 35.0346 22.1204C35.0137 22.1204 34.9928 22.1204 34.9719 22.1316C26.3899 23.7202 18.1405 26.7563 10.5761 31.1101C18.9583 22.4338 32.7458 11.2517 48.2114 11.2517ZM67.4992 40.1834C67.5099 49.1701 61.3128 56.9734 52.5572 58.9982C43.8016 61.0231 34.8078 56.7328 30.8719 48.6539C26.936 40.5749 29.1011 30.8483 36.0922 25.2016C44.1061 23.7463 52.3166 23.7463 60.3305 25.2016C64.8714 28.8476 67.509 34.3599 67.4992 40.1834ZM3.25642 40.4824C4.22987 39.394 5.32706 38.4231 6.5257 37.5892C6.4614 38.5327 6.42122 39.4424 6.42122 40.1834C6.44281 41.8788 6.60409 43.5695 6.90342 45.2384C5.48255 43.6006 4.34778 42.1845 3.54574 41.1494C3.39807 40.953 3.29894 40.7244 3.25642 40.4824ZM48.2114 69.1151C33.1878 69.1151 19.7475 58.5663 11.3123 50.0089C10.3237 46.8217 9.76005 43.5181 9.63585 40.1834C9.6584 38.5339 9.76838 36.8868 9.96535 35.2489C16.3002 31.3122 23.1897 28.348 30.404 26.4553C23.2594 35.7035 24.3834 48.8815 32.9909 56.7862C41.5984 64.6908 54.8243 64.6908 63.4319 56.7862C72.0394 48.8815 73.1634 35.7035 66.0188 26.4553C73.2359 28.3473 80.1282 31.3115 86.4655 35.2489C86.6598 36.8869 86.7671 38.5341 86.7869 40.1834C86.6627 43.5181 86.0991 46.8217 85.1105 50.0089C76.6769 58.5663 63.235 69.1151 48.2114 69.1151ZM89.5194 45.2384C89.8187 43.5695 89.98 41.8788 90.0016 40.1834C90.0016 39.4424 89.9614 38.5327 89.8971 37.5924C91.0954 38.4267 92.1925 39.3977 93.1664 40.4856C93.1249 40.7271 93.0274 40.9555 92.8819 41.1526C92.0782 42.1877 90.9451 43.6006 89.5194 45.2384Z" fill="black"/>
<path d="M48.9298 75.7131C48.5483 75.5224 48.1067 75.4911 47.7021 75.6261C47.2975 75.7612 46.9632 76.0515 46.7728 76.4332L43.5582 82.8624C43.3092 83.3608 43.336 83.9526 43.629 84.4264C43.9221 84.9002 44.4396 85.1885 44.9967 85.1882H48.8254L46.7728 89.2917C46.376 90.0862 46.6984 91.0519 47.4929 91.4487C48.2874 91.8455 49.2531 91.5231 49.6499 90.7286L52.8645 84.2994C53.1136 83.801 53.0868 83.2092 52.7937 82.7354C52.5006 82.2616 51.9831 81.9733 51.426 81.9736H47.5974L49.6579 77.8701C49.8481 77.4876 49.8782 77.0452 49.7416 76.6405C49.605 76.2358 49.3129 75.9021 48.9298 75.7131Z" fill="black"/>
<path d="M12.1417 76.4042C12.6703 76.2282 13.0701 75.7909 13.1981 75.2486C13.3262 74.7063 13.1642 74.1364 12.7702 73.7425L10.0618 71.0342L14.4144 69.5876C15.2577 69.3066 15.7136 68.3952 15.4327 67.5519C15.1517 66.7086 14.2403 66.2527 13.397 66.5337L6.58199 68.808C6.054 68.9843 5.65481 69.4213 5.52683 69.963C5.39884 70.5048 5.56027 71.0742 5.95353 71.4681L8.66186 74.1765L4.30925 75.6231C3.46594 75.9036 3.0097 76.8146 3.29021 77.6579C3.57073 78.5012 4.48176 78.9575 5.32507 78.677L12.1417 76.4042Z" fill="black"/>
<path d="M92.1168 75.6263L87.7642 74.1797L90.4725 71.4714C90.8658 71.0774 91.0272 70.508 90.8992 69.9663C90.7712 69.4245 90.3721 68.9876 89.8441 68.8113L83.0258 66.5433C82.1825 66.2624 81.2711 66.7183 80.9902 67.5616C80.7092 68.4049 81.1651 69.3163 82.0084 69.5972L86.361 71.0438L83.6527 73.7425C83.2586 74.1364 83.0967 74.7063 83.2247 75.2486C83.3528 75.7909 83.7525 76.2282 84.2812 76.4042L91.101 78.677C91.6465 78.8584 92.2474 78.7351 92.6773 78.3533C93.1072 77.9716 93.3008 77.3896 93.1852 76.8264C93.0696 76.2632 92.6623 75.8045 92.1168 75.6231V75.6263Z" fill="black"/>
</svg>
