<svg width="75" height="75" viewBox="0 0 90 90" fill="none" xmlns="http://www.w3.org/2000/svg">
<path d="M50.2734 32.3438H12.3047C6.47982 32.3438 1.75781 37.0658 1.75781 42.8906V69.9609C1.75781 75.7858 6.47982 80.5078 12.3047 80.5078H23.7268L23.5684 80.5215L31.2891 88.2422L31.2945 80.5078H50.2734C56.0983 80.5078 60.8203 75.7858 60.8203 69.9609V42.8906C60.8203 37.0658 56.0983 32.3438 50.2734 32.3438Z" fill="#C7EAFF"/>
<path d="M31.2894 90C30.8319 90 30.3824 89.8214 30.0461 89.4851L22.8266 82.2656H12.3047C5.51988 82.2656 0 76.7457 0 69.9609V42.8906C0 36.1058 5.51988 30.5859 12.3047 30.5859H30.0586C31.0293 30.5859 31.8164 31.3729 31.8164 32.3438C31.8164 33.3146 31.0293 34.1016 30.0586 34.1016H12.3047C7.4584 34.1016 3.51562 38.0443 3.51562 42.8906V69.9609C3.51562 74.8072 7.4584 78.75 12.3047 78.75H23.7268C24.4457 78.75 25.0673 79.1826 25.3389 79.8061L29.5344 84.0015L29.5369 80.5066C29.5376 79.5363 30.3242 78.75 31.2947 78.75H50.2734C55.1197 78.75 59.0625 74.8072 59.0625 69.9609V57.832C59.0625 56.8612 59.8496 56.0742 60.8203 56.0742C61.791 56.0742 62.5781 56.8612 62.5781 57.832V69.9609C62.5781 76.7457 57.0582 82.2656 50.2734 82.2656H33.0511L33.0469 88.2434C33.0463 88.9541 32.618 89.5946 31.9611 89.8664C31.744 89.9562 31.5156 90 31.2894 90Z" fill="black"/>
<path d="M64.4511 1.75781H60.0022C46.8628 1.75781 36.2109 12.4095 36.2109 25.5491C36.2109 38.6886 46.8626 49.3404 60.0022 49.3404H64.4511C66.8863 49.3404 69.2358 48.9737 71.448 48.294L78.75 55.5917V44.5644C84.5146 40.2228 88.2422 33.3214 88.2422 25.5489C88.2422 12.4095 77.5905 1.75781 64.4511 1.75781Z" fill="#FFBC53"/>
<path d="M78.7504 57.3495C78.293 57.3495 77.8437 57.1709 77.5074 56.835L70.9355 50.2668C68.8261 50.8187 66.6497 51.098 64.4509 51.098H60.0021C45.9144 51.098 34.4531 39.6369 34.4531 25.5491C34.4531 11.4613 45.9144 0 60.0022 0H64.4511C78.5387 0 90 11.4613 90 25.5491C90 29.63 89.0661 33.5304 87.2237 37.1421C85.6016 40.3219 83.2903 43.1684 80.5078 45.4217V55.5917C80.5078 56.3026 80.0796 56.9435 79.4229 57.2156C79.2054 57.3057 78.9769 57.3495 78.7504 57.3495ZM71.4479 46.536C71.907 46.536 72.356 46.7162 72.6906 47.0505L76.9922 51.3497V44.5646C76.9922 44.0125 77.2516 43.4925 77.6923 43.1604C83.2799 38.9522 86.4844 32.5331 86.4844 25.5491C86.4844 13.3998 76.6004 3.51562 64.4511 3.51562H60.0022C47.8529 3.51562 37.9688 13.3998 37.9688 25.5491C37.9688 37.6984 47.8528 47.5826 60.0022 47.5826H64.4511C66.6591 47.5826 68.8395 47.2567 70.9318 46.6137C71.1016 46.5615 71.2756 46.536 71.4479 46.536Z" fill="black"/>
<path d="M62.7186 32.8314C61.7479 32.8314 60.9608 32.0444 60.9608 31.0736V26.8504C60.9608 25.2759 62.0383 23.9351 63.5813 23.5898C65.4857 23.1638 66.7702 21.4337 66.6352 19.476C66.5016 17.5377 64.9391 15.9752 63.0005 15.8416C61.8949 15.7653 60.8441 16.1367 60.04 16.8871C59.2353 17.6382 58.792 18.658 58.792 19.7582C58.792 20.729 58.0048 21.516 57.0342 21.516C56.0635 21.516 55.2764 20.729 55.2764 19.7582C55.2764 17.7031 56.1382 15.7199 57.6412 14.317C59.165 12.8944 61.1559 12.1908 63.2421 12.334C66.9222 12.5877 69.8887 15.5542 70.1424 19.2342C70.3946 22.8941 68.0182 26.1352 64.4762 26.9909V31.0736C64.4764 32.0444 63.6894 32.8314 62.7186 32.8314Z" fill="black"/>
<path d="M62.7188 39.7846C62.2564 39.7846 61.8029 39.5982 61.476 39.2713C61.1492 38.9443 60.9609 38.4908 60.9609 38.0268C60.9609 37.5645 61.149 37.1109 61.476 36.784C61.8029 36.457 62.2564 36.269 62.7188 36.269C63.1811 36.269 63.6346 36.457 63.9615 36.784C64.2883 37.1109 64.4766 37.5645 64.4766 38.0268C64.4766 38.4908 64.2885 38.9426 63.9615 39.2713C63.6346 39.5982 63.1811 39.7846 62.7188 39.7846Z" fill="black"/>
<path d="M48.3398 58.0078H11.25C10.2793 58.0078 9.49219 57.2208 9.49219 56.25C9.49219 55.2792 10.2793 54.4922 11.25 54.4922H48.3398C49.3105 54.4922 50.0977 55.2792 50.0977 56.25C50.0977 57.2208 49.3107 58.0078 48.3398 58.0078Z" fill="black"/>
<path d="M48.3398 67.8516C47.8775 67.8516 47.424 67.6635 47.0971 67.3365C46.7701 67.0096 46.582 66.5561 46.582 66.0938C46.582 65.6314 46.7699 65.1779 47.0971 64.851C47.424 64.524 47.8775 64.3359 48.3398 64.3359C48.8021 64.3359 49.2557 64.524 49.5824 64.851C49.9094 65.1779 50.0977 65.6314 50.0977 66.0938C50.0977 66.5578 49.9096 67.0096 49.5824 67.3365C49.2557 67.6635 48.8021 67.8516 48.3398 67.8516Z" fill="black"/>
<path d="M41.4258 67.8516H11.25C10.2793 67.8516 9.49219 67.0646 9.49219 66.0938C9.49219 65.1229 10.2793 64.3359 11.25 64.3359H41.4258C42.3965 64.3359 43.1837 65.1229 43.1837 66.0938C43.1837 67.0646 42.3967 67.8516 41.4258 67.8516Z" fill="black"/>
<path d="M36.9141 48.1641H11.25C10.2793 48.1641 9.49219 47.3771 9.49219 46.4062C9.49219 45.4354 10.2793 44.6484 11.25 44.6484H36.9141C37.8847 44.6484 38.6719 45.4354 38.6719 46.4062C38.6719 47.3771 37.8849 48.1641 36.9141 48.1641Z" fill="black"/>
</svg>
