<svg width="49" height="69" viewBox="0 0 64 90" fill="none" xmlns="http://www.w3.org/2000/svg">
<path d="M62.4194 15.9677V85.6451C62.4194 86.4151 62.1135 87.1536 61.5691 87.698C61.0246 88.2425 60.2862 88.5484 59.5162 88.5484H4.35489C3.5849 88.5484 2.84646 88.2425 2.302 87.698C1.75754 87.1536 1.45166 86.4151 1.45166 85.6451V4.35482C1.45166 3.58484 1.75754 2.84639 2.302 2.30193C2.84646 1.75747 3.5849 1.4516 4.35489 1.4516H47.9033L62.4194 15.9677Z" fill="#92C9AD"/>
<path d="M62.4194 15.9677H52.0506C50.9507 15.9677 49.8958 15.5308 49.118 14.753C48.3403 13.9753 47.9033 12.9204 47.9033 11.8205V1.4516L62.4194 15.9677Z" fill="#CFD8DC"/>
<path d="M31.9352 56.6129C41.5557 56.6129 49.3546 48.814 49.3546 39.1935C49.3546 29.5731 41.5557 21.7742 31.9352 21.7742C22.3148 21.7742 14.5159 29.5731 14.5159 39.1935C14.5159 48.814 22.3148 56.6129 31.9352 56.6129Z" fill="#FEC459"/>
<path d="M42.0968 36.2904H34.8387V29.0323H29.0322V36.2904H21.7742V42.0968H29.0322V49.3549H34.8387V42.0968H42.0968V36.2904Z" fill="white"/>
<path d="M10.1614 65.3226H21.7743V76.9355H10.1614V65.3226Z" fill="white"/>
<path d="M59.5161 90H4.35484C3.19986 90 2.09219 89.5412 1.2755 88.7245C0.458812 87.9078 0 86.8001 0 85.6452V4.35484C0 3.19986 0.458812 2.09219 1.2755 1.2755C2.09219 0.458812 3.19986 0 4.35484 0H47.9032C48.2882 8.22156e-05 48.6574 0.153073 48.9295 0.425323L63.4456 14.9415C63.7179 15.2136 63.8709 15.5828 63.871 15.9677V85.6452C63.871 86.8001 63.4122 87.9078 62.5955 88.7245C61.7788 89.5412 60.6711 90 59.5161 90ZM4.35484 2.90323C3.96985 2.90323 3.60062 3.05616 3.32839 3.32839C3.05616 3.60062 2.90323 3.96985 2.90323 4.35484V85.6452C2.90323 86.0302 3.05616 86.3994 3.32839 86.6716C3.60062 86.9438 3.96985 87.0968 4.35484 87.0968H59.5161C59.9011 87.0968 60.2703 86.9438 60.5426 86.6716C60.8148 86.3994 60.9677 86.0302 60.9677 85.6452V16.5687L47.3023 2.90323H4.35484Z" fill="#231F20"/>
<path d="M62.4192 17.4194H52.0503C50.5658 17.4179 49.1426 16.8275 48.093 15.7778C47.0433 14.7282 46.453 13.305 46.4514 11.8205V1.45167C46.4515 1.16461 46.5366 0.884019 46.6962 0.645359C46.8557 0.4067 47.0824 0.220691 47.3476 0.110847C47.6128 0.0010034 47.9046 -0.0277429 48.1861 0.0282422C48.4677 0.0842274 48.7263 0.22243 48.9293 0.425379L63.4454 14.9415C63.6484 15.1445 63.7866 15.4031 63.8426 15.6847C63.8986 15.9662 63.8698 16.2581 63.76 16.5233C63.6501 16.7885 63.4641 17.0152 63.2255 17.1747C62.9868 17.3342 62.7062 17.4194 62.4192 17.4194ZM49.3546 4.95586V11.8205C49.3554 12.5352 49.6397 13.2204 50.145 13.7258C50.6504 14.2312 51.3356 14.5154 52.0503 14.5162H58.915L49.3546 4.95586Z" fill="#231F20"/>
<path d="M53.7096 69.6774H29.0322C28.6472 69.6774 28.278 69.5245 28.0057 69.2522C27.7335 68.98 27.5806 68.6108 27.5806 68.2258C27.5806 67.8408 27.7335 67.4716 28.0057 67.1993C28.278 66.9271 28.6472 66.7742 29.0322 66.7742H53.7096C54.0946 66.7742 54.4638 66.9271 54.736 67.1993C55.0083 67.4716 55.1612 67.8408 55.1612 68.2258C55.1612 68.6108 55.0083 68.98 54.736 69.2522C54.4638 69.5245 54.0946 69.6774 53.7096 69.6774Z" fill="#231F20"/>
<path d="M46.4515 75.4839H29.0322C28.6472 75.4839 28.278 75.3309 28.0057 75.0587C27.7335 74.7865 27.5806 74.4172 27.5806 74.0322C27.5806 73.6472 27.7335 73.278 28.0057 73.0058C28.278 72.7336 28.6472 72.5806 29.0322 72.5806H46.4515C46.8365 72.5806 47.2057 72.7336 47.478 73.0058C47.7502 73.278 47.9031 73.6472 47.9031 74.0322C47.9031 74.4172 47.7502 74.7865 47.478 75.0587C47.2057 75.3309 46.8365 75.4839 46.4515 75.4839Z" fill="#231F20"/>
<path d="M31.9354 58.0645C28.2031 58.0645 24.5546 56.9577 21.4513 54.8842C18.348 52.8106 15.9292 49.8634 14.5009 46.4152C13.0726 42.9669 12.6989 39.1726 13.4271 35.512C14.1552 31.8514 15.9525 28.4889 18.5916 25.8498C21.2308 23.2106 24.5933 21.4133 28.2539 20.6852C31.9145 19.957 35.7088 20.3307 39.157 21.759C42.6053 23.1873 45.5525 25.6061 47.6261 28.7094C49.6996 31.8127 50.8064 35.4612 50.8064 39.1935C50.8006 44.1967 48.8106 48.9932 45.2729 52.531C41.7351 56.0687 36.9385 58.0588 31.9354 58.0645ZM31.9354 23.2258C28.7773 23.2258 25.6901 24.1623 23.0642 25.9169C20.4383 27.6714 18.3917 30.1652 17.1832 33.083C15.9746 36.0007 15.6584 39.2113 16.2745 42.3087C16.8906 45.4061 18.4114 48.2513 20.6445 50.4844C22.8777 52.7176 25.7228 54.2384 28.8203 54.8545C31.9177 55.4706 35.1283 55.1544 38.046 53.9458C40.9637 52.7373 43.4576 50.6906 45.2121 48.0647C46.9667 45.4389 47.9032 42.3517 47.9032 39.1935C47.8982 34.9602 46.2143 30.9016 43.2208 27.9082C40.2274 24.9147 36.1688 23.2308 31.9354 23.2258Z" fill="#231F20"/>
<path d="M34.8386 50.8064H29.0322C28.6472 50.8064 28.278 50.6535 28.0057 50.3813C27.7335 50.109 27.5806 49.7398 27.5806 49.3548V43.5484H21.7741C21.3891 43.5484 21.0199 43.3954 20.7477 43.1232C20.4754 42.851 20.3225 42.4817 20.3225 42.0968V36.2903C20.3225 35.9053 20.4754 35.5361 20.7477 35.2639C21.0199 34.9916 21.3891 34.8387 21.7741 34.8387H27.5806V29.0322C27.5806 28.6472 27.7335 28.278 28.0057 28.0058C28.278 27.7336 28.6472 27.5806 29.0322 27.5806H34.8386C35.2236 27.5806 35.5929 27.7336 35.8651 28.0058C36.1373 28.278 36.2903 28.6472 36.2903 29.0322V34.8387H42.0967C42.4817 34.8387 42.8509 34.9916 43.1231 35.2639C43.3954 35.5361 43.5483 35.9053 43.5483 36.2903V42.0968C43.5483 42.4817 43.3954 42.851 43.1231 43.1232C42.8509 43.3954 42.4817 43.5484 42.0967 43.5484H36.2903V49.3548C36.2903 49.7398 36.1373 50.109 35.8651 50.3813C35.5929 50.6535 35.2236 50.8064 34.8386 50.8064ZM30.4838 47.9032H33.387V42.0968C33.387 41.7118 33.54 41.3425 33.8122 41.0703C34.0844 40.7981 34.4536 40.6451 34.8386 40.6451H40.6451V37.7419H34.8386C34.4536 37.7419 34.0844 37.589 33.8122 37.3168C33.54 37.0445 33.387 36.6753 33.387 36.2903V30.4839H30.4838V36.2903C30.4838 36.6753 30.3309 37.0445 30.0586 37.3168C29.7864 37.589 29.4172 37.7419 29.0322 37.7419H23.2257V40.6451H29.0322C29.4172 40.6451 29.7864 40.7981 30.0586 41.0703C30.3309 41.3425 30.4838 41.7118 30.4838 42.0968V47.9032Z" fill="#231F20"/>
<path d="M21.774 78.3871H10.1611C9.77609 78.3871 9.40687 78.2342 9.13464 77.9619C8.86241 77.6897 8.70947 77.3205 8.70947 76.9355V65.3226C8.70947 64.9376 8.86241 64.5684 9.13464 64.2961C9.40687 64.0239 9.77609 63.871 10.1611 63.871H21.774C22.159 63.871 22.5282 64.0239 22.8004 64.2961C23.0727 64.5684 23.2256 64.9376 23.2256 65.3226V76.9355C23.2256 77.3205 23.0727 77.6897 22.8004 77.9619C22.5282 78.2342 22.159 78.3871 21.774 78.3871ZM11.6127 75.4839H20.3224V66.7742H11.6127V75.4839Z" fill="#231F20"/>
</svg>
