<svg width="64" height="74" viewBox="0 0 79 91" fill="none" xmlns="http://www.w3.org/2000/svg">
<path d="M73.8118 16.6668C75.8128 10.5159 72.4485 3.90737 66.2976 1.90633C60.1466 -0.0947078 53.5381 3.26957 51.5371 9.42051C50.5671 12.4022 50.8608 15.4899 52.1186 18.1097L47.6196 23.8789L60.1812 32.8301L62.9768 25.7003L69.1354 28.0046L73.8118 16.6668Z" fill="#FFCFC5"/>
<path d="M57.1924 30.7002L60.1812 32.8299L62.977 25.7001L59.674 24.3596L57.1924 30.7002Z" fill="#FFAC9A"/>
<path d="M73.8123 16.6668C75.8133 10.5159 72.4491 3.90736 66.2981 1.90633C65.9941 1.80748 65.6886 1.72537 65.3828 1.65234C69.9748 4.39182 72.2355 10.028 70.5114 15.3273L65.7998 26.7562L69.1359 28.0046L73.8123 16.6668Z" fill="#FFAC9A"/>
<path d="M65.958 1.80144C60.1326 0.0953481 53.8891 3.19371 51.7322 8.86768C50.7743 11.3874 50.7403 14.0098 51.449 16.382C51.6264 16.9757 51.8503 17.5538 52.1178 18.1106L55.3189 14.8318C54.9426 13.9867 54.895 12.9967 55.2703 12.0718C56.0027 10.2669 58.0596 9.39755 59.8646 10.1299C61.3495 10.7325 62.1989 12.2316 62.0462 13.7494C63.9169 13.5272 65.6128 12.3208 66.3712 10.4519L66.907 9.13164L74.3531 12.1534C73.9933 7.45279 70.7975 3.21882 65.958 1.80144Z" fill="#FF9680"/>
<path d="M71.0529 10.8139L74.3536 12.1534C73.9934 7.4528 70.7977 3.21882 65.9581 1.80144C65.7642 1.74463 65.5697 1.69404 65.375 1.64774C68.67 3.60995 70.7654 7.06203 71.0529 10.8139Z" fill="#F66A48"/>
<path d="M75.7928 72.7689C75.3939 72.0566 74.8982 71.4025 74.3341 70.8126L64.4846 60.5137L61.8247 46.4072C61.5595 48.5721 61.0131 50.706 60.1831 52.7512L54.8979 65.7746C55.8642 67.9534 57.2009 69.9623 58.8657 71.7029L70.4462 79.426C71.0956 80.105 71.7603 81.655 72.3286 83.2895C73.0692 85.4197 76.0817 85.3907 76.7781 83.2457C77.7014 80.4019 77.9871 76.6857 75.7928 72.7689Z" fill="#FFAC9A"/>
<path d="M61.314 37.5102L60.1814 32.83L47.6198 23.8789L47.5876 23.8917C45.6496 22.4503 43.1109 21.8451 40.5782 22.4514L28.9193 25.2416L30.6911 32.6446L32.5051 40.2244L24.7373 59.3656L52.8665 70.7809L60.1834 52.7512C62.1461 47.9143 62.5417 42.5836 61.314 37.5102Z" fill="#8CE0FF"/>
<path d="M61.3144 37.5102L60.1818 32.8301L56.3753 30.1175L58.0137 36.1707C59.2414 41.244 58.8458 46.5748 56.8831 51.4115L49.5664 69.4413L52.8671 70.7809L60.1838 52.751C62.1465 47.9144 62.5421 42.5836 61.3144 37.5102Z" fill="#00ACF0"/>
<path d="M19.5343 70.3288L18.2273 66.5585C16.9693 60.6034 19.2619 54.8719 19.2619 54.8719L8.82306 43.0403C5.25681 38.9981 7.29775 32.6128 12.5475 31.3886L29.478 27.4409L31.9047 37.8482L20.6043 40.281L27.641 52.2108L19.5343 70.3288Z" fill="#FFCFC5"/>
<path d="M31.9044 37.8481L29.4776 27.4407L26.0991 28.2285L27.7459 35.291L16.1787 38.8177L24.0785 52.2107L18.064 65.6526C18.1103 65.9534 18.1628 66.2555 18.2269 66.5583L19.5339 70.3287L27.6408 52.2105L20.6041 40.2807L31.9044 37.8481Z" fill="#FFAC9A"/>
<path d="M32.9988 82.7964C28.1507 80.3679 25.8366 76.2349 24.8134 72.11H24.7375L20.2568 89.6425H35.6865L32.9988 82.7964Z" fill="#83A5B9"/>
<path d="M24.7368 59.3656C24.7368 59.3656 20.6495 76.6109 32.9984 82.7964L35.6947 89.6645H57.1921L52.8661 70.7807L24.7368 59.3656Z" fill="#C2D3DD"/>
<path d="M52.8662 70.7809L48.939 69.187L53.63 89.6646H57.1921L52.8662 70.7809Z" fill="#83A5B9"/>
<path d="M3.13086 50.7773L4.89157 48.7681L10.9104 54.0426L9.14972 56.0518L3.13086 50.7773Z" fill="black"/>
<path d="M0 60.0663L7.98779 59.5381L8.1641 62.2042L0.176315 62.7324L0 60.0663Z" fill="black"/>
<path d="M4.49658 71.5123L9.77108 65.4934L11.7801 67.254L6.50564 73.2729L4.49658 71.5123Z" fill="black"/>
<path d="M78.0484 83.6582C79.339 79.6841 78.9619 75.6927 76.958 72.1158C76.5161 71.327 75.958 70.5778 75.2993 69.8893L65.7237 59.8766L63.1812 46.3928C63.5353 43.3438 63.349 40.2418 62.6118 37.1958L61.5784 32.925L63.7403 27.4119L69.8775 29.7084L75.0466 17.176L75.0818 17.08C76.1601 13.7658 75.8832 10.2302 74.3021 7.12434C72.721 4.0185 70.025 1.71415 66.7108 0.63606C63.3027 -0.472837 59.5448 -0.120184 56.4009 1.60301L57.685 3.94583C60.2223 2.55481 63.1344 2.2816 65.8844 3.17659C68.52 4.034 70.6639 5.86655 71.9213 8.33636C72.1956 8.87532 72.4175 9.43119 72.5928 9.99722L66.1717 7.3915L65.1335 9.94948C64.7605 10.8687 64.0652 11.6021 63.2019 12.0316C62.7892 10.6398 61.7628 9.45844 60.367 8.89206C59.1633 8.40351 57.8416 8.41313 56.6452 8.9186C55.4489 9.42407 54.5209 10.3655 54.0326 11.5692C53.655 12.4998 53.5793 13.5273 53.8025 14.4962L52.6392 15.6772C52.1339 13.766 52.1851 11.7469 52.8075 9.83353C53.3721 8.09752 54.3841 6.53961 55.7337 5.32795L53.9489 3.33991C52.2499 4.86505 50.9768 6.82459 50.2668 9.00694C49.312 11.942 49.4253 15.0743 50.5743 17.9173L47.2974 22.1194C45.1683 20.9334 42.6713 20.5766 40.2672 21.1517L27.3093 24.2531L27.8354 26.4519L20.3093 28.2068L20.916 30.8084L28.4572 29.0499L30.2947 36.8277L20.6784 38.898L15.3326 37.1305L14.4939 39.6671L19.7082 41.3912L26.1395 52.2946L19.6916 66.7049L19.5171 66.2014C18.3995 60.7616 20.4812 55.4191 20.5017 55.3673L20.807 54.6039L9.82413 42.1558C8.46339 40.6134 8.02471 38.5229 8.65112 36.5637C9.27752 34.6046 10.8472 33.156 12.8504 32.6888L18.2445 31.431L17.6379 28.8294L12.2437 30.0872C9.31599 30.7699 7.02179 32.8871 6.10649 35.7503C5.1912 38.6138 5.83203 41.6692 7.82096 43.9235L17.7403 55.1664C17.1354 57.0148 15.8593 61.8128 16.9201 66.834L16.9374 66.9161L19.376 73.9519L22.7587 66.3918C22.774 67.1945 22.8197 68.0341 22.9083 68.8974C23.0167 69.9548 23.182 70.9693 23.4016 71.9407L18.5364 90.9777L58.8689 91L54.2625 70.8924L55.0554 68.9385C55.8689 70.2606 56.8191 71.4949 57.9002 72.6255L58.0019 72.732L69.5605 80.4404C69.8026 80.7412 70.315 81.5653 71.0668 83.7277C71.3076 84.4205 71.841 85.4213 71.841 85.4213H77.0913C77.0913 85.4219 77.8137 84.381 78.0484 83.6582ZM53.1239 18.9924L56.9206 15.1374L56.5425 14.3024C56.2922 13.7496 56.2799 13.1358 56.5079 12.5741C56.728 12.0317 57.1461 11.6075 57.6852 11.3797C58.2243 11.1519 58.8197 11.1474 59.3623 11.3679C60.2578 11.7313 60.816 12.6555 60.7194 13.6156L60.5561 15.2414L62.1819 15.0784L62.2458 15.0715C64.6453 14.7709 66.7003 13.1932 67.609 10.9544L67.6425 10.8717L73.0528 13.0673C73.0493 14.1195 72.8863 15.176 72.5565 16.2064L68.393 26.3006L62.5082 24.0686C61.847 23.8002 61.33 23.2906 61.0523 22.6334C60.7746 21.9762 60.7693 21.2502 61.0377 20.5891L58.5622 19.5844C58.0256 20.9067 58.0359 22.3588 58.5916 23.6734C59.1117 24.9037 60.0512 25.8755 61.2538 26.4349L59.5623 30.7489L49.5305 23.6004L53.1239 18.9924ZM22.6951 41.197L30.9393 39.4222L31.106 40.1188L27.4187 49.2053L22.6951 41.197ZM21.9764 88.3067L24.9921 76.5065C26.5442 79.6529 28.8808 82.1032 31.938 83.7507L33.7265 88.3067H21.9764ZM55.5158 88.3289H36.6055L34.0548 81.8316L33.5969 81.6021C28.929 79.2641 26.2294 74.9215 25.5731 68.6951C25.2527 65.6549 25.5186 62.8708 25.7603 61.2226L40.438 67.179L32.7238 73.7777L34.4603 75.8078L43.2254 68.31L51.7193 71.7571L55.5158 88.3289ZM73.59 82.8509C72.5766 79.9354 71.8611 78.9729 71.4114 78.5025L71.3097 78.396L59.7311 70.6744C58.3517 69.2103 57.2194 67.552 56.3533 65.7402L58.3939 60.7117L55.9184 59.707L52.1309 69.0404L26.4774 58.6298L32.7975 43.0559L44.8207 40.1783L44.1989 37.58L33.8391 40.0595L30.5648 26.221L40.8888 23.7501C42.9486 23.2571 45.1042 23.7024 46.8032 24.9716L46.8199 24.9492L59 33.6283L60.0152 37.8242C61.1841 42.6552 60.8142 47.6431 58.9451 52.2486L56.9382 57.1939L59.4137 58.1986C59.4137 58.1986 61.5713 52.8629 61.6454 52.6672L63.245 61.1506L73.3685 71.7361C73.8718 72.262 74.2952 72.8293 74.6271 73.4219C76.2805 76.3733 76.5767 79.5398 75.5072 82.8332L73.59 82.8509Z" fill="black"/>
</svg>
