<svg width="74" height="74" viewBox="0 0 89 89" fill="none" xmlns="http://www.w3.org/2000/svg">
<path d="M77.7387 4.66415V38.663C73.3134 33.1609 65.34 32.1196 59.65 36.3006C53.9601 40.4816 52.5718 48.402 56.5005 54.269H1.46872V4.66415C1.40241 2.97355 2.71214 1.54594 4.40218 1.46667H74.8053C76.4953 1.54594 77.805 2.97355 77.7387 4.66415Z" fill="#92C9AD"/>
<path d="M67.4716 60.136H60.1379C58.1561 60.1305 56.2063 60.6356 54.4764 61.6027H4.40218C2.71214 61.5234 1.40241 60.0958 1.46872 58.4052V54.269H56.5005C58.9458 57.9369 63.0634 60.1388 67.4716 60.136Z" fill="#9E9E9E"/>
<path d="M56.5003 54.269H52.1001C54.5454 57.9369 58.663 60.1388 63.0712 60.136H67.4714C63.0632 60.1388 58.9456 57.9369 56.5003 54.269Z" fill="#707070"/>
<path d="M50.0759 61.6027H54.4761C56.206 60.6356 58.1559 60.1305 60.1377 60.136H55.7375C53.7557 60.1305 51.8058 60.6356 50.0759 61.6027Z" fill="#707070"/>
<path d="M54.476 61.6027C51.6442 63.1559 49.5796 65.8096 48.7704 68.9364H24.936L29.3362 61.6027H54.476Z" fill="#7F8E94"/>
<path d="M50.0759 61.6027C47.2441 63.1559 45.1795 65.8096 44.3704 68.9364H48.7706C49.5797 65.8096 51.6443 63.1559 54.4761 61.6027H50.0759Z" fill="#545C60"/>
<path d="M48.7706 68.9363C48.5287 69.8955 48.4056 70.8807 48.4039 71.8698V74.8033H20.536C18.9209 74.7913 17.6145 73.4849 17.6025 71.8698C17.6074 70.2517 18.9179 68.9412 20.536 68.9363H48.7706Z" fill="#9E9E9E"/>
<path d="M44.3703 68.9363C44.1285 69.8955 44.0054 70.8807 44.0037 71.8698V74.8033H48.4039V71.8698C48.4056 70.8807 48.5287 69.8955 48.7705 68.9363H44.3703Z" fill="#707070"/>
<path d="M80.672 46.9354C80.6907 53.388 76.0546 58.9141 69.697 60.0174C63.3394 61.1207 57.1125 57.4798 54.9559 51.3983C52.7993 45.3167 55.3414 38.5663 60.9738 35.4178C66.6061 32.2694 73.6879 33.6402 77.7386 38.663C79.6313 41.0052 80.6664 43.9241 80.672 46.9354Z" fill="#FFE0B2"/>
<path d="M77.7382 38.663C74.76 34.913 69.9654 33.098 65.2505 33.9357C71.6013 34.991 76.2607 40.4795 76.2712 46.9174C76.2818 53.3552 71.6403 58.8589 65.293 59.935C70.6954 60.8535 76.1021 58.3312 78.8693 53.6013C81.6365 48.8714 81.1861 42.9223 77.7382 38.663Z" fill="#DFC49C"/>
<path d="M86.5388 71.8698V82.1369C86.5388 84.5671 84.5688 86.5371 82.1386 86.5371H52.804C50.3738 86.5371 48.4038 84.5671 48.4038 82.1369V71.8698C48.4079 65.3911 53.6589 60.14 60.1377 60.136H74.805C81.2854 60.136 86.5388 65.3894 86.5388 71.8698Z" fill="#FFDC00"/>
<path d="M74.805 60.136H70.4048C76.8852 60.136 82.1386 65.3894 82.1386 71.8698V82.1369C82.1386 84.5671 80.1686 86.5371 77.7384 86.5371H82.1386C84.5688 86.5371 86.5388 84.5671 86.5388 82.1369V71.8698C86.5388 65.3894 81.2854 60.136 74.805 60.136Z" fill="#FEC108"/>
<path d="M24.936 39.6017C31.4164 39.6017 36.6698 34.3483 36.6698 27.8679C36.6698 21.3875 31.4164 16.134 24.936 16.134C18.4556 16.134 13.2021 21.3875 13.2021 27.8679C13.2021 34.3483 18.4556 39.6017 24.936 39.6017Z" fill="#FFE0B2"/>
<path d="M36.3913 41.0244C35.4168 45.7042 33.651 50.1833 31.1697 54.269H18.7025C16.2213 50.1833 14.4554 45.7042 13.481 41.0244C15.1941 40.0869 17.1163 39.5975 19.0692 39.6017H30.8031C32.7559 39.5975 34.6782 40.0869 36.3913 41.0244Z" fill="#F5F5F5"/>
<path d="M18.7026 54.2691H7.33545L7.33546 51.3356C7.32951 47.0293 9.69048 43.068 13.4811 41.0245C14.4555 45.7042 16.2214 50.1834 18.7026 54.2691Z" fill="#607D8B"/>
<path d="M42.5368 51.3356L42.5369 54.2691H31.1697C33.6509 50.1834 35.4168 45.7042 36.3912 41.0245C40.1818 43.068 42.5428 47.0293 42.5368 51.3356Z" fill="#607D8B"/>
<path d="M27.8695 45.4687H22.0026L20.5359 39.6017H29.3363L27.8695 45.4687Z" fill="#F44335"/>
<path d="M29.6298 54.269L27.8697 45.4686H22.0028L20.2427 54.269H29.6298Z" fill="#F44335"/>
<path d="M71.8715 10.2671V24.9344C71.8666 26.5525 70.5561 27.863 68.938 27.8678H58.6709L50.8239 33.4561C50.3564 33.7855 49.7446 33.8278 49.2362 33.5659C48.7278 33.304 48.407 32.7813 48.4038 32.2094V27.8678H45.4703C43.8522 27.863 42.5417 26.5525 42.5369 24.9344V10.2671C42.5417 8.64898 43.8522 7.33845 45.4703 7.33362H68.938C70.5561 7.33845 71.8666 8.64898 71.8715 10.2671Z" fill="white"/>
<path d="M76.144 58.7367C79.302 56.4341 81.4043 52.9608 81.9797 49.095C82.5551 45.2292 81.5556 41.2942 79.2051 38.1717V4.6642C79.2709 2.16384 77.3048 0.0798186 74.8049 0H4.4018C1.90184 0.0798186 -0.0642161 2.16384 0.00160562 4.6642V58.4052C-0.0642161 60.9056 1.90184 62.9896 4.4018 63.0694H26.746L24.1059 67.4696H20.5358C18.1057 67.4696 16.1356 69.4396 16.1356 71.8698C16.1477 74.295 18.1107 76.258 20.5358 76.27H46.937V82.1369C46.937 85.3771 49.5637 88.0038 52.8039 88.0038H82.1385C85.3788 88.0038 88.0055 85.3771 88.0055 82.1369V71.8698C87.997 65.101 82.877 59.4321 76.144 58.7367ZM79.2051 46.9354C79.2051 53.4158 73.9517 58.6692 67.4712 58.6692C60.9908 58.6692 55.7374 53.4158 55.7374 46.9354C55.7374 40.455 60.9908 35.2015 67.4712 35.2015C73.9486 35.2088 79.1978 40.458 79.2051 46.9354ZM2.93507 4.6642C2.88086 3.78735 3.52793 3.02381 4.4018 2.93346H74.8049C75.6788 3.02381 76.3258 3.78735 76.2716 4.6642V35.2294C70.9532 31.2154 63.5955 31.2975 58.368 35.4291C53.1404 39.5608 51.3607 46.7004 54.0374 52.8023H44.0035V51.3356C43.9919 44.8839 39.322 39.3844 32.9576 38.3271C37.4516 34.8886 39.2542 28.9683 37.439 23.6088C35.6238 18.2493 30.5946 14.6428 24.936 14.6428C19.2775 14.6428 14.2483 18.2493 12.4331 23.6088C10.6179 28.9683 12.4205 34.8886 16.9145 38.3271C10.55 39.3844 5.88016 44.8839 5.86853 51.3356V52.8023H2.93507V4.6642ZM23.2053 46.9354H26.6668L27.8402 52.8023H22.0319L23.2053 46.9354ZM22.4147 41.0685H27.4573L26.724 44.0019H23.1481L22.4147 41.0685ZM24.936 38.135C19.2657 38.135 14.6689 33.5383 14.6689 27.8679C14.6689 22.1975 19.2657 17.6008 24.936 17.6008C30.6064 17.6008 35.2031 22.1975 35.2031 27.8679C35.1967 33.5356 30.6037 38.1285 24.936 38.135ZM15.1779 41.84C16.412 41.3306 17.734 41.0685 19.0691 41.0685H19.3903L20.4992 45.5053L19.1644 52.1789C17.3813 48.9254 16.0406 45.4484 15.1779 41.84ZM16.1488 52.8023H8.80199V51.3356C8.80397 48.2673 10.1801 45.3611 12.5524 43.4152C13.388 46.6716 14.5947 49.8212 16.1488 52.8023ZM30.4817 41.0685H30.803C32.138 41.0685 33.4601 41.3306 34.6942 41.84C33.8314 45.4484 32.4907 48.9254 30.7076 52.1789L29.3729 45.5053L30.4817 41.0685ZM37.3196 43.4152C39.692 45.3611 41.0681 48.2673 41.0701 51.3356V52.8023H33.7232C35.2774 49.8212 36.4841 46.6716 37.3196 43.4152ZM4.4018 60.136C3.52793 60.0456 2.88086 59.2821 2.93507 58.4052V55.7358H55.7653C56.6254 56.8779 57.6472 57.8888 58.7985 58.7367C57.1663 58.9057 55.5806 59.3804 54.124 60.136H4.4018ZM46.937 71.8698V73.3365H20.5358C20.1406 73.3378 19.7626 73.1753 19.4915 72.8877C19.2178 72.6202 19.0653 72.2525 19.0691 71.8698C19.0691 71.0598 19.7258 70.4031 20.5358 70.4031H47.0235C46.9673 70.89 46.9384 71.3797 46.937 71.8698ZM47.707 67.4696H27.5263L30.1664 63.0694H50.3266C49.174 64.3507 48.284 65.8456 47.707 67.4696ZM85.072 82.1369C85.072 83.757 83.7586 85.0704 82.1385 85.0704H52.8039C51.1838 85.0704 49.8705 83.757 49.8705 82.1369V71.8698C49.8769 66.2021 54.4699 61.6092 60.1376 61.6027H74.8049C80.4726 61.6092 85.0655 66.2021 85.072 71.8698V82.1369Z" fill="black"/>
<path d="M45.4705 29.3346H46.9372V32.2094C46.9392 33.3309 47.5663 34.3577 48.5632 34.8715C49.56 35.3854 50.7602 35.3005 51.6748 34.6515L59.1404 29.3346H68.9382C71.3684 29.3346 73.3384 27.3646 73.3384 24.9344V10.2671C73.3384 7.83698 71.3684 5.86694 68.9382 5.86694H45.4705C43.0403 5.86694 41.0703 7.83698 41.0703 10.2671V24.9344C41.0703 27.3646 43.0403 29.3346 45.4705 29.3346ZM44.0038 10.2671C44.0038 9.45708 44.6605 8.80041 45.4705 8.80041H68.9382C69.7482 8.80041 70.4049 9.45708 70.4049 10.2671V24.9344C70.4049 25.7445 69.7482 26.4012 68.9382 26.4012H58.6711C58.366 26.4014 58.0687 26.4968 57.8204 26.674L49.8707 32.2094V27.8679C49.8707 27.0579 49.214 26.4012 48.404 26.4012H45.4705C44.6605 26.4012 44.0038 25.7445 44.0038 24.9344V10.2671Z" fill="black"/>
<path d="M48.4037 14.6673H55.7374C56.5475 14.6673 57.2041 14.0107 57.2041 13.2006C57.2041 12.3906 56.5475 11.7339 55.7374 11.7339H48.4037C47.5937 11.7339 46.937 12.3906 46.937 13.2006C46.937 14.0107 47.5937 14.6673 48.4037 14.6673Z" fill="black"/>
<path d="M48.4037 20.5342H66.0045C66.8146 20.5342 67.4712 19.8776 67.4712 19.0675C67.4712 18.2574 66.8146 17.6008 66.0045 17.6008H48.4037C47.5937 17.6008 46.937 18.2574 46.937 19.0675C46.937 19.8776 47.5937 20.5342 48.4037 20.5342Z" fill="black"/>
</svg>
