<svg width="68" height="72" viewBox="0 0 83 88" fill="none" xmlns="http://www.w3.org/2000/svg">
<path d="M1.67554 40.5605V69.2623H37.0215L37.0232 69.264L53.2355 57.3157V40.5605H1.67554Z" fill="#E3F2FF"/>
<path d="M79.2286 56.2003C82.5359 61.9311 80.6056 69.2963 74.8253 72.6341L64.8055 78.4191L52.7749 57.582C66.1489 49.8603 61.9601 52.2789 62.7947 51.797C68.5487 48.475 75.9064 50.4462 79.2286 56.2003Z" fill="white"/>
<path d="M52.7749 57.5822L64.8055 78.4193L53.9882 84.6649C48.2341 87.987 40.8765 86.0158 37.5543 80.2616C34.2103 74.4536 36.2469 67.1264 41.9576 63.8278L52.7749 57.5822Z" fill="#FEC459"/>
<path d="M42.9235 23.3738L51.8605 35.2892C52.7526 36.4803 53.2355 37.9273 53.2355 39.4141V40.5605H1.67554V39.4141C1.67554 37.9273 2.15851 36.4803 3.05054 35.2892L11.9875 23.3738V16.4991H42.9235V23.3738Z" fill="#92C9AD"/>
<path d="M46.3609 5.1559V13.0618C46.3609 14.9609 44.8227 16.4991 42.9236 16.4991H11.9876C10.0886 16.4991 8.55029 14.9609 8.55029 13.0618V5.1559C8.55029 3.25685 10.0886 1.71857 11.9876 1.71857H42.9236C44.8227 1.71857 46.3609 3.25685 46.3609 5.1559Z" fill="#CFD8DC"/>
<path d="M37.0232 69.264L37.0215 69.2623H1.67554V72.6996C1.67554 76.4962 4.75365 79.5743 8.5502 79.5743H37.1848L37.1865 79.5725L37.0232 69.264Z" fill="#92C9AD"/>
<path d="M18.9053 25.0926C19.8541 25.0926 20.6239 24.3226 20.6239 23.374C20.6239 22.4252 19.8539 21.6554 18.9053 21.6554C17.9566 21.6554 17.1868 22.4254 17.1868 23.374C17.1866 24.3226 17.9566 25.0926 18.9053 25.0926Z" fill="black"/>
<path d="M34.3731 53.7942H29.2172V48.6383C29.2172 47.6892 28.4475 46.9197 27.4986 46.9197C26.5497 46.9197 25.78 47.6894 25.78 48.6383V53.7942H20.6241C19.675 53.7942 18.9055 54.5639 18.9055 55.513C18.9055 56.4621 19.6752 57.2316 20.6241 57.2316H25.78V62.3875C25.78 63.3366 26.5497 64.1061 27.4986 64.1061C28.4475 64.1061 29.2172 63.3364 29.2172 62.3875V57.2316H34.3731C35.3222 57.2316 36.0917 56.4619 36.0917 55.513C36.0918 54.5639 35.3223 53.7942 34.3731 53.7942Z" fill="black"/>
<path d="M61.9784 50.3087L54.9971 54.3392V39.4142C54.9971 37.5692 54.387 35.7382 53.2784 34.2583L44.6851 22.801V17.9221C46.6854 17.2126 48.1225 15.3024 48.1225 13.0617V5.15591C48.1225 2.31292 45.8096 0 42.9666 0H12.0306C9.18759 0 6.87449 2.31292 6.87449 5.15591V13.0618C6.87449 15.3022 8.31154 17.2128 10.3118 17.9223V22.8011L1.71789 34.2592C0.609985 35.7384 0 37.5692 0 39.4142V72.6996C0 77.438 3.85499 81.2928 8.59324 81.2928H36.2139C40.0676 87.7524 48.377 89.9141 54.8906 86.1533L75.7279 74.1226C82.2514 70.3554 84.5784 61.9574 80.7599 55.3411C76.9607 48.7607 68.56 46.5084 61.9784 50.3087ZM36.0108 67.5435H3.43716V42.2792H51.5598V56.3235L41.1409 62.3395C38.9686 63.5943 37.2127 65.3806 36.0108 67.5435ZM10.3118 5.15591C10.3118 4.20819 11.0829 3.43733 12.0304 3.43733H42.9664C43.9141 3.43733 44.6851 4.20836 44.6851 5.15591V13.0618C44.6851 14.0095 43.9141 14.7804 42.9664 14.7804H12.0306C11.0829 14.7804 10.312 14.0094 10.312 13.0618L10.3118 5.15591ZM13.4054 24.4051C13.6285 24.1077 13.7492 23.7458 13.7492 23.3738V18.2179H41.2478V21.6552H25.7799C24.8308 21.6552 24.0613 22.4249 24.0613 23.3738C24.0613 24.3229 24.831 25.0924 25.7799 25.0924H42.1072L50.5279 36.3196C51.0782 37.0544 51.4201 37.9335 51.5234 38.8417H3.47377C3.57689 37.9335 3.91875 37.0546 4.46858 36.3205L13.4054 24.4051ZM3.43716 72.6996V70.9638H34.6626C34.1176 73.1922 34.1212 75.5723 34.7453 77.8557H8.59324C5.75026 77.8555 3.43716 75.5426 3.43716 72.6996ZM53.172 83.1764C48.2397 86.0246 41.937 84.3402 39.087 79.4044C36.2234 74.4211 37.9588 68.147 42.86 65.316L52.1889 59.9298L62.5009 77.7902L53.172 83.1764ZM74.0091 71.1458L65.4778 76.0716L55.1656 58.2109L63.6971 53.2854C68.6327 50.4361 74.9331 52.1234 77.7832 57.0593C80.6457 62.0201 78.905 68.3187 74.0091 71.1458Z" fill="black"/>
</svg>
