<svg width="91" height="91" viewBox="0 0 91 91" fill="none" xmlns="http://www.w3.org/2000/svg">
<path d="M7.58327 4.54999H25.7833C29.1338 4.54999 31.8499 7.26613 31.8499 10.6167V12.1333C31.8499 12.971 31.1709 13.65 30.3333 13.65H3.03327C2.19564 13.65 1.5166 12.971 1.5166 12.1333V10.6167C1.5166 7.26613 4.23274 4.54999 7.58327 4.54999Z" fill="#F5F5F5"/>
<path d="M25.7834 4.54999H21.2334C24.5839 4.54999 27.3001 7.26613 27.3001 10.6167V12.1333C27.3001 12.971 26.621 13.65 25.7834 13.65H30.3334C31.171 13.65 31.8501 12.971 31.8501 12.1333V10.6167C31.8501 7.26613 29.1339 4.54999 25.7834 4.54999Z" fill="#CFD8DC"/>
<path d="M3.0332 13.65H30.3332V47.0167H6.06654C4.39127 47.0167 3.0332 45.6586 3.0332 43.9834V13.65Z" fill="#F5F5F5"/>
<path d="M25.7832 13.65H30.3332V47.0167H25.7832V13.65Z" fill="#CFD8DC"/>
<path d="M66.7332 47.0167H6.06654C4.39127 47.0167 3.0332 48.3747 3.0332 50.05C3.0332 51.7253 4.39127 53.0833 6.06654 53.0833H66.7332C68.4085 53.0833 69.7665 51.7253 69.7665 50.05C69.7665 48.3747 68.4085 47.0167 66.7332 47.0167Z" fill="#9E9E9E"/>
<path d="M13.6499 53.0833V66.7333C13.6499 68.4086 15.008 69.7666 16.6832 69.7666H21.2332L18.4684 87.7361C18.4011 88.1736 18.5283 88.6187 18.8166 88.9546C19.105 89.2905 19.5257 89.4836 19.9683 89.4833H46.4797C46.961 89.4834 47.4138 89.255 47.6998 88.8679C47.9858 88.4807 48.0711 87.9808 47.9296 87.5208L42.4666 69.7666H50.0499C59.2639 69.7666 66.7332 62.2973 66.7332 53.0833H13.6499Z" fill="#F5F5F5"/>
<path d="M42.4665 69.7667H37.9165L43.3765 87.5208C43.5179 87.9803 43.4329 88.4797 43.1476 88.8667C42.8623 89.2537 42.4104 89.4825 41.9296 89.4833H46.4796C46.9609 89.4834 47.4137 89.255 47.6998 88.8679C47.9858 88.4807 48.0711 87.9808 47.9295 87.5208L42.4665 69.7667Z" fill="#CFD8DC"/>
<path d="M62.1833 53.0833C62.1833 62.2973 54.714 69.7666 45.5 69.7666H50.05C59.264 69.7666 66.7333 62.2973 66.7333 53.0833H62.1833Z" fill="#CFD8DC"/>
<path d="M36.4002 40.95H59.1502C62.5007 40.95 65.2168 43.6662 65.2168 47.0167H30.3335C30.3335 43.6662 33.0496 40.95 36.4002 40.95Z" fill="#F5F5F5"/>
<path d="M59.1501 40.95H54.6001C57.9506 40.95 60.6668 43.6662 60.6668 47.0167H65.2168C65.2168 43.6662 62.5006 40.95 59.1501 40.95Z" fill="#CFD8DC"/>
<path d="M86.4499 37.9167C86.4499 41.9965 84.0081 57.7698 83.5227 71.2833H74.3166V47.0167C74.3166 40.95 66.7332 40.95 62.1832 40.95H54.5999C51.3679 40.9966 48.2545 39.7333 45.9689 37.4477C43.6833 35.162 42.4199 32.0487 42.4666 28.8167C42.4666 22.3102 45.8184 20.2627 47.7142 16.9412C51.9154 17.5175 61.2277 19.0948 67.4157 22.6742C66.9846 23.4382 66.5032 24.1729 65.9749 24.8733C70.3564 25.1426 74.6871 25.9578 78.8666 27.3C86.4499 30.3333 86.4499 33.3667 86.4499 37.9167Z" fill="#FFE0B2"/>
<path d="M78.8665 27.3C74.687 25.9578 70.3563 25.1426 65.9749 24.8733C66.5032 24.1729 66.9845 23.4382 67.4157 22.6742C61.2277 19.0948 51.9154 17.5175 47.7142 16.9412C47.5838 17.1687 47.4457 17.3962 47.3047 17.607C52.727 18.4625 57.9793 20.1728 62.8657 22.6742C62.4345 23.4382 61.9532 24.1729 61.4249 24.8733C65.8063 25.1426 70.137 25.9578 74.3165 27.3C81.8999 30.3333 81.8999 33.3667 81.8999 37.9167C81.8999 41.9965 79.458 57.7698 78.9727 71.2833H83.5227C84.008 57.7698 86.4499 41.9965 86.4499 37.9167C86.4499 33.3667 86.4499 30.3333 78.8665 27.3Z" fill="#DFC49C"/>
<path d="M89.4834 83.4167V86.45C89.4784 88.1232 88.1233 89.4783 86.4501 89.4833H69.7667C68.0935 89.4783 66.7384 88.1232 66.7334 86.45V83.4167C66.7384 81.7435 68.0935 80.3883 69.7667 80.3833H72.8001C71.1269 80.3783 69.7717 79.0232 69.7667 77.35V74.3167C69.7717 72.6435 71.1269 71.2883 72.8001 71.2833H84.9334C86.6066 71.2883 87.9617 72.6435 87.9667 74.3167V77.35C87.9617 79.0232 86.6066 80.3783 84.9334 80.3833H86.4501C88.1233 80.3883 89.4784 81.7435 89.4834 83.4167Z" fill="#3F51B5"/>
<path d="M86.45 80.3833H84.9333C86.6065 80.3783 87.9616 79.0232 87.9666 77.35V74.3167C87.9616 72.6435 86.6065 71.2883 84.9333 71.2833H80.3833C82.0565 71.2883 83.4116 72.6435 83.4166 74.3167V77.35C83.4116 79.0232 82.0565 80.3783 80.3833 80.3833H81.9C83.5732 80.3883 84.9283 81.7435 84.9333 83.4167V86.45C84.9283 88.1232 83.5732 89.4783 81.9 89.4833H86.45C88.1232 89.4783 89.4783 88.1232 89.4833 86.45V83.4167C89.4783 81.7435 88.1232 80.3883 86.45 80.3833Z" fill="#283593"/>
<path d="M71.2834 1.51666C71.2754 6.60967 70.7674 11.6896 69.7667 16.6833C69.2651 18.7798 68.4739 20.7961 67.4159 22.6742C61.2279 19.0948 51.9155 17.5175 47.7144 16.9412C48.0566 16.3842 48.3316 15.7885 48.5334 15.1667C50.05 10.6167 50.05 1.51666 50.05 1.51666H71.2834Z" fill="#E91E63"/>
<path d="M66.7331 1.51666C66.7252 6.60967 66.2172 11.6896 65.2165 16.6833C64.8617 18.1333 64.3722 19.5469 63.7544 20.9057C65.0136 21.4114 66.2368 22.0022 67.4156 22.6742C68.4737 20.7961 69.2649 18.7798 69.7665 16.6833C70.7672 11.6896 71.2752 6.60967 71.2831 1.51666H66.7331Z" fill="#AD1457"/>
<path d="M88.8767 79.581C89.2697 78.9029 89.4789 78.1338 89.4833 77.35V74.3167C89.4754 71.878 87.5462 69.8792 85.1093 69.7849C85.4611 62.1439 86.3802 53.8599 87.0658 47.7037C87.589 43.0187 87.9667 39.6335 87.9667 37.9167C87.9667 33.2969 87.9667 29.3065 79.4293 25.891C75.9302 24.6954 72.2973 23.9344 68.6125 23.6251C68.6519 23.5569 68.6929 23.4977 68.7323 23.4279C69.8597 21.4315 70.703 19.2875 71.2378 17.0579C72.2751 11.9425 72.7984 6.73621 72.8 1.51667C72.8 0.679035 72.121 0 71.2833 0H50.05C49.2124 0 48.5333 0.679035 48.5333 1.51667C48.5333 1.60463 48.5151 10.4256 47.091 14.698C46.923 15.211 46.6949 15.7022 46.4115 16.1616V16.1722L46.4024 16.1889C45.9179 16.9918 45.3803 17.7615 44.7932 18.4927C42.2601 21.3287 40.888 25.0146 40.95 28.8167C40.8735 32.9454 42.7306 36.8726 45.9702 39.4333H37.9167V13.65C37.9167 12.8124 37.2376 12.1333 36.4 12.1333C35.5624 12.1333 34.8833 12.8124 34.8833 13.65V39.585C33.7797 39.819 32.743 40.2985 31.85 40.9879V14.745C32.7854 14.2075 33.3634 13.2122 33.3667 12.1333V10.6167C33.3617 6.43059 29.9694 3.03835 25.7833 3.03333H7.58333C3.39725 3.03835 0.00501428 6.43059 0 10.6167V12.1333C0.00325325 13.2122 0.581261 14.2075 1.51667 14.745V43.9833C1.52062 45.1063 1.94232 46.1876 2.69967 47.0167C1.48781 48.3452 1.1764 50.2647 1.90611 51.9081C2.63582 53.5516 4.26848 54.608 6.06667 54.6H12.1333V66.7333C12.1333 69.2462 14.1704 71.2833 16.6833 71.2833H19.4649L16.9685 87.5117C16.8359 88.3858 17.0912 89.2742 17.6677 89.9445C18.2441 90.6148 19.0843 91.0003 19.9684 91H46.4798C47.4424 91.0002 48.348 90.5434 48.9201 89.7691C49.4921 88.9948 49.6627 87.995 49.3796 87.0749L44.5202 71.2833H50.05C59.6041 71.2683 67.5218 63.8716 68.1863 54.3406C70.2974 53.6333 71.5836 51.4989 71.2225 49.3019C70.8614 47.1049 68.9598 45.4944 66.7333 45.5H66.5817C66.3549 44.4239 65.8946 43.4106 65.2334 42.5319C69.3799 42.7442 72.8015 43.6254 72.8015 47.0167V69.7667C70.2886 69.7667 68.2515 71.8038 68.2515 74.3167V77.35C68.2532 77.9304 68.3665 78.505 68.5852 79.0426C66.605 79.575 65.2256 81.3662 65.2167 83.4167V86.45C65.2167 88.9629 67.2538 91 69.7667 91H86.45C88.9629 91 91 88.9629 91 86.45V83.4167C90.9972 81.8585 90.1956 80.4106 88.8767 79.581ZM51.5439 3.03333H69.7439C69.6865 7.49902 69.202 11.949 68.297 16.3224C67.9387 17.7995 67.4305 19.2361 66.7803 20.61C61.4293 18.1925 55.7604 16.5516 49.9454 15.7369C49.956 15.7066 49.9711 15.6778 49.9802 15.6459C51.0131 11.5211 51.5382 7.28552 51.5439 3.03333ZM4.55 43.9833V15.1667H28.8167V18.2H27.3C26.4624 18.2 25.7833 18.879 25.7833 19.7167C25.7833 20.5543 26.4624 21.2333 27.3 21.2333H28.8167V45.5H6.06667C5.22903 45.5 4.55 44.821 4.55 43.9833ZM3.03333 10.6167C3.03333 8.10377 5.07044 6.06667 7.58333 6.06667H25.7833C28.2962 6.06667 30.3333 8.10377 30.3333 10.6167V12.1333H3.03333V10.6167ZM50.05 68.25H42.4667C41.9853 68.2499 41.5325 68.4783 41.2465 68.8654C40.9605 69.2526 40.8752 69.7525 41.0167 70.2126L46.4798 87.9667H19.9669L22.7318 69.9972C22.799 69.5599 22.672 69.1151 22.384 68.7793C22.096 68.4435 21.6757 68.2502 21.2333 68.25H16.6833C15.8457 68.25 15.1667 67.571 15.1667 66.7333V54.6H65.1408C64.3532 62.3456 57.8356 68.241 50.05 68.25ZM68.25 50.05C68.25 50.8876 67.571 51.5667 66.7333 51.5667H6.06667C5.22903 51.5667 4.55 50.8876 4.55 50.05C4.55 49.2124 5.22903 48.5333 6.06667 48.5333H66.7333C67.571 48.5333 68.25 49.2124 68.25 50.05ZM32.1093 45.5C32.7545 43.6835 34.4723 42.469 36.4 42.4667H59.15C61.0777 42.469 62.7955 43.6835 63.4406 45.5H32.1093ZM62.1833 39.4333H54.6C51.7661 39.4939 49.0304 38.3949 47.0261 36.3906C45.0218 34.3863 43.9227 31.6505 43.9833 28.8167C43.9297 25.6822 45.0805 22.6466 47.1987 20.3355C47.6294 19.7713 48.0556 19.1843 48.4605 18.5792C54.2596 19.3207 59.9214 20.8945 65.2713 23.252L65.2455 23.2869C59.6141 22.8122 54.6683 22.75 54.6182 22.75H54.6C54.0581 22.7467 53.5557 23.0328 53.282 23.5005C53.0082 23.9681 53.0048 24.5462 53.2729 25.0171C53.541 25.488 54.0399 25.7801 54.5818 25.7833C54.6349 25.7833 59.9811 25.8501 65.834 26.39C70.0724 26.6332 74.2627 27.4145 78.304 28.715C84.9333 31.3601 84.9333 33.5517 84.9333 37.9167C84.9333 39.4652 84.5435 42.952 84.0521 47.367C83.356 53.6005 82.4263 61.9937 82.0805 69.7667H75.8333V47.0167C75.8333 39.4333 66.6135 39.4333 62.1833 39.4333ZM87.9667 86.45C87.9667 87.2876 87.2876 87.9667 86.45 87.9667H69.7667C68.929 87.9667 68.25 87.2876 68.25 86.45V83.4167C68.25 82.579 68.929 81.9 69.7667 81.9H75.8333C76.671 81.9 77.35 81.221 77.35 80.3833C77.35 79.5457 76.671 78.8667 75.8333 78.8667H72.8C71.9624 78.8667 71.2833 78.1876 71.2833 77.35V74.3167C71.2833 73.479 71.9624 72.8 72.8 72.8H84.9333C85.771 72.8 86.45 73.479 86.45 74.3167V77.35C86.45 78.1876 85.771 78.8667 84.9333 78.8667H81.9C81.0624 78.8667 80.3833 79.5457 80.3833 80.3833C80.3833 81.221 81.0624 81.9 81.9 81.9H86.45C87.2876 81.9 87.9667 82.579 87.9667 83.4167V86.45Z" fill="black"/>
</svg>
