<svg width="45" height="74" viewBox="0 0 55 91" fill="none" xmlns="http://www.w3.org/2000/svg">
<path d="M49.4679 84.435C46.971 85.8055 39.3655 88.697 27.1751 88.697C14.9848 88.697 7.37931 85.8055 4.88241 84.435C2.46444 83.0933 0.89311 81.6296 2.58641 78.9318C4.03576 76.6215 8.19009 71.6564 15.5588 68.2195C17.4674 67.3298 19.5912 66.5549 20.8755 64.589C21.7336 63.1663 22.1483 61.5201 22.0665 59.8607H32.2838C32.202 61.5201 32.6167 63.1663 33.4748 64.589C34.7591 66.5549 36.8829 67.3298 38.7915 68.2195C46.1602 71.6564 50.3145 76.6215 51.7639 78.9318C53.4572 81.6296 51.8859 83.0933 49.4679 84.435Z" fill="#F97D8C"/>
<path d="M49.4679 84.435C46.971 85.8054 39.3655 88.6969 27.1751 88.6969C14.9848 88.6969 7.37931 85.8054 4.88241 84.435C2.46444 83.0932 0.89311 81.6295 2.58641 78.9317C4.03576 76.6214 8.19009 71.6563 15.5588 68.2195C15.6521 68.1764 15.7382 68.1333 15.8315 68.0975C18.4073 71.807 24.0038 74.7128 27.1751 74.7128C30.3465 74.7128 35.943 71.807 38.5188 68.0975C38.6121 68.1333 38.6982 68.1764 38.7915 68.2195C46.1602 71.6563 50.3145 76.6214 51.7639 78.9317C53.4572 81.6295 51.8859 83.0932 49.4679 84.435Z" fill="#FFA85A"/>
<path d="M27.1752 75.7891C23.7226 75.7891 17.7608 72.762 14.9475 68.7117C14.7847 68.4771 14.7218 68.1875 14.7725 67.9066C14.8232 67.6256 14.9835 67.3763 15.218 67.2135C15.4526 67.0507 15.7422 66.9878 16.0231 67.0385C16.3041 67.0892 16.5534 67.2495 16.7162 67.484C19.0839 70.8921 24.3733 73.6366 27.1752 73.6366C29.977 73.6366 35.2679 70.8921 37.6342 67.484C37.715 67.3679 37.8179 67.2688 37.9369 67.1924C38.056 67.1161 38.189 67.0639 38.3282 67.0389C38.4675 67.0139 38.6103 67.0166 38.7485 67.0468C38.8867 67.077 39.0176 67.1342 39.1338 67.215C39.2499 67.2958 39.349 67.3986 39.4253 67.5177C39.5017 67.6368 39.5539 67.7698 39.5789 67.909C39.6038 68.0483 39.6012 68.1911 39.5709 68.3293C39.5407 68.4675 39.4836 68.5984 39.4028 68.7145C36.5895 72.762 30.6278 75.7891 27.1752 75.7891Z" fill="#332C44"/>
<path d="M33.4748 64.589C31.509 65.5336 29.3561 66.024 27.1751 66.024C24.9942 66.024 22.8412 65.5336 20.8755 64.589C21.7336 63.1663 22.1483 61.5201 22.0665 59.8607H32.2837C32.202 61.5201 32.6166 63.1663 33.4748 64.589Z" fill="#F65E7B"/>
<path d="M27.1754 89.771C12.7665 89.771 5.18255 85.8247 4.3646 85.3741C2.89588 84.5641 1.33818 83.5158 0.912703 81.8727C0.788956 81.2667 0.792933 80.6416 0.924381 80.0372C1.05583 79.4329 1.31186 78.8625 1.67612 78.3627C2.39363 77.2147 6.41163 71.2989 15.1027 67.245C15.3359 67.1353 15.5734 67.0298 15.8116 66.9207C18.5912 65.6608 20.992 64.5731 20.992 59.8598C20.992 59.5744 21.1053 59.3006 21.3072 59.0988C21.509 58.8969 21.7828 58.7836 22.0682 58.7836C22.3536 58.7836 22.6274 58.8969 22.8292 59.0988C23.0311 59.3006 23.1445 59.5744 23.1445 59.8598C23.1445 65.9586 19.5706 67.5801 16.6991 68.8809C16.4688 68.9857 16.2392 69.0897 16.0125 69.1959C7.87461 72.9937 4.16083 78.4502 3.49786 79.5064C3.29517 79.7614 3.14618 80.0547 3.05986 80.3688C2.97355 80.6828 2.95169 81.0111 2.99561 81.3339C3.16781 82.0019 3.91042 82.6663 5.4021 83.4864C6.16983 83.909 13.3025 87.6163 27.1739 87.6163C41.0454 87.6163 48.178 83.909 48.9465 83.4857C50.4375 82.6641 51.1801 81.9997 51.3523 81.3332C51.3961 81.0104 51.3741 80.6822 51.2878 80.3681C51.2015 80.0541 51.0526 79.7607 50.85 79.5057C50.1885 78.4495 46.4769 72.9929 38.3375 69.1952C38.1101 69.089 37.8805 68.985 37.6502 68.8802C34.7802 67.5794 31.2049 65.9607 31.2049 59.8591C31.2049 59.5736 31.3182 59.2999 31.5201 59.0981C31.7219 58.8962 31.9957 58.7828 32.2811 58.7828C32.5665 58.7828 32.8403 58.8962 33.0421 59.0981C33.244 59.2999 33.3574 59.5736 33.3574 59.8591C33.3574 64.5723 35.7581 65.6601 38.5377 66.92C38.7759 67.0276 39.0134 67.1353 39.2473 67.2443C47.9355 71.2982 51.9557 77.2176 52.6739 78.362C53.0378 78.862 53.2935 79.4324 53.4248 80.0367C53.5561 80.641 53.5601 81.266 53.4366 81.872C53.0111 83.5151 51.4534 84.5633 49.9854 85.3727C49.1682 85.824 41.5842 89.771 27.1754 89.771Z" fill="#332C44"/>
<path d="M15.0859 62.7794C14.8313 62.779 14.5851 62.6882 14.3911 62.5234C14.197 62.3585 14.0678 62.1302 14.0262 61.879C13.9896 61.6637 13.9243 61.5267 13.831 61.4822C13.5226 61.4042 13.1958 61.4497 12.9205 61.6092C11.2638 62.5175 9.75847 61.3502 9.15075 60.3414C9.0734 60.2203 9.02107 60.085 8.99685 59.9434C8.97263 59.8017 8.97701 59.6567 9.00973 59.5168C9.04244 59.3769 9.10284 59.245 9.18735 59.1288C9.27187 59.0126 9.37878 58.9146 9.50181 58.8403C9.62483 58.7661 9.76146 58.7173 9.90365 58.6968C10.0458 58.6762 10.1907 58.6843 10.3297 58.7206C10.4687 58.7569 10.599 58.8207 10.713 58.9082C10.827 58.9957 10.9223 59.1051 10.9933 59.23C11.0363 59.2974 11.4654 59.9561 11.8837 59.7229C12.3197 59.4747 12.8067 59.3297 13.3075 59.299C13.8082 59.2683 14.3093 59.3526 14.7724 59.5457C15.1464 59.7382 15.4675 60.0196 15.7075 60.3651C15.9476 60.7106 16.0992 61.1097 16.1492 61.5274C16.1959 61.8088 16.129 62.0973 15.9631 62.3293C15.7972 62.5614 15.546 62.7182 15.2646 62.7651C15.2055 62.7745 15.1457 62.7793 15.0859 62.7794Z" fill="#332C44"/>
<path d="M10.8723 67.07C10.2693 67.0639 9.67735 66.9073 9.15027 66.6144C8.90826 66.4707 8.73218 66.2379 8.65977 65.9659C8.58735 65.6939 8.62437 65.4044 8.76288 65.1593C8.90139 64.9143 9.13037 64.7333 9.40075 64.6551C9.67113 64.5769 9.96138 64.6077 10.2093 64.741C10.2811 64.7783 10.9742 65.1378 11.226 64.7331C11.4829 64.302 11.8352 63.9355 12.2559 63.6619C12.6766 63.3882 13.1544 63.2147 13.6526 63.1546C14.0734 63.1375 14.492 63.2242 14.8714 63.4072C15.2508 63.5901 15.5793 63.8636 15.828 64.2036C16.0076 64.4257 16.0915 64.7101 16.0614 64.9942C16.0312 65.2782 15.8895 65.5387 15.6673 65.7182C15.4452 65.8978 15.1608 65.9817 14.8767 65.9515C14.5927 65.9214 14.3322 65.7797 14.1527 65.5575C14.0092 65.386 13.9231 65.2891 13.7868 65.3078C13.4797 65.391 13.2177 65.5914 13.0571 65.866C12.8334 66.2433 12.5128 66.5539 12.1287 66.7656C11.7445 66.9773 11.3107 67.0824 10.8723 67.07Z" fill="#332C44"/>
<path d="M39.0859 63.3139C38.8053 63.314 38.5358 63.2046 38.3348 63.0089C38.1338 62.8133 38.0171 62.5468 38.0096 62.2664C37.9793 61.8465 38.0525 61.4256 38.2229 61.0407C38.3933 60.6557 38.6556 60.3185 38.9868 60.0586C39.4049 59.7813 39.881 59.6036 40.3786 59.539C40.8761 59.4744 41.3818 59.5248 41.8568 59.6863C42.3218 59.8384 42.6325 59.0405 42.636 59.0326C42.7365 58.7675 42.9376 58.5528 43.1955 58.4351C43.4533 58.3174 43.7473 58.3061 44.0134 58.4038C44.2795 58.5016 44.4963 58.7003 44.6167 58.957C44.7371 59.2136 44.7515 59.5074 44.6565 59.7745C44.2511 60.8802 42.9919 62.3123 41.196 61.7347C40.8954 61.6301 40.5659 61.6471 40.2776 61.7821C40.1944 61.8438 40.1557 61.988 40.1614 62.209C40.1689 62.4942 40.0629 62.7707 39.8666 62.9778C39.6703 63.1849 39.3998 63.3055 39.1146 63.3132L39.0859 63.3139Z" fill="#332C44"/>
<path d="M43.6974 66.7608C43.3514 66.7627 43.0091 66.6902 42.6936 66.5484C42.3781 66.4065 42.0967 66.1986 41.8685 65.9386C41.7667 65.8175 41.6411 65.7187 41.4995 65.6482C41.358 65.5777 41.2034 65.5371 41.0455 65.5289C40.9429 65.5425 40.8381 65.648 40.7341 65.8446C40.6678 65.9694 40.5776 66.08 40.4686 66.17C40.3596 66.2599 40.2339 66.3276 40.0987 66.369C39.9636 66.4104 39.8216 66.4248 39.6809 66.4113C39.5402 66.3978 39.4035 66.3568 39.2786 66.2905C39.1538 66.2242 39.0432 66.134 38.9533 66.025C38.8633 65.916 38.7957 65.7903 38.7543 65.6551C38.7128 65.52 38.6985 65.378 38.7119 65.2373C38.7254 65.0966 38.7664 64.9599 38.8327 64.8351C39.013 64.4547 39.284 64.1244 39.6218 63.8732C39.9595 63.622 40.3538 63.4576 40.77 63.3943C41.2701 63.3605 41.7713 63.4408 42.2358 63.6291C42.7003 63.8174 43.1159 64.1088 43.4513 64.4813C43.7734 64.8329 44.3883 64.3479 44.4558 64.2912C44.6745 64.111 44.9554 64.0243 45.2377 64.0499C45.5199 64.0756 45.7807 64.2115 45.9633 64.4282C46.1459 64.645 46.2356 64.925 46.2131 65.2075C46.1905 65.49 46.0574 65.7522 45.8427 65.9371C45.2416 66.4469 44.4852 66.7373 43.6974 66.7608Z" fill="#332C44"/>
<path d="M31.8773 67.3678C31.0423 65.7621 30.4915 64.0241 30.2492 62.2305H24.0981C23.8563 64.0238 23.3057 65.7617 22.4708 67.3671C22.3288 67.6355 22.2443 67.9306 22.2228 68.2334C22.2012 68.5363 22.2431 68.8404 22.3456 69.1262C22.4482 69.412 22.6092 69.6733 22.8184 69.8933C23.0277 70.1134 23.2805 70.2874 23.5607 70.4043C24.6962 70.9182 25.928 71.1848 27.1743 71.1867C28.4207 71.1886 29.6532 70.9255 30.7902 70.4151C31.0709 70.2972 31.3239 70.1221 31.5331 69.901C31.7423 69.68 31.9032 69.4177 32.0054 69.1311C32.1077 68.8444 32.1491 68.5395 32.1271 68.2359C32.105 67.9324 32.0199 67.6367 31.8773 67.3678Z" fill="#FC4974"/>
<path d="M27.1957 72.269C25.798 72.2566 24.4176 71.959 23.139 71.3944C22.8201 71.2659 22.5327 71.07 22.2964 70.8203C22.0602 70.5705 21.8806 70.2727 21.77 69.9472C21.6325 69.4252 21.6038 68.8804 21.6858 68.3468C21.7677 67.8132 21.9586 67.3022 22.2464 66.8454C23.0212 65.3507 23.531 63.7329 23.7531 62.064C23.7928 61.8105 23.9218 61.5795 24.1168 61.4127C24.3117 61.2459 24.5599 61.1542 24.8165 61.1542H29.5326C29.7892 61.1542 30.0374 61.2459 30.2323 61.4127C30.4273 61.5795 30.5563 61.8105 30.5959 62.064C30.8183 63.7331 31.3281 65.3511 32.1027 66.8462C32.3917 67.304 32.5834 67.8164 32.6658 68.3515C32.7483 68.8866 32.7197 69.4329 32.582 69.9565C32.4717 70.282 32.2925 70.5798 32.0566 70.8297C31.8207 71.0795 31.5337 71.2756 31.2151 71.4044C29.9484 71.964 28.5805 72.2582 27.1957 72.269ZM25.7177 63.3067C25.4275 64.9068 24.8916 66.4524 24.1291 67.8887C23.861 68.2881 23.7464 68.771 23.8062 69.2484C23.8213 69.2928 23.8421 69.3538 23.9835 69.4141C24.9861 69.8691 26.0741 70.1054 27.1751 70.1074C28.2761 70.1093 29.365 69.8769 30.3692 69.4256C30.4991 69.3696 30.5271 69.3151 30.5457 69.2584C30.6058 68.778 30.4903 68.2922 30.2207 67.8901C29.458 66.4533 28.922 64.9073 28.6314 63.3067H25.7177Z" fill="#332C44"/>
<path d="M43.4326 83.7935C42.9203 82.3879 41.5341 78.7531 40.4951 76.5431C39.1725 73.8581 38.0285 71.0888 37.0705 68.2531C36.2095 65.4205 35.8213 65.0309 34.8462 65.1414C33.478 65.2963 33.3173 67.7287 33.9537 71.0808C34.0828 71.7617 33.686 72.152 33.1185 72.0494C31.0803 71.2171 28.9474 70.6388 26.7679 70.3274C24.3858 69.9881 22.473 70.0792 22.3825 71.6189C22.3596 72.0028 22.6165 72.5409 23.405 72.7669C22.5583 72.683 20.9727 72.5933 20.6993 73.8762C20.5379 74.6353 21.4885 75.3377 22.1852 75.5465C20.8586 75.5623 20.4912 76.7778 21.0731 77.3181C22.1745 78.3405 24.8615 79.4462 27.1604 80.0395C25.9748 80.0575 24.7974 80.2398 23.6618 80.5812C23.4642 80.6104 23.2802 80.6996 23.1349 80.8367C22.9895 80.9738 22.8897 81.1522 22.8491 81.3479C22.8084 81.5435 22.8287 81.7469 22.9073 81.9306C22.986 82.1143 23.1191 82.2694 23.2887 82.375C24.0235 82.7789 25.5482 82.6261 28.4949 82.8485C30.2597 82.9598 31.9446 83.6238 33.3108 84.7463C34.5158 85.7307 35.4806 86.9768 36.132 88.3898C36.5474 89.1791 37.567 89.5543 38.771 89.362C41.6022 88.9107 43.1047 87.4513 43.6184 86.1756C43.8106 85.3819 43.7455 84.5477 43.4326 83.7935ZM22.1881 75.5422C22.1745 75.5379 22.1616 75.5329 22.1924 75.5422H22.1881Z" fill="#FF9EA7"/>
<path d="M44.4435 83.4233C43.9879 82.1713 42.5637 78.4123 41.4688 76.0826C40.167 73.4446 39.0405 70.7236 38.0965 67.9375C37.3202 65.3897 36.7462 63.8327 34.7243 64.0702C34.4257 64.103 34.1375 64.1985 33.8786 64.3506C33.6196 64.5027 33.3958 64.7079 33.2218 64.9527C32.4512 65.9981 32.312 67.8981 32.8042 70.791C30.9136 70.0403 28.9375 69.526 26.9207 69.2599C24.4884 68.914 23.0677 69.0791 22.168 69.8159C21.9095 70.0275 21.699 70.2918 21.5505 70.591C21.4021 70.8903 21.3191 71.2177 21.307 71.5516C21.302 71.6514 21.3049 71.7514 21.3156 71.8508C20.8967 71.9639 20.5181 72.1926 20.223 72.5106C19.9279 72.8287 19.7282 73.2234 19.6467 73.6495C19.5803 73.97 19.588 74.3014 19.6694 74.6184C19.7507 74.9354 19.9035 75.2296 20.1159 75.4785C20.0007 75.6392 19.9076 75.8146 19.839 76.0001C19.6979 76.369 19.674 76.7724 19.7707 77.1553C19.8674 77.5383 20.0799 77.882 20.3793 78.1397C21.1848 78.7599 22.0636 79.2785 22.996 79.6837C22.6655 79.8286 22.3784 80.0568 22.1628 80.3462C21.9472 80.6355 21.8105 80.9759 21.7662 81.334C21.7171 81.726 21.7865 82.1238 21.9655 82.476C22.1446 82.8282 22.425 83.1186 22.7707 83.31C23.4688 83.6938 24.3549 83.7261 25.8244 83.7799C26.5211 83.805 27.3878 83.8366 28.4146 83.9141C29.8983 83.9976 31.3195 84.5402 32.4813 85.4668L32.688 85.616C33.7541 86.5041 34.6061 87.6212 35.1806 88.8842C35.4792 89.4002 35.9156 89.8228 36.4409 90.1048C36.9662 90.3868 37.5596 90.5169 38.1546 90.4807C38.419 90.4802 38.6828 90.4591 38.9439 90.4175C41.7055 89.9763 43.8279 88.5377 44.6207 86.5689C44.9095 85.5294 44.8472 84.4238 44.4435 83.4233ZM42.6189 85.7674C42.2279 86.7418 40.9687 87.9156 38.6009 88.2937C37.8834 88.4093 37.275 88.2428 37.0848 87.8833C36.3609 86.3175 35.2822 84.9419 33.9343 83.8653L33.7413 83.7261C32.2574 82.5656 30.4557 81.8837 28.5753 81.7709C27.5098 81.6906 23.9287 81.9697 23.9029 81.5557C23.8534 80.7872 27.4904 81.2199 27.5672 81.2199C27.8314 81.2199 28.0864 81.1228 28.2836 80.9469C28.4808 80.7711 28.6064 80.5289 28.6365 80.2664C28.6667 80.0039 28.5992 79.7395 28.447 79.5236C28.2948 79.3076 28.0685 79.1552 27.8111 79.0954C25.6931 78.601 21.7167 77.6805 22.0754 76.8137C22.1062 76.7475 22.1582 76.6934 22.2232 76.66C22.2882 76.6266 22.3624 76.6158 22.4342 76.6293C23.598 76.6745 26.8389 77.7996 28.0838 78.2157C28.1937 78.2521 28.3088 78.2708 28.4246 78.271C28.6803 78.2712 28.9276 78.1805 29.1225 78.015C29.3173 77.8495 29.4469 77.62 29.488 77.3677C29.5291 77.1154 29.479 76.8567 29.3468 76.6379C29.2145 76.4191 29.0087 76.2546 28.7661 76.1737C27.1826 75.6449 22.0087 74.7007 22.079 74.0521C22.1178 73.6933 22.7535 73.7816 23.2988 73.8368C25.2352 74.0576 27.1519 74.4257 29.0323 74.9382C29.1697 74.9765 29.3132 74.9872 29.4547 74.9696C29.5962 74.952 29.7328 74.9065 29.8565 74.8356C29.9803 74.7648 30.0887 74.6701 30.1755 74.557C30.2624 74.4439 30.3259 74.3146 30.3623 74.1768C30.3988 74.0389 30.4075 73.8952 30.3879 73.754C30.3684 73.6128 30.3209 73.4768 30.2484 73.3541C30.1759 73.2313 30.0796 73.1242 29.9654 73.0389C29.8511 72.9537 29.721 72.892 29.5827 72.8574C27.4502 72.2935 25.3408 72.0065 23.6561 71.713C23.4674 71.68 23.4681 71.5365 23.5284 71.4827C23.6869 71.3392 24.3262 71.0673 26.6136 71.3923C28.5028 71.6366 30.353 72.1217 32.119 72.8359C32.3785 72.9521 32.6486 73.0432 32.9255 73.1078C33.2132 73.1672 33.511 73.155 33.7929 73.0723C34.0747 72.9896 34.332 72.8389 34.542 72.6336C34.7575 72.4017 34.9127 72.1205 34.994 71.8146C35.0753 71.5087 35.0803 71.1875 35.0084 70.8793C34.3741 67.5393 34.7845 66.354 34.9653 66.2091C35.012 66.2066 35.0584 66.2016 35.1045 66.194C35.5438 66.928 35.8589 67.7295 36.0373 68.5661C37.0094 71.4511 38.1719 74.2685 39.5172 76.9996C40.5791 79.2575 41.971 82.9347 42.418 84.1609C42.6321 84.6683 42.7017 85.2251 42.6189 85.7696V85.7674Z" fill="#332C44"/>
<path d="M31.059 1.28387C19.9141 -0.00762892 16.135 4.98474 14.9519 7.50604C14.5353 8.3819 13.8088 9.07216 12.9127 9.44329C4.18218 13.1528 -0.543997 24.927 1.93999 25.9867C3.65769 26.7193 2.17533 32.1866 3.44674 37.0685L51.0098 37.123C51.5886 32.8514 51.7807 28.5364 51.5838 24.2303C51.5157 23.3693 51.2667 22.5319 51.8995 21.9414C52.2904 21.6123 52.6063 21.2033 52.826 20.7419C53.0456 20.2805 53.164 19.7775 53.1731 19.2666C53.4357 15.4983 41.193 2.73322 31.059 1.28387Z" fill="#3D60AC"/>
<path d="M40.0553 11.1897C39.8573 11.1895 39.6631 11.1346 39.4942 11.0311L39.0795 10.7743C33.8324 7.51178 26.1021 3.90132 19.5635 10.1723C19.4622 10.2732 19.3418 10.353 19.2093 10.4069C19.0768 10.4608 18.9349 10.4877 18.7918 10.4861C18.6488 10.4845 18.5075 10.4544 18.3763 10.3976C18.245 10.3408 18.1264 10.2584 18.0273 10.1552C17.9283 10.052 17.8508 9.93009 17.7994 9.7966C17.748 9.66312 17.7237 9.52073 17.728 9.37775C17.7323 9.23478 17.765 9.0941 17.8243 8.96392C17.8836 8.83375 17.9682 8.71669 18.0732 8.6196C26.5728 0.462337 36.8402 6.84809 40.2139 8.94678L40.6157 9.19503C40.816 9.31743 40.9708 9.50196 41.0565 9.7205C41.1422 9.93905 41.1541 10.1796 41.0904 10.4056C41.0267 10.6315 40.8908 10.8304 40.7036 10.972C40.5163 11.1135 40.2879 11.19 40.0532 11.1897H40.0553Z" fill="#332C44"/>
<path d="M3.4482 36.3509C1.24332 37.4014 0.563848 40.0819 1.47507 42.9986C2.37841 45.898 6.06779 48.5527 8.82156 47.5289L7.75822 36.3732C7.09227 36.0305 6.35482 35.8499 5.60588 35.846C4.85693 35.8421 4.11766 36.0151 3.4482 36.3509Z" fill="#F97D8C"/>
<path d="M50.9022 36.3509C50.2329 36.0151 49.4937 35.842 48.7448 35.8459C47.996 35.8498 47.2587 36.0304 46.5929 36.3731L45.5288 47.5288C48.2826 48.5527 51.972 45.898 52.8753 42.9985C53.7865 40.0862 53.107 37.4013 50.9022 36.3509Z" fill="#F97D8C"/>
<path d="M18.5036 14.3223C18.828 14.156 19.1312 13.9515 19.407 13.7131C23.7392 10.0381 32.2653 11.3454 36.8702 14.7894C43.3579 19.6375 46.4044 28.7361 46.5931 36.3732C46.7047 40.0049 46.3764 43.6368 45.6151 47.1895C44.0158 54.0323 38.7989 59.2651 33.5173 61.6945C31.5407 62.6535 29.3723 63.1518 27.1753 63.1518C24.9784 63.1518 22.81 62.6535 20.8334 61.6945C15.5518 59.2651 10.3349 54.0323 8.73558 47.1895C7.97348 43.6373 7.64414 40.006 7.75476 36.3746C7.94633 28.8968 10.9598 18.1142 18.5036 14.3223Z" fill="#FF9EA7"/>
<path d="M12.9689 30.3089C14.2443 29.8339 15.6023 29.6203 16.962 29.6807C18.3217 29.7411 19.6553 30.0743 20.8836 30.6605C21.1285 30.7895 21.3178 31.0034 21.4161 31.262C21.5144 31.5207 21.5149 31.8064 21.4174 32.0654C21.3196 32.3369 21.1224 32.5612 20.8657 32.6932C20.609 32.8251 20.3119 32.8549 20.0341 32.7764C18.232 32.2088 16.3487 31.9422 14.4598 31.9872C13.1095 32.1178 12.6216 31.7339 12.4673 31.3285C12.4031 31.1267 12.4194 30.9078 12.5129 30.7178C12.6064 30.5277 12.7698 30.3812 12.9689 30.3089Z" fill="#332C44"/>
<path d="M41.3851 30.309C40.109 29.8368 38.7514 29.6247 37.3922 29.6851C36.0329 29.7455 34.6995 30.0771 33.4703 30.6605C33.2255 30.7895 33.0361 31.0034 32.9378 31.2621C32.8395 31.5207 32.8391 31.8064 32.9365 32.0654C33.0344 32.3369 33.2315 32.5613 33.4882 32.6932C33.7449 32.8252 34.0421 32.8549 34.3198 32.7764C36.1219 32.2089 38.0053 31.9422 39.8941 31.9872C41.2444 32.1178 41.7323 31.7339 41.8866 31.3285C41.9508 31.1267 41.9345 30.9079 41.841 30.7178C41.7475 30.5278 41.5841 30.3813 41.3851 30.309Z" fill="#332C44"/>
<path d="M20.1807 38.8859C19.9217 38.8862 19.6714 38.7926 19.4761 38.6226C18.8763 38.137 18.1569 37.8216 17.3934 37.7094C16.6298 37.5972 15.8501 37.6923 15.1359 37.9848C14.8792 38.0975 14.5887 38.1056 14.3261 38.0073C14.0635 37.9091 13.8496 37.7123 13.7299 37.4587C13.6102 37.2052 13.5942 36.9149 13.6853 36.6498C13.7764 36.3846 13.9673 36.1654 14.2175 36.0389C15.3033 35.5379 16.511 35.3621 17.6945 35.5328C18.8781 35.7036 19.9868 36.2136 20.8867 37.0011C21.0522 37.1449 21.1697 37.3359 21.2237 37.5484C21.2777 37.7609 21.2654 37.9848 21.1887 38.1902C21.1119 38.3955 20.9742 38.5726 20.7941 38.6975C20.6139 38.8225 20.3999 38.8895 20.1807 38.8895V38.8859Z" fill="#332C44"/>
<path d="M34.1694 38.886C33.9501 38.8859 33.7361 38.819 33.556 38.694C33.3759 38.569 33.2382 38.392 33.1614 38.1866C33.0846 37.9812 33.0724 37.7573 33.1264 37.5448C33.1803 37.3323 33.2979 37.1414 33.4634 36.9975C34.3774 36.2348 35.4855 35.7412 36.6638 35.572C37.8422 35.4027 39.0444 35.5644 40.1361 36.0389C40.3863 36.1654 40.5773 36.3846 40.6684 36.6498C40.7594 36.9149 40.7434 37.2052 40.6238 37.4587C40.5041 37.7123 40.2902 37.9091 40.0276 38.0074C39.765 38.1056 39.4744 38.0975 39.2177 37.9848C38.5036 37.6918 37.7238 37.5964 36.9602 37.7086C36.1965 37.8209 35.4772 38.1366 34.8776 38.6226C34.6813 38.7935 34.4296 38.887 34.1694 38.886Z" fill="#332C44"/>
<path d="M27.1747 53.1103H29.9371C30.5441 53.1103 31.1045 52.3849 30.8799 51.4178C30.5534 50.0373 29.4894 48.194 27.1747 48.194C24.8601 48.194 23.796 50.038 23.4695 51.4185C23.245 52.3857 23.8053 53.1111 24.4123 53.1111L27.1747 53.1103Z" fill="white"/>
<path d="M27.1792 46.0144C26.3027 46.0459 25.4489 45.7321 24.8014 45.1405C24.6995 45.0425 24.6178 44.9254 24.5611 44.7959C24.5044 44.6664 24.4738 44.527 24.4709 44.3857C24.4681 44.2443 24.4931 44.1038 24.5446 43.9721C24.5961 43.8405 24.673 43.7202 24.7709 43.6183C24.8689 43.5163 24.9859 43.4347 25.1154 43.378C25.2449 43.3212 25.3844 43.2906 25.5257 43.2878C25.667 43.2849 25.8076 43.31 25.9392 43.3615C26.0709 43.4129 26.1912 43.4898 26.2931 43.5878C26.5539 43.7661 26.8625 43.8616 27.1785 43.8616C27.4945 43.8616 27.8031 43.7661 28.0639 43.5878C28.1657 43.4898 28.2859 43.4128 28.4175 43.3613C28.5491 43.3097 28.6896 43.2846 28.8309 43.2873C28.9722 43.29 29.1116 43.3206 29.2411 43.3772C29.3706 43.4338 29.4877 43.5153 29.5857 43.6172C29.6837 43.7191 29.7607 43.8392 29.8122 43.9708C29.8638 44.1024 29.8889 44.2429 29.8862 44.3842C29.8834 44.5255 29.8529 44.6649 29.7963 44.7944C29.7397 44.9239 29.6582 45.041 29.5563 45.139C28.9094 45.7312 28.0557 46.0456 27.1792 46.0144Z" fill="#332C44"/>
<path d="M52.1779 35.866C52.6933 31.9816 52.853 28.0583 52.655 24.1449C52.6421 23.9791 52.6227 23.8141 52.6034 23.6505C52.5373 23.0808 52.5266 22.8276 52.6313 22.7293C53.121 22.3076 53.5173 21.7886 53.7952 21.2053C54.073 20.6219 54.2262 19.9871 54.245 19.3412C54.5779 14.549 41.3164 1.66344 31.1831 0.214806C19.1922 -1.17427 15.1577 4.53201 13.9774 7.049C13.6722 7.68374 13.1429 8.18312 12.4915 8.45099C4.87379 11.6898 0.207167 20.6743 0.204297 24.4871C0.204297 26.1654 1.02727 26.7673 1.50154 26.9661C1.78854 27.2459 1.78495 28.9285 1.78423 30.042C1.72827 31.9817 1.87592 33.9219 2.22478 35.8308C0.153354 37.2938 -0.550514 40.1265 0.448247 43.3186C1.19504 45.4227 2.73524 47.1511 4.73962 48.1345C5.60728 48.5761 6.56442 48.8134 7.53787 48.8283C7.71216 48.8226 7.88603 48.8078 8.05877 48.7838C9.0488 51.816 10.6515 54.6123 12.7674 56.9991C14.8834 59.386 17.4673 61.3124 20.3589 62.6589C22.4848 63.6728 24.807 64.2084 27.1622 64.228C29.5161 64.2026 31.8372 63.6722 33.9684 62.6725C38.6243 60.5329 44.149 55.8039 46.2958 48.7838C46.4685 48.8078 46.6424 48.8226 46.8167 48.8283C47.7902 48.8134 48.7473 48.5761 49.615 48.1345C51.6192 47.1512 53.1593 45.4231 53.9063 43.3194C54.8929 40.153 54.2091 37.339 52.1779 35.866ZM5.68743 46.2023C4.21333 45.4791 3.0732 44.2175 2.50245 42.6779C1.72827 40.2004 2.28146 38.0995 3.91162 37.3232C4.77279 36.9059 5.75615 36.8154 6.67902 37.0685C6.67902 37.7293 6.67902 38.4963 6.70413 39.353C6.10368 39.1049 5.45798 38.9852 4.8085 39.0014C4.52391 39.0254 4.26051 39.1615 4.07624 39.3797C3.89196 39.5978 3.8019 39.8803 3.82588 40.1649C3.84986 40.4495 3.9859 40.7129 4.20409 40.8971C4.42227 41.0814 4.70472 41.1715 4.98931 41.1475C5.34716 41.1538 5.69937 41.2378 6.02151 41.3938C6.34364 41.5498 6.62798 41.774 6.85481 42.0508C6.98611 43.5989 7.21085 45.1376 7.52782 46.6586C6.88753 46.6493 6.2579 46.4932 5.68743 46.2023ZM44.563 46.9435C42.9286 53.9534 37.5531 58.6545 33.0407 60.7295C31.2077 61.6177 29.1968 62.0779 27.1599 62.0756C25.123 62.0732 23.1133 61.6083 21.2823 60.7159C16.7972 58.6545 11.4217 53.9534 9.78723 46.9435C9.05955 43.5885 8.73915 40.158 8.83296 36.7262V36.4005C9.02525 28.5919 12.2849 18.6524 18.9856 15.2838C19.3863 15.079 19.7612 14.8271 20.102 14.5332C21.6999 13.18 24.0016 12.5881 26.4576 12.5881C29.9499 12.5923 33.3579 13.661 36.2271 15.6518C42.8281 20.5854 45.3573 29.9129 45.518 36.3768V36.7262C45.6116 40.158 45.291 43.5885 44.563 46.9435ZM37.515 13.9277C32.4925 10.1723 23.3803 8.92957 18.7101 12.8923C18.4996 13.0756 18.2678 13.2329 18.0198 13.3608C10.9094 16.9354 7.31616 26.4775 6.75508 34.8859C5.9248 34.7319 5.07158 34.7521 4.24956 34.9454C4.00266 33.3246 3.89846 31.6853 3.93817 30.0463C3.93817 27.6377 3.93817 25.7277 2.43142 25.0288C2.34747 24.8373 2.25204 24.1191 2.68254 22.6611C3.68704 19.2587 7.46971 12.9311 13.3367 10.4378C14.4755 9.96228 15.3986 9.08309 15.929 7.96883C17.1488 5.36574 20.7148 1.1698 30.9097 2.35439C40.4805 3.71836 52.3113 16.1153 52.0975 19.192C52.0978 19.5679 52.0142 19.939 51.8528 20.2785C51.6915 20.618 51.4564 20.9172 51.1648 21.1543C50.826 21.5158 50.5843 21.9572 50.4622 22.4374C50.3401 22.9176 50.3416 23.4208 50.4666 23.9002C50.4824 24.0365 50.4989 24.175 50.5097 24.3156C50.6934 27.8643 50.5649 31.4222 50.1258 34.9483C49.2973 34.7504 48.4365 34.7282 47.5988 34.883C47.1051 27.7876 44.2517 18.9652 37.515 13.9277ZM51.8478 42.6786C51.2769 44.2179 50.1368 45.4792 48.6628 46.2023C48.0919 46.4932 47.4618 46.6491 46.821 46.6579C47.1384 45.137 47.3632 43.5982 47.494 42.0501C47.7242 41.7736 48.0113 41.5499 48.3357 41.3943C48.66 41.2386 49.0142 41.1547 49.3739 41.1482C49.6586 41.1705 49.9404 41.0787 50.1575 40.8932C50.3745 40.7076 50.5089 40.4435 50.5312 40.1588C50.5535 39.8741 50.4617 39.5922 50.2762 39.3752C50.0906 39.1581 49.8265 39.0237 49.5418 39.0014C48.8928 38.9826 48.2472 39.1007 47.6469 39.348C47.6698 38.4949 47.6734 37.7322 47.6713 37.0742C48.5933 36.8153 49.5783 36.9039 50.4394 37.3232C52.0724 38.0995 52.622 40.2004 51.8478 42.6786Z" fill="#332C44"/>
<path d="M29.9378 54.1873H24.413C24.1139 54.1829 23.8196 54.1107 23.5523 53.9763C23.285 53.8418 23.0516 53.6486 22.8697 53.411C22.6313 53.0961 22.4674 52.7312 22.3902 52.3439C22.3131 51.9566 22.3247 51.5568 22.4241 51.1745C22.8855 49.2107 24.3764 47.1178 27.1747 47.1178C29.9729 47.1178 31.4639 49.2115 31.9274 51.1702C32.0269 51.5533 32.0383 51.9539 31.9608 52.342C31.8832 52.7301 31.7187 53.0956 31.4797 53.411C31.2979 53.6484 31.0648 53.8415 30.7978 53.976C30.5307 54.1104 30.2367 54.1827 29.9378 54.1873ZM24.53 52.0348H29.8194C29.8635 51.9148 29.8677 51.7837 29.8316 51.661C29.6996 51.1035 29.1119 49.2703 27.1747 49.2703C25.2374 49.2703 24.6498 51.1042 24.5199 51.6667C24.4834 51.7873 24.4869 51.9165 24.53 52.0348Z" fill="#332C44"/>
</svg>
