<svg width="61" height="67" viewBox="0 0 61 67" fill="none" xmlns="http://www.w3.org/2000/svg">
<path fill-rule="evenodd" clip-rule="evenodd" d="M30.334 0C37.9311 0 44.2236 5.87538 45.3359 13.5447L45.336 13.5448C45.451 14.337 45.5103 15.1484 45.5099 15.9742C45.5099 16.8004 45.4505 17.6122 45.3355 18.4043C44.5064 29.437 38.1071 38.0208 30.3336 38.0208C22.6597 38.0208 16.3247 29.6547 15.3676 18.8267C15.3545 18.6846 15.3424 18.542 15.3316 18.399C15.2643 17.9298 15.2181 17.4526 15.19 16.9712C15.1709 16.6413 15.1582 16.3099 15.1582 15.9748C15.1582 15.1509 15.2181 14.3409 15.3321 13.5507C16.4412 5.87885 22.7353 0 30.334 0ZM30.3341 35.7005C37.1581 35.7005 42.7771 28.1638 43.5043 18.478L43.5037 18.479C43.5944 17.8541 43.6434 17.2143 43.6528 16.5642L41.5226 19.0113C42.6984 16.4082 38.5119 9.78578 38.5119 9.78578C31.4607 14.8865 20.9724 9.78578 20.9724 9.78578C17.8075 11.035 19.3067 19.9343 19.3067 19.9343C18.5178 19.3833 17.7929 19.0968 17.2022 18.9482C18.0732 28.4065 23.6202 35.7005 30.3341 35.7005ZM30.8843 48.8678C30.8843 48.8678 42.8437 39.9407 42.9227 36.3257H42.9239C53.0213 37.2481 60.9312 45.7365 60.9312 56.0738C60.9312 67.0001 52.0955 67.0001 41.1805 67H41.0982H20.6729H20.5904C9.67501 67.0001 0.839844 67.0001 0.839844 56.0738C0.839844 45.7363 8.74926 37.2478 18.846 36.3257C18.9258 39.9404 30.8843 48.8678 30.8843 48.8678ZM46.7892 55.1753H49.7877V52.6189H46.7892V49.62H44.2328V52.6189H41.2339V55.1753H44.2328V58.1734H46.7892V55.1753Z" fill="#371B2B"/>
</svg>
