<svg width="60" height="63" viewBox="0 0 60 63" fill="none" xmlns="http://www.w3.org/2000/svg">
<path fill-rule="evenodd" clip-rule="evenodd" d="M30.0444 36.2019C39.4257 36.2019 47.0549 28.0816 47.0549 18.1003C47.0544 8.11862 39.4253 0 30.0444 0C20.664 0 13.0338 8.11888 13.0338 18.1016C13.0353 28.0828 20.6658 36.2019 30.0444 36.2019ZM45.0773 39.9619L45.0774 39.9621L45.0767 39.962L45.0773 39.9619ZM45.0774 39.9621C45.5081 40.9589 45.7882 42.0421 45.8794 43.1844C47.8543 43.6553 49.3364 45.5333 49.3364 47.7751C49.3364 50.371 47.3515 52.4829 44.9117 52.4829C42.4719 52.4829 40.487 50.371 40.487 47.7751C40.487 45.5747 41.9159 43.727 43.8362 43.2131C43.6933 41.7848 43.1719 40.4787 42.3874 39.398C41.6291 39.2581 40.8555 39.1307 40.0658 39.016L30.0447 49.0073L20.0232 39.0176C19.0497 39.1575 18.0986 39.3167 17.174 39.4956C16.3282 40.6985 15.8126 42.1739 15.7636 43.7771C16.1577 44.0206 16.4763 44.3965 16.6725 44.8533C18.1265 45.5833 19.4105 47.1203 20.3939 49.3085C20.5587 49.6773 20.5796 50.0931 20.4594 50.4726C21.0488 52.0868 21.3859 53.8517 21.3859 55.3336C21.3859 57.4102 21.3859 59.374 19.2585 59.8778C19.0277 60.0819 18.74 60.1936 18.437 60.1936H17.0158C16.303 60.1936 15.7237 59.5756 15.7237 58.8182C15.7394 58.0462 16.3192 57.4429 17.0158 57.4429H18.437C18.5833 57.4429 18.7257 57.4692 18.8625 57.5213C18.9484 57.494 18.9755 57.4727 18.9755 57.4727C19.1336 57.1741 19.1336 55.9312 19.1336 55.3346C19.1336 54.1291 18.8506 52.6754 18.3544 51.326C18.0965 51.1709 17.8886 50.9349 17.7608 50.6499C16.8985 48.73 15.7266 47.4896 14.7749 47.4896C13.801 47.4896 12.5706 48.8305 11.713 50.8242C11.5729 51.1485 11.3269 51.4138 11.0239 51.5714C10.5752 52.8659 10.3287 54.1962 10.3287 55.333C10.3287 55.8342 10.3287 57.165 10.5082 57.4767H10.5087C10.509 57.4767 10.5102 57.4773 10.5125 57.4785L10.5125 57.4785C10.525 57.485 10.5685 57.5076 10.663 57.5323C10.8117 57.4717 10.966 57.4408 11.1265 57.4408H12.5506C13.2325 57.4408 13.7991 58.0092 13.8413 58.7353L13.8517 58.7788L13.8437 58.8172C13.8437 59.5755 13.2639 60.1925 12.5516 60.1925H11.1274C10.8449 60.1925 10.5718 60.0924 10.3472 59.909C9.53379 59.7458 8.96115 59.3634 8.59828 58.7429C8.15855 57.9926 8.07735 57.0053 8.07735 55.332C8.07735 53.8637 8.39598 52.1742 8.97436 50.5595C8.88936 50.2139 8.91785 49.8532 9.05889 49.5283C9.66196 48.1262 10.4284 46.9252 11.2755 46.0567C11.7413 45.5787 12.2414 45.1953 12.7651 44.9154C12.9627 44.4258 13.3041 44.0246 13.7229 43.77C13.7538 42.4598 14.0254 41.2144 14.4984 40.0802C5.85783 42.2184 0.0869141 46.0811 0.0869141 50.4918C0.0869141 57.2156 0.0869141 62.6668 30.0428 62.6668C60 62.6668 60 57.2161 60 50.4918C60.0005 45.9952 53.9985 42.0715 45.0774 39.9621ZM44.9117 49.9481C46.04 49.9481 46.9541 48.9755 46.9541 47.7756C46.9541 46.5751 46.04 45.6025 44.9117 45.6025C43.7839 45.6025 42.8698 46.5751 42.8698 47.7756C42.8698 48.9755 43.7839 49.9481 44.9117 49.9481Z" fill="#371B2B"/>
</svg>
