<svg width="80" height="80" viewBox="0 0 121 121" fill="none" xmlns="http://www.w3.org/2000/svg">
<path fill-rule="evenodd" clip-rule="evenodd" d="M54.432 2.7495L48.2952 9.74332C47.9781 10.1044 47.5624 10.3633 47.0992 10.4875C46.6359 10.6117 46.1454 10.595 45.6909 10.4408L36.8786 7.45348C34.6769 6.70664 32.2628 6.94356 30.2512 8.10696C28.2397 9.26685 26.8236 11.2397 26.3717 13.5189L24.5531 22.6456C24.4589 23.1168 24.2272 23.5492 23.8882 23.8883C23.55 24.2274 23.1167 24.459 22.6455 24.5524L13.5189 26.371C11.2406 26.8228 9.26783 28.2399 8.10694 30.2514C6.94443 32.263 6.70751 34.677 7.45435 36.8789L10.4408 45.6913C10.5958 46.1457 10.6116 46.6363 10.4883 47.0995C10.3642 47.5619 10.1052 47.9785 9.74415 48.2955L2.75038 54.4324C1.00307 55.9666 0 58.1771 0 60.4995C0 62.8229 1.00312 65.0334 2.75038 66.5676L9.74415 72.7045C10.1052 73.0215 10.3642 73.4381 10.4883 73.9005C10.6116 74.3637 10.5958 74.8543 10.4408 75.3087L7.45435 84.1211C6.70751 86.3229 6.94443 88.737 8.10694 90.7486C9.2677 92.7601 11.2404 94.1771 13.5189 94.629L22.6455 96.4476C23.1167 96.541 23.55 96.7726 23.8882 97.1117C24.2272 97.4508 24.4588 97.8832 24.5531 98.3544L26.3717 107.481C26.8235 109.76 28.2397 111.733 30.2512 112.893C32.2628 114.056 34.6768 114.293 36.8786 113.547L45.6909 110.559C46.1454 110.405 46.6359 110.388 47.0992 110.512C47.5624 110.637 47.9781 110.896 48.2952 111.257L54.432 118.25C55.967 119.997 58.1766 121 60.5 121C62.8234 121 65.0329 119.997 66.568 118.25L72.7048 111.257C73.0219 110.896 73.4376 110.637 73.9008 110.512C74.3632 110.388 74.8537 110.405 75.3091 110.559L84.1214 113.547C86.3231 114.293 88.7372 114.056 90.7488 112.893C92.7603 111.733 94.1764 109.76 94.6283 107.481L96.4469 98.3544C96.5412 97.8832 96.7719 97.4508 97.111 97.1117C97.45 96.7726 97.8825 96.541 98.3536 96.4476L107.48 94.629C109.759 94.1772 111.732 92.7601 112.893 90.7486C114.056 88.737 114.293 86.323 113.546 84.1211L110.558 75.3087C110.404 74.8543 110.387 74.3637 110.512 73.9005C110.636 73.4381 110.895 73.0215 111.256 72.7045L118.25 66.5676C119.997 65.0334 121 62.8229 121 60.4995C121 58.1771 119.997 55.9666 118.25 54.4324L111.256 48.2955C110.895 47.9785 110.636 47.5619 110.512 47.0995C110.387 46.6363 110.404 46.1457 110.558 45.6913L113.546 36.8789C114.293 34.6771 114.056 32.263 112.893 30.2514C111.732 28.2399 109.76 26.8228 107.48 26.371L98.3536 24.5524C97.8825 24.459 97.45 24.2274 97.111 23.8883C96.7719 23.5492 96.5412 23.1168 96.4469 22.6456L94.6283 13.5189C94.1765 11.2397 92.7603 9.26696 90.7488 8.10696C88.7372 6.94353 86.3232 6.70664 84.1214 7.45348L75.3091 10.4408C74.8537 10.595 74.3632 10.6117 73.9008 10.4875C73.4376 10.3633 73.0219 10.1044 72.7048 9.74332L66.568 2.7495C65.033 1.00306 62.8234 0 60.5 0C58.1766 0 55.9671 1.00312 54.432 2.7495ZM58.3863 6.21958C58.9209 5.61014 59.6897 5.26313 60.5 5.26313C61.3103 5.26313 62.0791 5.61014 62.6137 6.21958L68.7505 13.2134C69.7536 14.3566 71.0702 15.1747 72.5393 15.5693C74.0083 15.9603 75.5594 15.911 76.9983 15.4231L85.8106 12.4357C86.5768 12.1741 87.417 12.2569 88.1197 12.662C88.8199 13.0672 89.3131 13.7532 89.4699 14.5468L91.2885 23.6734C91.5862 25.1645 92.3163 26.5341 93.3907 27.6084C94.4661 28.6829 95.8356 29.413 97.3257 29.7107L106.452 31.5293C107.246 31.687 107.933 32.1802 108.337 32.8803C108.742 33.5823 108.825 34.4234 108.563 35.1895L105.576 44.0019C105.088 45.4401 105.039 46.992 105.43 48.46C105.824 49.929 106.643 51.2464 107.787 52.2497L114.78 58.3866C115.389 58.9212 115.737 59.69 115.737 60.4994C115.737 61.3097 115.389 62.0785 114.78 62.6131L107.787 68.7499C106.643 69.7531 105.824 71.0706 105.43 72.5397C105.039 74.0079 105.088 75.5598 105.576 76.9978L108.563 85.8102C108.825 86.5764 108.742 87.4166 108.337 88.1194C107.933 88.8195 107.246 89.3127 106.452 89.4704L97.3257 91.289C95.8355 91.5867 94.466 92.3168 93.3907 93.3913C92.3163 94.4657 91.5862 95.8353 91.2885 97.3263L89.4699 106.453C89.3131 107.246 88.8199 107.933 88.1197 108.338C87.4169 108.743 86.5767 108.826 85.8106 108.564L76.9983 105.577C75.5592 105.089 74.0082 105.039 72.5393 105.43C71.0703 105.824 69.7538 106.643 68.7505 107.786L62.6137 114.78C62.0791 115.39 61.3103 115.737 60.5 115.737C59.6897 115.737 58.9209 115.39 58.3863 114.78L52.2495 107.786C51.2464 106.643 49.9289 105.824 48.4607 105.43C46.9917 105.039 45.4406 105.089 44.0018 105.577L35.1894 108.564C34.4232 108.826 33.583 108.743 32.8803 108.338C32.1801 107.933 31.6869 107.246 31.5301 106.453L29.7115 97.3263C29.4138 95.8352 28.6837 94.4656 27.6084 93.3913C26.5339 92.3168 25.1644 91.5867 23.6734 91.289L14.5468 89.4704C13.7533 89.3127 13.0672 88.8195 12.6621 88.1194C12.257 87.4165 12.1751 86.5763 12.4366 85.8102L15.4231 76.9978C15.911 75.5596 15.9612 74.0077 15.5693 72.5397C15.1756 71.0707 14.3574 69.7533 13.2135 68.7499L6.21969 62.6131C5.61113 62.0785 5.26325 61.3097 5.26325 60.4994C5.26325 59.69 5.61113 58.9212 6.21969 58.3866L13.2135 52.2497C14.3575 51.2466 15.1757 49.9291 15.5693 48.46C15.9612 46.9918 15.911 45.4399 15.4231 44.0019L12.4366 35.1895C12.1751 34.4233 12.257 33.5822 12.6621 32.8803C13.0672 32.1802 13.7533 31.687 14.5468 31.5293L23.6734 29.7107C25.1645 29.413 26.5341 28.6829 27.6084 27.6084C28.6837 26.534 29.4138 25.1644 29.7115 23.6734L31.5301 14.5468C31.6869 13.7532 32.1801 13.0672 32.8803 12.662C33.5831 12.2569 34.4233 12.1741 35.1894 12.4357L44.0018 15.4231C45.4408 15.911 46.9918 15.9603 48.4607 15.5693C49.9288 15.1747 51.2462 14.3565 52.2495 13.2134L58.3863 6.21958Z" fill="#C992AE"/>
<path fill-rule="evenodd" clip-rule="evenodd" d="M33.8489 62.4647L50.2497 78.1862C51.3816 79.2713 53.2181 79.2713 54.3501 78.1862L87.1511 46.7437C88.283 45.6587 88.283 43.8982 87.1511 42.8131C86.0192 41.729 84.1826 41.729 83.0506 42.8131L52.2999 72.2927L37.9484 58.5355C36.8174 57.4514 34.9799 57.4514 33.8489 58.5355C32.717 59.6206 32.717 61.3811 33.8489 62.4662V62.4647Z" fill="#C992AE"/>
</svg>
