<svg width="20" height="20" viewBox="0 0 20 20" fill="none" xmlns="http://www.w3.org/2000/svg">
<path d="M12.6667 0.666659V3.3333C12.6667 3.51008 12.5965 3.67972 12.4715 3.80472C12.3465 3.92972 12.1768 3.99996 12.0001 3.99996H2.66685C2.49007 3.99996 2.32042 3.92972 2.19543 3.80472C2.07043 3.67972 2.00019 3.51008 2.00019 3.3333V0.666659C2.00019 0.489877 2.07043 0.320233 2.19543 0.195236C2.32042 0.0702392 2.49007 0 2.66685 0H12.0001C12.1768 0 12.3465 0.0702392 12.4715 0.195236C12.5965 0.320233 12.6667 0.489877 12.6667 0.666659ZM10.6667 10.6665V15.9998C10.667 17.5306 11.3251 18.9876 12.4734 19.9998H0.666721C0.489938 19.9998 0.320295 19.9295 0.195298 19.8045C0.0703018 19.6795 6.26818e-05 19.5099 6.26818e-05 19.3331V9.99989C-0.00112778 9.91537 0.0146458 9.83144 0.0467897 9.75317L1.8801 5.16655C2.12772 5.27667 2.39571 5.33336 2.66668 5.33321H11.9999C12.2709 5.33336 12.5389 5.27667 12.7865 5.16655L13.1731 6.13991H13.1732C12.6695 6.45002 12.2194 6.83944 11.8399 7.29315C11.0726 8.24941 10.6583 9.4406 10.6665 10.6665L10.6667 10.6665ZM10.0001 11.3332C10.0001 11.1564 9.92985 10.9868 9.80485 10.8618C9.67986 10.7368 9.51021 10.6665 9.33343 10.6665H8.00011V9.33323C8.00011 9.09499 7.87303 8.87491 7.66678 8.75587C7.46054 8.63682 7.20637 8.63682 7.00013 8.75587C6.79388 8.87491 6.6668 9.095 6.6668 9.33323V10.6665H5.33348C5.09524 10.6665 4.87516 10.7936 4.75612 10.9999C4.63707 11.2061 4.63707 11.4603 4.75612 11.6665C4.87516 11.8728 5.09525 11.9999 5.33348 11.9999H6.6668V13.3332C6.6668 13.5714 6.79388 13.7915 7.00013 13.9106C7.20638 14.0296 7.46054 14.0296 7.66678 13.9106C7.87303 13.7915 8.00011 13.5714 8.00011 13.3332V11.9999H9.33343C9.51021 11.9999 9.67986 11.9296 9.80485 11.8046C9.92985 11.6796 10.0001 11.51 10.0001 11.3332ZM18.8266 7.83325C18.027 7.03387 16.9261 6.61033 15.7968 6.66747C14.6675 6.72461 13.6151 7.25718 12.9001 8.13324C12.3168 8.84855 11.9988 9.74363 12.0001 10.6665V12.6665H20V10.6665C20.0009 9.60378 19.5787 8.58429 18.8266 7.83325ZM12.0001 16C12.0001 17.2591 12.5928 18.4446 13.6 19.2C14.2908 19.7223 15.134 20.0034 16 20C17.0609 20 18.0783 19.5786 18.8284 18.8284C19.5785 18.0782 20 17.0609 20 16V14H12.0001V16Z" fill="#371B2B"/>
</svg>
