<svg width="58" height="77" viewBox="0 0 58 77" fill="none" xmlns="http://www.w3.org/2000/svg">
<path opacity="0.5" fill-rule="evenodd" clip-rule="evenodd" d="M36.6696 23.9563C35.259 23.9563 34.1172 22.8099 34.1172 21.3961V0.0013751H3.12649C1.39928 0.0013751 0 1.40381 0 3.13923V73.8621C0 75.5952 1.40472 77 3.13837 77H54.8616C56.5948 77 58 75.5862 58 73.8537V23.9557L36.6696 23.9563ZM28.9994 58.178C37.4788 58.178 44.3523 47.9117 44.3523 47.9117C44.3523 47.9117 37.4787 37.6453 28.9994 37.6453C20.5201 37.6453 13.6464 47.9117 13.6464 47.9117C13.6464 47.9117 20.5201 58.178 28.9994 58.178ZM28.9994 54.7562C32.7679 54.7562 35.8231 51.6916 35.8231 47.9117C35.8231 44.1317 32.7679 41.0672 28.9994 41.0672C25.2309 41.0672 22.1757 44.1317 22.1757 47.9117C22.1757 51.6916 25.2309 54.7562 28.9994 54.7562ZM28.9994 51.3337C30.8836 51.3337 32.4108 49.8018 32.4108 47.9118C32.4108 46.0218 30.8836 44.4899 28.9994 44.4899C27.1152 44.4899 25.5879 46.0218 25.5879 47.9118C25.5879 49.8018 27.1152 51.3337 28.9994 51.3337ZM57.9994 20.5341H39.2392C38.295 20.5341 37.5293 19.7667 37.5293 18.8189V0L57.9994 20.5341Z" fill="#371B2B"/>
</svg>
