<svg width="29" height="32" viewBox="0 0 29 32" fill="none" xmlns="http://www.w3.org/2000/svg">
<path opacity="0.5" d="M4.07805 27.1284C2.53601 27.7957 0.85672 27.3953 0 27.1284V27.3285C0 29.898 2.15899 32 4.79751 32H21.3151C23.0285 32 24.5705 31.099 25.3931 29.7643L6.61382 24.1586C6.09964 25.6268 5.24294 26.6279 4.07786 27.1283L4.07805 27.1284ZM19.4305 19.6872C19.4305 16.0834 22.4118 13.147 26.1129 13.0803V4.67145C26.1129 2.10203 23.9539 0 21.3154 0H4.79781C2.15906 0 0.000305803 2.10227 0.000305803 4.67145V25.9938C0.445874 26.194 2.19351 26.8281 3.66719 26.1607C4.66086 25.7269 5.34642 24.7926 5.72344 23.3579C5.75762 23.2245 5.86041 23.0909 5.99762 23.0241C6.13459 22.9573 6.2718 22.924 6.40877 22.9908L25.8734 28.7969C26.0448 28.3298 26.1134 27.8294 26.1134 27.2954V26.2943C22.4122 26.2275 19.431 23.291 19.431 19.6874L19.4305 19.6872ZM4.3522 5.13861H21.7265C22.0007 5.13861 22.2404 5.3723 22.2404 5.63904C22.2404 5.90602 22.0004 6.13947 21.7265 6.13947H4.3522C4.07802 6.13947 3.83826 5.90578 3.83826 5.63904C3.83826 5.3723 4.07826 5.13861 4.3522 5.13861ZM4.3522 10.2772H21.7265C22.0007 10.2772 22.2404 10.5109 22.2404 10.7777C22.2404 11.0446 22.0004 11.2781 21.7265 11.2781H4.3522C4.07802 11.2781 3.83826 11.0444 3.83826 10.7777C3.83826 10.4776 4.07826 10.2772 4.3522 10.2772ZM17.7856 16.3836H4.38647C4.11229 16.3836 3.87253 16.1499 3.87253 15.8832C3.87253 15.6162 4.11253 15.3828 4.38647 15.3828H17.7856C18.0597 15.3828 18.2995 15.6165 18.2995 15.8832C18.2995 16.1835 18.0595 16.3836 17.7856 16.3836ZM28.8544 18.7196L26.2842 16.217C26.25 16.1837 26.1814 16.1502 26.1128 16.1169C26.0442 16.0836 25.9759 16.0836 25.9414 16.0836C25.9073 16.0836 25.8045 16.0836 25.77 16.1169C25.7014 16.1502 25.6331 16.1837 25.5987 16.217L23.0285 18.7196C22.8229 18.9198 22.8229 19.22 23.0285 19.4205C23.2341 19.6206 23.5424 19.6206 23.7483 19.4205L25.4617 17.752V22.5904C25.4617 22.8574 25.7017 23.0908 25.9756 23.0908C26.2498 23.0908 26.4896 22.8571 26.4896 22.5904V17.752L28.203 19.4205C28.3058 19.5205 28.443 19.5538 28.58 19.5538C28.717 19.5538 28.8542 19.5205 28.9569 19.4205C29.0258 19.22 29.0258 18.9198 28.8544 18.7196Z" fill="#371B2B"/>
</svg>
