<svg width="20" height="19" viewBox="0 0 20 19" fill="none" xmlns="http://www.w3.org/2000/svg">
<path fill-rule="evenodd" clip-rule="evenodd" d="M6.33501 11.0837H7.91875C8.05874 11.0837 8.19308 11.1394 8.29206 11.2384C8.39105 11.3374 8.44673 11.4717 8.44673 11.6117V13.7232C8.44673 13.8632 8.39105 13.9975 8.29206 14.0965C8.19308 14.1955 8.05875 14.2512 7.91875 14.2512H6.33502V15.8349C6.33502 15.9749 6.27934 16.1093 6.18035 16.2082C6.08137 16.3072 5.94704 16.3629 5.80704 16.3629H3.69551C3.55552 16.3629 3.42119 16.3072 3.3222 16.2082C3.22322 16.1093 3.16754 15.9749 3.16754 15.8349V14.2512H1.5838C1.44381 14.2512 1.30948 14.1955 1.21049 14.0965C1.11151 13.9975 1.05583 13.8632 1.05583 13.7232V11.6117C1.05583 11.32 1.29233 11.0837 1.5838 11.0837H3.16754V9.23079C1.74715 8.72861 0.649131 7.58252 0.208123 6.14196C-0.232879 4.70139 0.0355862 3.13693 0.931574 1.92578C1.82738 0.714446 3.24478 0 4.75128 0C6.25777 0 7.67517 0.714446 8.57098 1.92578C9.46694 3.13693 9.73544 4.70139 9.29443 6.14196C8.85343 7.58252 7.75544 8.72861 6.33501 9.23079V11.0837ZM3.63135 3.62884C3.3344 3.92595 3.16754 4.3288 3.16754 4.74877C3.16754 5.16873 3.3344 5.57157 3.63135 5.86869C3.92846 6.16565 4.33131 6.3325 4.75128 6.3325C5.17124 6.3325 5.57408 6.16565 5.8712 5.86869C6.16815 5.57159 6.33501 5.16873 6.33501 4.74877C6.33501 4.3288 6.16815 3.92597 5.8712 3.62884C5.57409 3.33189 5.17124 3.16503 4.75128 3.16503C4.33131 3.16503 3.92847 3.33189 3.63135 3.62884ZM15.8374 7.91628V9.76921H15.8375C17.2579 10.2714 18.3559 11.4175 18.7969 12.858C19.2379 14.2986 18.9694 15.8631 18.0734 17.0742C17.1776 18.2855 15.7602 19 14.2537 19C12.7472 19 11.3298 18.2855 10.434 17.0742C9.53807 15.8631 9.26958 14.2986 9.71059 12.858C10.1516 11.4175 11.2496 10.2714 12.67 9.76921V7.91628L12.3902 8.20139C12.2891 8.2979 12.1551 8.35252 12.0155 8.35446C11.8751 8.35534 11.7403 8.3002 11.6406 8.20139L10.1466 6.70743C10.0466 6.60827 9.99036 6.47323 9.99036 6.33253C9.99036 6.19183 10.0466 6.05678 10.1466 5.95762L13.8788 2.22543C13.978 2.12539 14.113 2.06918 14.2537 2.06918C14.3944 2.06918 14.5294 2.12537 14.6286 2.22538L14.6286 2.22543L18.3608 5.95762C18.4608 6.05678 18.5171 6.19183 18.5171 6.33253C18.5171 6.47323 18.4608 6.60827 18.3608 6.70743L16.8668 8.20139C16.7677 8.30126 16.6328 8.35747 16.4919 8.35747C16.3512 8.35747 16.2164 8.30126 16.1172 8.20139L15.8374 7.91628ZM13.1337 13.1313C12.8368 13.4284 12.6699 13.8313 12.6699 14.2512C12.6699 14.6712 12.8368 15.074 13.1337 15.3712C13.4309 15.6681 13.8337 15.835 14.2537 15.835C14.6736 15.835 15.0765 15.6681 15.3736 15.3712C15.6706 15.074 15.8374 14.6712 15.8374 14.2512C15.8374 13.8313 15.6706 13.4284 15.3736 13.1313C15.0765 12.8344 14.6736 12.6675 14.2537 12.6675C13.8337 12.6675 13.4309 12.8344 13.1337 13.1313Z" fill="#371B2B"/>
</svg>
