<svg width="27" height="27" viewBox="0 0 27 27" fill="none" xmlns="http://www.w3.org/2000/svg">
<circle cx="13.5" cy="13.5" r="13.5" fill="white"/>
<path fill-rule="evenodd" clip-rule="evenodd" d="M25 13.5C25 7.14871 19.8513 2 13.5 2C7.14871 2 2 7.14871 2 13.5C2 19.8513 7.14871 25 13.5 25C19.8513 25 25 19.8513 25 13.5ZM12.1036 8.98214C12.1036 9.66257 12.6553 10.2143 13.3357 10.2143C14.0161 10.2143 14.5679 9.66257 14.5679 8.98214C14.5679 8.30172 14.0161 7.75 13.3357 7.75C12.6553 7.75 12.1036 8.30172 12.1036 8.98214ZM15.5536 11.0357C15.7804 11.0357 15.9643 11.2196 15.9643 11.4464C15.9643 11.6732 15.7804 11.8571 15.5536 11.8571H14.7459L15.4714 16.7857C15.6221 17.8367 15.0554 18.4286 13.9107 18.4286C13.203 18.4286 12.33 18.1807 11.8929 17.4538C11.8342 17.3776 11.8531 17.2822 11.9105 17.2437C12.0059 17.2052 12.0854 17.2437 12.1395 17.32C12.3124 17.587 12.5807 17.8557 12.925 17.8557C13.3053 17.8557 13.5775 17.7054 13.5 17.1143L12.5191 11.5093C12.4806 11.2603 12.6731 11.0357 12.925 11.0357L15.5536 11.0357Z" fill="#FF0606"/>
</svg>
