<svg width="77" height="50" viewBox="0 0 77 50" fill="none" xmlns="http://www.w3.org/2000/svg">
<path fill-rule="evenodd" clip-rule="evenodd" d="M71.4286 0H4.7619C2.14286 0 0 2.14286 0 4.7619V45.2381C0 47.8571 2.14286 50 4.7619 50H71.4286C74.0476 50 76.1905 47.8571 76.1905 45.2381V4.7619C76.1905 2.14286 74.0476 0 71.4286 0Z" fill="#34495E"/>
<path d="M28.5651 41.6666C37.7699 41.6666 45.2318 34.2047 45.2318 25C45.2318 15.7952 37.7699 8.33328 28.5651 8.33328C19.3604 8.33328 11.8984 15.7952 11.8984 25C11.8984 34.2047 19.3604 41.6666 28.5651 41.6666Z" fill="#E74C3C"/>
<path d="M47.6159 41.6666C56.8206 41.6666 64.2826 34.2047 64.2826 25C64.2826 15.7952 56.8206 8.33328 47.6159 8.33328C38.4111 8.33328 30.9492 15.7952 30.9492 25C30.9492 34.2047 38.4111 41.6666 47.6159 41.6666Z" fill="#F1C40F"/>
<path fill-rule="evenodd" clip-rule="evenodd" d="M42.378 16.6667H29.0446C28.5685 17.381 28.0923 18.0953 27.6161 19.0476H43.8065C43.3304 18.0953 42.8542 17.381 42.378 16.6667ZM38.5685 11.9048H33.0923C32.378 12.6191 31.6637 13.3334 30.9494 14.2857H40.9494C39.997 13.3334 39.0446 12.6191 38.5685 11.9048ZM44.7589 21.4286H26.9018C26.6637 22.1429 26.4256 23.0953 26.4256 23.8095H45.2351C44.997 23.0953 44.997 22.1429 44.7589 21.4286ZM29.0446 33.3334H42.378C42.8542 32.6191 43.3304 31.9048 43.8065 30.9524H27.6161C28.0923 31.9048 28.5685 32.6191 29.0446 33.3334ZM26.6637 28.5715H44.5208C44.7589 27.8572 44.997 26.9048 44.997 26.1905H26.1875C26.4256 26.9048 26.4256 27.8572 26.6637 28.5715ZM32.8542 38.0953H38.3304C39.0446 37.381 39.7589 36.6667 40.4732 35.7143H30.4732C31.4256 36.6667 32.378 37.381 32.8542 38.0953Z" fill="#E74C3C"/>
</svg>
