<svg width="65" height="75" viewBox="0 0 46 57" fill="none" xmlns="http://www.w3.org/2000/svg">
<mask id="path-1-inside-1_811_1105" fill="white">
<path fill-rule="evenodd" clip-rule="evenodd" d="M5 0C2.23858 0 0 2.23858 0 5V24.3231C1.95864 24.6032 3.50788 26.1525 3.78804 28.1111H42.212C42.4921 26.1525 44.0414 24.6032 46 24.3231V5C46 2.23858 43.7614 0 41 0H5ZM42.212 29.3889H3.78804C3.50788 31.3475 1.95864 32.8968 0 33.1769V51.2222C0 53.9836 2.23858 56.2222 5 56.2222H41C43.7614 56.2222 46 53.9836 46 51.2222V33.1769C44.0414 32.8968 42.4921 31.3475 42.212 29.3889Z"/>
</mask>
<path fill-rule="evenodd" clip-rule="evenodd" d="M5 0C2.23858 0 0 2.23858 0 5V24.3231C1.95864 24.6032 3.50788 26.1525 3.78804 28.1111H42.212C42.4921 26.1525 44.0414 24.6032 46 24.3231V5C46 2.23858 43.7614 0 41 0H5ZM42.212 29.3889H3.78804C3.50788 31.3475 1.95864 32.8968 0 33.1769V51.2222C0 53.9836 2.23858 56.2222 5 56.2222H41C43.7614 56.2222 46 53.9836 46 51.2222V33.1769C44.0414 32.8968 42.4921 31.3475 42.212 29.3889Z" fill="#92C9AD" fill-opacity="0.2"/>
<path d="M0 24.3231H-0.5V24.7566L-0.0707988 24.818L0 24.3231ZM3.78804 28.1111L3.29308 28.1819L3.35447 28.6111H3.78804V28.1111ZM42.212 28.1111V28.6111H42.6455L42.7069 28.1819L42.212 28.1111ZM46 24.3231L46.0708 24.818L46.5 24.7566V24.3231H46ZM3.78804 29.3889V28.8889H3.35447L3.29308 29.3181L3.78804 29.3889ZM42.212 29.3889L42.7069 29.3181L42.6455 28.8889H42.212V29.3889ZM0 33.1769L-0.0707993 32.682L-0.5 32.7434V33.1769H0ZM46 33.1769H46.5V32.7434L46.0708 32.682L46 33.1769ZM0.5 5C0.5 2.51472 2.51472 0.5 5 0.5V-0.5C1.96243 -0.5 -0.5 1.96244 -0.5 5H0.5ZM0.5 24.3231V5H-0.5V24.3231H0.5ZM4.28301 28.0403C3.97139 25.8618 2.24935 24.1397 0.0707988 23.8281L-0.0707988 24.818C1.66792 25.0667 3.04438 26.4432 3.29308 28.1819L4.28301 28.0403ZM42.212 27.6111H3.78804V28.6111H42.212V27.6111ZM45.9292 23.8281C43.7506 24.1397 42.0286 25.8618 41.717 28.0403L42.7069 28.1819C42.9556 26.4432 44.3321 25.0667 46.0708 24.818L45.9292 23.8281ZM45.5 5V24.3231H46.5V5H45.5ZM41 0.5C43.4853 0.5 45.5 2.51472 45.5 5H46.5C46.5 1.96243 44.0376 -0.5 41 -0.5V0.5ZM5 0.5H41V-0.5H5V0.5ZM3.78804 29.8889H42.212V28.8889H3.78804V29.8889ZM0.0707993 33.6719C2.24935 33.3603 3.97139 31.6382 4.28301 29.4597L3.29308 29.3181C3.04438 31.0568 1.66792 32.4333 -0.0707993 32.682L0.0707993 33.6719ZM0.5 51.2222V33.1769H-0.5V51.2222H0.5ZM5 55.7222C2.51472 55.7222 0.5 53.7075 0.5 51.2222H-0.5C-0.5 54.2598 1.96243 56.7222 5 56.7222V55.7222ZM41 55.7222H5V56.7222H41V55.7222ZM45.5 51.2222C45.5 53.7075 43.4853 55.7222 41 55.7222V56.7222C44.0376 56.7222 46.5 54.2598 46.5 51.2222H45.5ZM45.5 33.1769V51.2222H46.5V33.1769H45.5ZM41.717 29.4597C42.0286 31.6382 43.7506 33.3603 45.9292 33.6719L46.0708 32.682C44.3321 32.4333 42.9556 31.0568 42.7069 29.3181L41.717 29.4597Z" fill="#92C9AD" fill-opacity="0.25" mask="url(#path-1-inside-1_811_1105)"/>
</svg>
