<svg width="20" height="26" viewBox="0 0 20 26" fill="none" xmlns="http://www.w3.org/2000/svg">
<path fill-rule="evenodd" clip-rule="evenodd" d="M12.6447 8.08914C12.1583 8.08914 11.7645 7.70204 11.7645 7.22465V0.000464319H1.0781C0.482511 0.000464319 0 0.474014 0 1.06V24.9405C0 25.5257 0.484386 26 1.0822 26H18.9178C19.5154 26 20 25.5226 20 24.9376V8.08893L12.6447 8.08914ZM9.99979 19.6445C12.9237 19.6445 15.2939 16.178 15.2939 16.178C15.2939 16.178 12.9237 12.7114 9.99979 12.7114C7.07589 12.7114 4.70567 16.178 4.70567 16.178C4.70567 16.178 7.07589 19.6445 9.99979 19.6445ZM9.99979 18.4891C11.2993 18.4891 12.3528 17.4543 12.3528 16.178C12.3528 14.9016 11.2993 13.8668 9.99979 13.8668C8.70031 13.8668 7.6468 14.9016 7.6468 16.178C7.6468 17.4543 8.70031 18.4891 9.99979 18.4891ZM9.99979 17.3335C10.6495 17.3335 11.1762 16.8162 11.1762 16.178C11.1762 15.5398 10.6495 15.0226 9.99979 15.0226C9.35005 15.0226 8.82342 15.5398 8.82342 16.178C8.82342 16.8162 9.35005 17.3335 9.99979 17.3335ZM19.9998 6.9336H13.5308C13.2052 6.9336 12.9411 6.67446 12.9411 6.35444V0L19.9998 6.9336Z" fill="#371B2B"/>
</svg>
