<svg width="17" height="17" viewBox="0 0 17 17" fill="none" xmlns="http://www.w3.org/2000/svg">
<path fill-rule="evenodd" clip-rule="evenodd" d="M8.5 0C13.1912 0 17 3.8089 17 8.49983C17 13.1911 13.1912 17 8.5 17C3.80882 17 0 13.1911 0 8.49983C0 3.8089 3.80882 0 8.5 0ZM3.93606 8.78543L6.78838 11.6377C6.946 11.795 7.20138 11.795 7.35915 11.6377L13.0637 5.93263C13.2211 5.77528 13.2211 5.51986 13.0637 5.36226C12.906 5.20491 12.6507 5.20491 12.493 5.36226L7.07363 10.7817L4.50696 8.21444C4.34921 8.05722 4.09396 8.05722 3.93619 8.21444C3.77885 8.37219 3.77885 8.62759 3.93619 8.78536L3.93606 8.78543Z" fill="#C992AE"/>
</svg>
