<svg width="27" height="27" viewBox="0 0 27 27" fill="none" xmlns="http://www.w3.org/2000/svg">
<circle cx="13.5" cy="13.5" r="13.5" fill="white"/>
<path fill-rule="evenodd" clip-rule="evenodd" d="M13.5 2C19.847 2 25 7.15301 25 13.5C25 19.847 19.847 25 13.5 25C7.15301 25 2 19.847 2 13.5C2 7.15301 7.15301 2 13.5 2ZM7.56853 14.1501L11.107 17.6654C11.4527 18.0096 12.011 18.0088 12.3559 17.6637L19.4328 10.5867C19.778 10.2418 19.778 9.68098 19.4328 9.33603C19.0879 8.99087 18.5271 8.99087 18.1821 9.33603L11.729 15.7892L8.81589 12.8948C8.46915 12.5506 7.90913 12.5532 7.56519 12.8992C7.22102 13.2459 7.2228 13.8059 7.56875 14.1501L7.56853 14.1501Z" fill="#01934D"/>
</svg>
