<svg width="111" height="111" viewBox="0 0 111 111" fill="none" xmlns="http://www.w3.org/2000/svg">
<circle opacity="0.8" cx="55.5" cy="55.5" r="55.5" fill="#92C9AD"/>
<circle cx="55.5" cy="55.5" r="44.1735" fill="#92C9AD"/>
<path fill-rule="evenodd" clip-rule="evenodd" d="M42.3188 42.7836C41.416 42.9427 41.0069 44.8657 41.403 47.0791C41.7603 49.1153 42.6791 50.69 43.5255 50.807C44.6038 53.706 46.3088 56.5184 48.4169 58.5811C49.6119 59.7482 50.9342 60.6696 52.3451 61.2293C53.3127 61.6148 54.3249 61.8266 55.3645 61.8266C56.4036 61.8266 57.4145 61.6153 58.3856 61.2293C59.8443 60.6493 61.2131 59.6842 62.4382 58.4561C64.496 56.4047 66.1564 53.6327 67.2157 50.7847C68.028 50.5464 68.8799 49.0241 69.2276 47.0791C69.6034 44.9697 69.2499 43.1325 68.4355 42.8223C68.4628 42.3063 68.4826 41.7873 68.4826 41.2536C68.4603 33.6086 63.9771 29.1644 56.9095 28.6903C50.749 28.2774 46.1058 30.7258 43.9918 34.7961C43.2822 36.1644 42.873 37.8775 42.7156 39.7352C42.4795 40.705 42.3423 41.7113 42.3423 42.7534H42.3646C42.3646 42.7631 42.3646 42.7699 42.3633 42.7795C42.3544 42.78 42.3454 42.781 42.3364 42.782L42.3187 42.7837L42.3188 42.7836ZM43.7241 45.1128C43.8134 44.8522 43.9304 44.6494 44.0827 44.5412C44.0937 44.5356 44.1048 44.5318 44.1154 44.5281C44.1289 44.5234 44.1416 44.519 44.1522 44.5117L44.1559 44.5096C44.1982 44.4854 44.2428 44.4598 44.2902 44.4537H44.2915C44.4586 44.4242 44.6328 44.4882 44.8054 44.6258C44.8054 44.6195 44.8063 44.613 44.8073 44.6064C44.8082 44.5999 44.8092 44.5934 44.8092 44.5871C44.8563 44.1207 45.3727 40.7204 48.1548 39.701C48.172 39.6942 48.1916 39.6896 48.2112 39.685C48.2281 39.681 48.2451 39.677 48.2609 39.6715C48.4448 39.6101 48.6321 39.5516 48.8371 39.5112C49.3203 39.4169 49.8611 39.3874 50.4643 39.443C50.4643 39.443 54.6988 41.0011 58.5532 39.6235C58.9691 39.6139 59.3731 39.6113 59.746 39.6248C60.9645 39.6718 61.8911 40.1645 62.7705 40.632L62.7705 40.6321C63.042 40.7764 63.3089 40.9183 63.5786 41.044H63.5811C63.5591 40.7787 63.4454 40.5103 63.3408 40.2634C63.2386 40.0224 63.1452 39.8019 63.1543 39.6248V39.6235C63.337 39.6766 63.502 39.7544 63.661 39.839C64.486 40.7195 65.2836 42.1909 65.9178 44.5967C65.9178 44.6089 65.9178 44.6165 65.9203 44.6262C65.9214 44.6262 65.9221 44.6259 65.9225 44.6254C65.9229 44.625 65.9232 44.6244 65.9235 44.6236L65.9241 44.6224C65.9241 44.6212 65.9241 44.6211 65.9246 44.6211C65.9252 44.6211 65.9263 44.6212 65.9287 44.6199V44.6249L65.9359 44.6127C66.01 44.5546 66.0832 44.5172 66.1573 44.4877C66.2516 44.4511 66.3463 44.4321 66.438 44.449C66.4789 44.4561 66.5197 44.47 66.5592 44.4877C67.0862 44.7339 67.3122 45.9641 67.0601 47.3686C66.8669 48.4431 66.4469 49.3283 66.0028 49.7104C65.9136 49.7845 65.821 49.8413 65.733 49.8733C65.7248 49.8758 65.7173 49.8769 65.7098 49.8781C65.7035 49.879 65.6973 49.8799 65.691 49.8817L65.5731 49.8943H65.5386C65.5274 49.8943 65.5166 49.8963 65.5059 49.8983C65.4918 49.901 65.4779 49.9036 65.4632 49.9015C65.3669 49.8863 65.2755 49.8371 65.196 49.7592V49.763C64.2204 52.8022 62.3597 55.8313 60.0069 57.6702C59.3196 58.2089 58.5877 58.6412 57.8259 58.9488C57.8133 58.9547 57.7985 58.9585 57.7851 58.9627L56.9168 59.2275C56.905 59.2304 56.8935 59.2336 56.8821 59.2367C56.8756 59.2385 56.8691 59.2403 56.8626 59.242C56.8576 59.2434 56.8525 59.2447 56.8473 59.246C56.8086 59.2547 56.7714 59.2671 56.7342 59.2795L56.7342 59.2795C56.6875 59.2951 56.6409 59.3106 56.5914 59.3188C56.5735 59.3227 56.5557 59.3245 56.5376 59.3264C56.5281 59.3274 56.5186 59.3284 56.5089 59.3297L56.1705 59.3643C56.1604 59.3652 56.1504 59.3659 56.1404 59.3666C56.1227 59.368 56.1053 59.3692 56.0881 59.3714C56.0257 59.3787 55.9633 59.3871 55.9008 59.3955C55.7227 59.4194 55.544 59.4434 55.362 59.4434C53.7324 59.4434 52.1906 58.7965 50.8119 57.743C48.417 55.9092 46.5214 52.8443 45.5298 49.7638H45.5285C45.4469 49.8379 45.3589 49.8863 45.2642 49.9048H45.2617C45.0601 49.9381 44.8446 49.8379 44.6422 49.6338C44.2242 49.218 43.8458 48.3788 43.6665 47.3724C43.6597 47.3356 43.655 47.2981 43.6503 47.2609L43.6503 47.2609L43.6503 47.2609C43.6466 47.2318 43.643 47.2028 43.6383 47.1746C43.6489 46.47 43.6766 45.7865 43.7242 45.1126L43.7241 45.1128ZM30.1412 77.0277C32.5336 81.5531 45.118 82.9491 55.299 82.9491H55.3142H55.3293C65.5076 82.9491 78.0941 81.5573 80.4861 77.0277C80.6738 76.6741 80.8005 76.3029 80.904 75.9187C81.1515 74.9679 81.1574 73.9375 80.8745 72.9632C79.8185 69.328 78.4397 66.9727 77.0491 65.4222C74.8492 62.9572 72.6358 62.5295 71.6643 62.3418C71.5531 62.3203 71.4582 62.3019 71.3814 62.2841C71.2387 62.2506 71.0922 62.2247 70.9457 62.1988L70.9455 62.1988C70.9019 62.1911 70.8584 62.1834 70.8149 62.1755L70.8395 62.2204C70.9012 62.3332 70.9629 62.4459 71.019 62.5648C71.2875 63.1397 71.4744 63.7383 71.5754 64.3472C71.7493 64.4062 71.9105 64.4752 72.0624 64.5564C73.6891 65.4272 74.3052 67.4605 73.4349 69.0877C72.8507 70.1791 71.7189 70.858 70.4802 70.858C69.9335 70.858 69.3876 70.7199 68.9031 70.4611C67.2764 69.5915 66.6603 67.5595 67.5307 65.9311C67.9494 65.1487 68.6645 64.5725 69.5194 64.3178C69.306 63.4811 68.8278 62.5299 68.0584 61.888L67.7586 61.8704C66.6155 61.8038 65.5722 61.7429 64.8437 61.5168C64.6682 62.9696 60.4505 67.7396 57.6869 70.7358L56.4887 66.1128C57.3889 65.5813 57.5855 64.4099 57.5855 63.4351H53.0416C53.0416 64.4019 53.2369 65.5618 54.1187 66.0997L52.9401 70.7324C50.1754 67.7391 45.9556 62.9675 45.7834 61.5171C45.0576 61.7431 44.0213 61.8037 42.8851 61.8702L42.7055 61.8808C41.8578 62.5222 41.235 63.4544 41.0081 64.255C41.2762 64.454 41.4938 64.7238 41.6373 65.0386C42.926 65.6468 44.0641 66.9267 44.9357 68.75C45.0818 69.0572 45.1003 69.4036 44.9938 69.7197C45.5161 71.0644 45.815 72.5346 45.815 73.769C45.815 75.4989 45.815 77.1348 43.9294 77.5545C43.7248 77.7241 43.4698 77.8176 43.2013 77.8176H41.9416C41.3098 77.8176 40.7964 77.3037 40.7964 76.6719C40.8102 76.0288 41.3241 75.5262 41.9416 75.5262H43.2013C43.3309 75.5262 43.4572 75.5481 43.5784 75.5906C43.6546 75.5683 43.6785 75.5506 43.6785 75.5506C43.8187 75.3019 43.8187 74.2674 43.8187 73.7695C43.8187 72.7652 43.5679 71.5543 43.128 70.4302C42.8995 70.3005 42.7151 70.1044 42.6019 69.8666C41.8376 68.2676 40.7989 67.2348 39.9554 67.2348C39.0922 67.2348 38.0017 68.3518 37.2415 70.0126C37.1174 70.2828 36.8993 70.5038 36.6308 70.6347C36.2331 71.7134 36.0146 72.822 36.0146 73.7686C36.0146 74.1861 36.0146 75.2947 36.1737 75.5544H36.1741C36.1744 75.5544 36.1755 75.5549 36.1775 75.5559C36.1885 75.5613 36.2271 75.5801 36.3109 75.6007C36.4427 75.5506 36.5795 75.5245 36.7217 75.5245H37.984C38.5884 75.5245 39.0905 75.998 39.1279 76.6028L39.1372 76.6386L39.13 76.671C39.13 77.3032 38.6161 77.8167 37.9848 77.8167H36.7225C36.4721 77.8167 36.2301 77.7334 36.031 77.5806C35.31 77.4446 34.8025 77.1269 34.4809 76.6092C34.0911 75.9842 34.0191 75.1617 34.0191 73.7678C34.0191 72.5446 34.3016 71.1373 34.8142 69.7921C34.7389 69.5043 34.7641 69.2037 34.8891 68.9331C35.4236 67.7651 36.103 66.7647 36.8538 66.0412C37.2666 65.643 37.7098 65.3236 38.1741 65.0904C38.3429 64.6939 38.6316 64.361 38.9872 64.1472C39.103 63.4948 39.3745 62.8193 39.7676 62.1825C39.7253 62.1902 39.683 62.1977 39.6407 62.2051L39.6404 62.2051C39.5062 62.2287 39.3721 62.2523 39.2419 62.2827C39.1657 62.3007 39.0713 62.3191 38.9605 62.3408L38.9601 62.3408C37.9559 62.5371 35.6081 62.9958 33.328 65.7134C32.0258 67.264 30.745 69.5434 29.7521 72.9611C29.481 73.8971 29.4777 74.8799 29.6991 75.8012C29.8043 76.2279 29.9364 76.6429 30.1406 77.0276L30.1412 77.0277ZM60.7446 75.1804C60.7446 74.9716 60.934 74.8033 61.1671 74.8033H63.4605V72.5103C63.4605 72.2767 63.6289 72.0877 63.8372 72.0877H66.1003C66.3078 72.0877 66.477 72.2767 66.477 72.5103V74.8033H68.77C69.0036 74.8033 69.1917 74.9716 69.1917 75.1804V77.4431C69.1917 77.6518 69.0027 77.8202 68.77 77.8202H66.4766V80.1131C66.4766 80.3467 66.3078 80.5357 66.0999 80.5357H63.8368C63.6284 80.5357 63.4601 80.3467 63.4601 80.1131V77.8202H61.1667C60.9339 77.8202 60.7441 77.6518 60.7441 77.4431L60.7446 75.1804ZM70.4847 69.3185C71.4844 69.3185 72.295 68.5079 72.295 67.5083C72.295 66.5082 71.4843 65.698 70.4847 65.698C69.4847 65.698 68.6745 66.5082 68.6745 67.5083C68.6745 68.5079 69.4847 69.3185 70.4847 69.3185Z" fill="#371B2B"/>
</svg>
